<?xml version="1.0" standalone="no"?>
<!DOCTYPE svg PUBLIC "-//W3C//DTD SVG 1.1//EN" "http://www.w3.org/Graphics/SVG/1.1/DTD/svg11.dtd" >
<svg xmlns="http://www.w3.org/2000/svg" xmlns:xlink="http://www.w3.org/1999/xlink" version="1.1">
<metadata>
Created by FontForge 20170910 at Wed Apr 19 21:30:37 2006
 By Jimmy Wärting
(c) Copyright SoftMaker Software GmbH and its licensors
</metadata>
<defs>
<font id="AvignonDemi" horiz-adv-x="503" >
  <font-face 
    font-family="Avignon"
    font-weight="700"
    font-stretch="normal"
    units-per-em="1000"
    panose-1="0 0 4 0 0 0 0 0 0 0"
    ascent="800"
    descent="-200"
    x-height="503"
    cap-height="670"
    bbox="-101 -251 1145 1153"
    underline-thickness="109"
    underline-position="-157"
    unicode-range="U+0020-FB04"
  />
<missing-glyph horiz-adv-x="500" 
d="M63 0v792h375v-792h-375zM125 63h250v667h-250v-667z" />
    <glyph glyph-name=".notdef" horiz-adv-x="500" 
d="M63 0v792h375v-792h-375zM125 63h250v667h-250v-667z" />
    <glyph glyph-name="NULL" horiz-adv-x="0" 
 />
    <glyph glyph-name="nonmarkingreturn" horiz-adv-x="251" 
 />
    <glyph glyph-name="space" unicode=" " horiz-adv-x="251" 
 />
    <glyph glyph-name="exclam" unicode="!" horiz-adv-x="261" 
d="M70 171v499h121v-499h-121zM70 0v115h121v-115h-121z" />
    <glyph glyph-name="quotedbl" unicode="&#x22;" horiz-adv-x="243" 
d="M36 461l-8 209h76l-8 -209h-60zM147 461l-8 209h76l-8 -209h-60z" />
    <glyph glyph-name="numbersign" unicode="#" 
d="M360 213l-21 -151h-79l21 151h-90l-22 -151h-79l21 151h-86l11 80h87l12 84h-87l11 80h87l21 151h79l-21 -151h90l22 151h79l-22 -151h84l-12 -80h-83l-12 -84h84l-12 -80h-83zM304 377h-90l-12 -84h90z" />
    <glyph glyph-name="dollar" unicode="$" 
d="M35 226h120q1 -35 23.5 -56.5t56.5 -21.5t57 22.5t23 55.5q0 44 -34 64q-7 4 -67 22t-101 54q-52 46 -52 126q0 62 33 107t91 61v116h114v-118q48 -14 81 -57.5t36 -97.5h-114q-16 55 -60 55q-25 0 -42.5 -18t-17.5 -44q0 -34 30 -54q12 -8 22.5 -12t59.5 -19
q142 -44 142 -185q0 -67 -37 -117t-100 -67v-120h-114v119q-47 13 -80 38q-70 54 -70 135v12z" />
    <glyph glyph-name="percent" unicode="%" horiz-adv-x="814" 
d="M223 0l278 670h87l-278 -670h-87zM197 683q68 0 115.5 -47.5t47.5 -115.5t-48 -116t-115 -48q-68 0 -115.5 48t-47.5 118q0 66 48 113.5t115 47.5zM197 586q-25 0 -43.5 -19.5t-18.5 -45.5q0 -28 18 -47t44 -19t44 19t18 46t-18.5 46.5t-43.5 19.5zM616 315q68 0 116 -48
t48 -116q0 -67 -48 -115.5t-116 -48.5t-116 48t-48 118q0 66 48.5 114t115.5 48zM616 218q-26 0 -45 -19.5t-19 -46.5q0 -29 18.5 -48.5t45.5 -19.5q26 0 44.5 19.5t18.5 47.5t-18.5 47.5t-44.5 19.5z" />
    <glyph glyph-name="ampersand" unicode="&#x26;" horiz-adv-x="619" 
d="M468 395h134l-116 -202l119 -129l-88 -77l-92 100q-74 -101 -171 -101q-91 0 -155.5 62.5t-64.5 150.5q0 115 126 189q-34 40 -45.5 64t-11.5 58q0 74 49 123.5t122 49.5t123 -47.5t50 -117.5q0 -105 -106 -165l62 -69zM265 436l14 7q54 27 54 69q0 57 -59 57
q-23 0 -39.5 -16t-16.5 -40q0 -30 47 -77zM341 178l-105 114q-81 -37 -81 -99q0 -39 26 -64.5t66 -25.5q51 0 94 75z" />
    <glyph glyph-name="quotesingle" unicode="'" horiz-adv-x="132" 
d="M36 461l-8 209h76l-8 -209h-60z" />
    <glyph glyph-name="parenleft" unicode="(" horiz-adv-x="311" 
d="M284 -72v-129q-77 30 -134 103q-116 149 -116 348q0 107 37.5 208t102.5 169q41 42 110 77v-129q-126 -117 -126 -324q0 -97 35 -187t91 -136z" />
    <glyph glyph-name="parenright" unicode=")" horiz-adv-x="311" 
d="M27 575v129q77 -30 134 -103q116 -149 116 -349q0 -106 -37.5 -207.5t-102.5 -168.5q-43 -45 -110 -77v129q126 117 126 324q0 97 -35 187t-91 136z" />
    <glyph glyph-name="asterisk" unicode="*" horiz-adv-x="439" 
d="M178 670h83l-3 -117l108 39l26 -77l-110 -34l69 -92l-66 -49l-67 96l-67 -96l-65 49l71 93l-110 34l25 77l109 -39z" />
    <glyph glyph-name="plus" unicode="+" 
d="M296 380h170v-90h-170v-169h-90v169h-169v90h169v170h90v-170z" />
    <glyph glyph-name="comma" unicode="," horiz-adv-x="235" 
d="M57 0v121h121v-128q0 -60 -38 -92q-33 -28 -76 -28h-6v61q53 10 53 51q0 9 -1 15h-53z" />
    <glyph glyph-name="hyphen" unicode="-" horiz-adv-x="251" 
d="M0 208v101h251v-101h-251z" />
    <glyph glyph-name="period" unicode="." horiz-adv-x="235" 
d="M57 0v121h121v-121h-121z" />
    <glyph glyph-name="slash" unicode="/" horiz-adv-x="415" 
d="M-23 -168l312 838h86l-313 -838h-85z" />
    <glyph glyph-name="zero" unicode="0" 
d="M474 458v-247q0 -98 -62 -161t-158 -63q-106 0 -175 76q-51 56 -51 154v241q0 112 76 173q65 52 147 52q97 0 160 -63.5t63 -161.5zM149 456v-235q0 -55 28.5 -87.5t76.5 -32.5q46 0 73.5 31.5t27.5 83.5v243q0 43 -31 76.5t-72 33.5q-44 0 -73.5 -32.5t-29.5 -80.5z" />
    <glyph glyph-name="one" unicode="1" 
d="M213 0v556h-84v114h205v-670h-121z" />
    <glyph glyph-name="two" unicode="2" 
d="M37 0v114l239 223q74 69 74 133q0 44 -27.5 72t-70.5 28q-34 0 -61.5 -21.5t-35.5 -54.5q-4 -16 -4 -54h-121l-1 22q-4 92 61.5 157t158.5 65t157 -64t64 -156q0 -87 -59 -155q-40 -46 -70 -73l-136 -122h265v-114h-433z" />
    <glyph glyph-name="three" unicode="3" 
d="M196 321v114h21q38 0 60.5 19t22.5 52q0 28 -17.5 45.5t-45.5 17.5q-48 0 -55 -61h-121q7 75 45 116q55 59 133 59q75 0 128.5 -53.5t53.5 -127.5q0 -73 -58 -118q53 -23 79 -67q28 -48 28 -107q0 -94 -66.5 -158.5t-164.5 -64.5q-92 0 -156.5 61.5t-69.5 153.5h121
q4 -43 35 -72t73 -29q43 0 75 32.5t32 76.5q0 51 -36 81t-98 30h-19z" />
    <glyph glyph-name="four" unicode="4" 
d="M2 199l308 471h102v-455h71v-114h-71v-101h-121v101h-289v98zM291 215v252l-160 -252h160z" />
    <glyph glyph-name="five" unicode="5" 
d="M40 319l63 351h304v-114h-213l-22 -124q43 20 86 20q88 0 151 -68t63 -163q0 -98 -68 -166t-165 -68q-90 0 -158 63t-71 149h120q19 -98 107 -98q48 0 81 34.5t33 84.5q0 48 -33.5 83t-79.5 35q-52 0 -90 -48z" />
    <glyph glyph-name="six" unicode="6" 
d="M260 670h142l-149 -227q28 2 33 2q81 0 139.5 -64t58.5 -153q0 -101 -67.5 -171t-164.5 -70t-165 69t-68 168q0 80 43 145zM250 334q-46 0 -78 -33.5t-32 -81.5q0 -49 32.5 -83.5t78.5 -34.5q47 0 79.5 33.5t32.5 81.5q0 49 -33 83.5t-80 34.5z" />
    <glyph glyph-name="seven" unicode="7" 
d="M78 0l250 556h-269v114h395v-114l-242 -556h-134z" />
    <glyph glyph-name="eight" unicode="8" 
d="M127 373q-60 60 -60 126q0 75 54 129.5t130 54.5q77 0 131.5 -53.5t54.5 -129.5q0 -74 -60 -127q37 -21 55 -42q43 -49 43 -125q0 -90 -66 -154.5t-159 -64.5t-158 65t-65 157q0 65 40 117q23 30 60 47zM254 568q-31 0 -52 -20.5t-21 -49.5q0 -30 21 -51t50 -21
q30 0 51 21t21 50t-21 50t-49 21zM253 307q-44 0 -74.5 -29.5t-30.5 -72.5t30 -73.5t73 -30.5t73 30.5t30 72.5t-30 72.5t-71 30.5z" />
    <glyph glyph-name="nine" unicode="9" 
d="M100 0l148 226q-20 -2 -24 -2q-88 0 -146.5 63t-58.5 157q0 102 66 171t164 69q103 0 174 -76q60 -64 60 -157q0 -86 -58 -174l-183 -277h-142zM252 563q-48 0 -82 -33.5t-34 -80.5q0 -48 33.5 -82t80.5 -34q48 0 81.5 34t33.5 81t-33.5 81t-79.5 34z" />
    <glyph glyph-name="colon" unicode=":" horiz-adv-x="235" 
d="M57 0v121h121v-121h-121zM57 382v121h121v-121h-121z" />
    <glyph glyph-name="semicolon" unicode=";" horiz-adv-x="235" 
d="M57 0v121h121v-128q0 -60 -38 -92q-33 -28 -76 -28h-6v61q53 10 53 51q0 9 -1 15h-53zM57 382v121h121v-121h-121z" />
    <glyph glyph-name="less" unicode="&#x3c;" 
d="M470 611v-119l-308 -151l308 -150v-119l-436 219v101z" />
    <glyph glyph-name="equal" unicode="=" 
d="M37 457h429v-84h-429v84zM37 297h429v-84h-429v84z" />
    <glyph glyph-name="greater" unicode="&#x3e;" 
d="M34 71v120l308 150l-308 151v119l436 -219v-102z" />
    <glyph glyph-name="question" unicode="?" horiz-adv-x="456" 
d="M275 169h-120q-1 12 -1 26q0 72 33 127q16 27 77 78q39 33 39 77q0 38 -23.5 61.5t-61.5 23.5q-46 0 -68 -32q-10 -14 -16 -56h-121q7 84 44 131q27 34 73 56t92 22q84 0 143 -61.5t59 -148.5q0 -81 -91 -161q-34 -30 -46.5 -53t-12.5 -59q0 -17 1 -31zM155 0v121h121
v-121h-121z" />
    <glyph glyph-name="at" unicode="@" horiz-adv-x="764" 
d="M496 494h79l-38 -194q-6 -31 -6 -45q0 -37 28 -37q34 0 62.5 53t28.5 116q0 100 -68.5 163t-177.5 63q-119 0 -200 -82t-81 -203q0 -118 77 -197q74 -75 203 -75q105 0 190 33l18 -70q-90 -33 -208 -33q-156 0 -251 91q-106 101 -106 253q0 148 103 250.5t252 102.5
q137 0 227.5 -84t90.5 -212q0 -92 -50 -162.5t-114 -70.5q-66 0 -77 61q-45 -69 -128 -69q-60 0 -100.5 45.5t-40.5 112.5q0 81 52.5 141t123.5 60q70 0 102 -58zM395 423q-38 0 -67 -34.5t-29 -80.5q0 -37 20.5 -59.5t52.5 -22.5q37 0 65.5 35t28.5 82q0 36 -19.5 58
t-51.5 22z" />
    <glyph glyph-name="A" unicode="A" horiz-adv-x="655" 
d="M-1 0l279 670h97l281 -670h-137l-71 173h-238l-74 -173h-137zM255 289h144l-72 206z" />
    <glyph glyph-name="B" unicode="B" horiz-adv-x="527" 
d="M62 0v670h132q66 0 95 -4q53 -7 89 -30t58 -62t22 -80q0 -85 -75 -129q115 -40 115 -166q0 -104 -88 -161q-59 -38 -169 -38h-179zM186 116h63q125 0 125 87q0 90 -123 90h-65v-177zM186 409h41q53 0 76 14q31 19 31 58q0 73 -96 73h-52v-145z" />
    <glyph glyph-name="C" unicode="C" horiz-adv-x="711" 
d="M547 186h144q-37 -89 -123 -144t-187 -55q-143 0 -246 103.5t-103 247.5q0 142 102 243.5t245 101.5q124 0 220 -78q63 -51 96 -126h-141q-76 88 -180 88q-88 0 -153 -68.5t-65 -162.5t66.5 -163.5t156.5 -69.5q89 0 168 83z" />
    <glyph glyph-name="D" unicode="D" horiz-adv-x="631" 
d="M62 0v670h152q151 0 237 -51q68 -40 108.5 -118t40.5 -168q0 -95 -45.5 -175t-121.5 -118q-80 -40 -216 -40h-155zM186 116h26q108 0 164 33q47 28 73.5 76.5t26.5 106.5q0 60 -28.5 111.5t-76.5 79.5q-54 31 -161 31h-24v-438z" />
    <glyph glyph-name="E" unicode="E" horiz-adv-x="462" 
d="M62 0v670h361v-116h-237v-163h227v-116h-227v-159h237v-116h-361z" />
    <glyph glyph-name="F" unicode="F" horiz-adv-x="428" 
d="M62 0v670h341v-116h-217v-163h207v-116h-207v-275h-124z" />
    <glyph glyph-name="G" unicode="G" horiz-adv-x="777" 
d="M310 225v116h437q0 -119 -64 -207q-49 -68 -127 -107.5t-164 -39.5q-149 0 -254.5 101.5t-105.5 246.5q0 143 105 245.5t252 102.5q107 0 200 -60t125 -149h-148q-64 93 -180 93q-100 0 -165 -69t-65 -165q0 -97 68.5 -163.5t168.5 -66.5q64 0 116.5 33t81.5 89h-281z
" />
    <glyph glyph-name="H" unicode="H" horiz-adv-x="611" 
d="M62 0v670h124v-273h240v273h124v-670h-124v281h-240v-281h-124z" />
    <glyph glyph-name="I" unicode="I" horiz-adv-x="247" 
d="M62 0v670h124v-670h-124z" />
    <glyph glyph-name="J" unicode="J" horiz-adv-x="423" 
d="M244 670h124v-479q0 -85 -39 -136q-52 -68 -144 -68q-84 0 -141 61q-38 40 -44 110h124q12 -55 60 -55q60 0 60 80v487z" />
    <glyph glyph-name="K" unicode="K" horiz-adv-x="537" 
d="M62 0v670h124v-290l211 290h146l-253 -329l253 -341h-146l-211 294v-294h-124z" />
    <glyph glyph-name="L" unicode="L" horiz-adv-x="407" 
d="M62 0v670h124v-554h204v-116h-328z" />
    <glyph glyph-name="M" unicode="M" horiz-adv-x="824" 
d="M62 0v670h172l179 -508l177 508h172v-670h-124v502l-174 -502h-104l-174 502v-502h-124z" />
    <glyph glyph-name="N" unicode="N" horiz-adv-x="668" 
d="M62 0v670h141l279 -488v488h124v-670h-139l-281 487v-487h-124z" />
    <glyph glyph-name="O" unicode="O" horiz-adv-x="763" 
d="M383 683q145 0 247.5 -102t102.5 -246t-102.5 -246t-247.5 -102q-147 0 -249 102t-102 250q0 140 103.5 242t247.5 102zM383 567q-93 0 -160 -68t-67 -162q0 -98 66.5 -166t161.5 -68q93 0 159 68t66 164t-66 164t-160 68z" />
    <glyph glyph-name="P" unicode="P" horiz-adv-x="508" 
d="M62 0v670h169q61 0 88 -4q46 -6 81 -29q90 -58 90 -170q0 -117 -89 -179q-33 -23 -83 -29q-23 -3 -89 -3h-43v-256h-124zM186 372h40q56 0 82 9.5t42 33t16 51.5q0 61 -57 80q-24 8 -78 8h-45v-182z" />
    <glyph glyph-name="Q" unicode="Q" horiz-adv-x="776" 
d="M757 100v-113q-8 -1 -17 -1q-80 0 -158 55q-79 -54 -192 -54q-149 0 -253.5 102t-104.5 247q0 146 103 246.5t251 100.5t253.5 -101.5t105.5 -244.5q0 -67 -17.5 -115.5t-62.5 -104.5q33 -19 72 -19zM477 125q-119 89 -221 89q-26 0 -59 -9q74 -102 192 -102q50 0 88 22z
M565 185q56 66 56 150q0 96 -68.5 164t-164.5 68q-93 0 -162.5 -68.5t-69.5 -160.5q0 -19 2 -35q44 12 96 12q108 0 218 -64q61 -35 93 -66z" />
    <glyph glyph-name="R" unicode="R" horiz-adv-x="542" 
d="M62 0v670h205q113 0 171 -51q71 -62 71 -156q0 -103 -70 -165q-38 -34 -105 -50l181 -248h-150l-179 256v-256h-124zM186 350h79q56 0 88 27.5t32 75.5q0 46 -32.5 73.5t-86.5 27.5h-80v-204z" />
    <glyph glyph-name="S" unicode="S" horiz-adv-x="485" 
d="M17 192h130q1 -41 26 -65.5t66 -24.5q39 0 64.5 23.5t25.5 60.5q0 36 -20.5 58.5t-70.5 40.5q-72 26 -96 38t-45 33q-56 55 -56 137q0 78 58 134t139 56q95 0 155 -73q40 -49 43 -117h-128q-6 74 -74 74q-69 0 -69 -68q0 -32 26 -53q22 -18 86 -40q78 -28 115 -62
q61 -57 61 -141q0 -90 -61 -150q-67 -66 -156 -66q-111 0 -175 82q-40 51 -44 123z" />
    <glyph glyph-name="T" unicode="T" horiz-adv-x="391" 
d="M133 0v554h-124v116h372v-116h-124v-554h-124z" />
    <glyph glyph-name="U" unicode="U" horiz-adv-x="589" 
d="M55 670h124v-426q0 -62 21 -94q31 -48 94 -48t95 47q21 31 21 95v426h124v-426q0 -108 -46 -167q-71 -91 -192 -91q-61 0 -115 27t-87 73q-39 55 -39 158v426z" />
    <glyph glyph-name="V" unicode="V" horiz-adv-x="609" 
d="M254 0l-261 670h131l180 -510l181 510h130l-259 -670h-102z" />
    <glyph glyph-name="W" unicode="W" horiz-adv-x="833" 
d="M208 0l-196 670h127l117 -468l116 468h90l114 -468l118 468h127l-195 -670h-99l-109 443l-112 -443h-98z" />
    <glyph glyph-name="X" unicode="X" horiz-adv-x="595" 
d="M-7 0l231 334l-231 336h147l157 -234l161 234h144l-232 -336l232 -334h-144l-161 232l-157 -232h-147z" />
    <glyph glyph-name="Y" unicode="Y" horiz-adv-x="552" 
d="M213 0v247l-220 423h136l146 -308l146 308h137l-221 -423v-247h-124z" />
    <glyph glyph-name="Z" unicode="Z" horiz-adv-x="459" 
d="M22 102l257 452h-243v116h387v-108l-254 -446h272v-116h-419v102z" />
    <glyph glyph-name="bracketleft" unicode="[" horiz-adv-x="311" 
d="M252 704v-126q-46 -19 -60 -54q-17 -43 -17 -122v-319q0 -63 18 -105q16 -37 59 -54v-125q-100 23 -153 107q-45 72 -45 198v323q0 128 71 204q45 48 127 73z" />
    <glyph glyph-name="backslash" unicode="\" horiz-adv-x="415" 
d="M353 -168l-313 838h86l312 -838h-85z" />
    <glyph glyph-name="bracketright" unicode="]" horiz-adv-x="311" 
d="M59 -201v126q47 19 60 54q17 44 17 122v319q0 61 -18 104q-16 38 -59 55v125q102 -24 153 -108q45 -73 45 -198v-323q0 -128 -71 -204q-44 -47 -127 -72z" />
    <glyph glyph-name="asciicircum" unicode="^" 
d="M134 342h-126l164 332h158l164 -332h-126l-117 236z" />
    <glyph glyph-name="underscore" unicode="_" 
d="M0 -49h503v-109h-503v109z" />
    <glyph glyph-name="grave" unicode="`" 
d="M280 550l-178 133l57 78l174 -145z" />
    <glyph glyph-name="a" unicode="a" horiz-adv-x="616" 
d="M561 503v-503h-111v62q-11 -14 -40 -34q-65 -45 -135 -45q-106 0 -175.5 77t-69.5 194q0 113 72 189.5t179 76.5q48 0 94.5 -22.5t74.5 -58.5v64h111zM300 409q-63 0 -106 -46t-43 -114q0 -66 43.5 -111t105.5 -45q63 0 105 45t42 113q0 69 -41.5 113.5t-105.5 44.5z" />
    <glyph glyph-name="b" unicode="b" horiz-adv-x="615" 
d="M55 0v670h121v-213q60 63 157 63q105 0 179 -78.5t74 -190.5q0 -113 -72 -190.5t-178 -77.5q-99 0 -170 77v-60h-111zM318 409q-62 0 -105.5 -45t-43.5 -110q0 -68 43.5 -114t108.5 -46q62 0 103 45t41 113q0 67 -42 112t-105 45z" />
    <glyph glyph-name="c" unicode="c" horiz-adv-x="566" 
d="M413 164h136q-27 -77 -83 -122q-73 -59 -168 -59q-110 0 -189 79.5t-79 191.5q0 110 78.5 188t188.5 78q104 0 183 -73q47 -44 69 -111h-136q-42 74 -116 74q-64 0 -105 -45t-41 -113t43 -113t108 -45q68 0 111 70z" />
    <glyph glyph-name="d" unicode="d" horiz-adv-x="615" 
d="M559 670v-670h-110v61q-72 -78 -173 -78q-100 0 -173.5 79.5t-73.5 188.5q0 110 74.5 189.5t178.5 79.5q94 0 156 -62v212h121zM298 409q-59 0 -103.5 -46.5t-44.5 -109.5q0 -66 43.5 -112.5t105.5 -46.5q61 0 105 46.5t44 110.5t-44.5 111t-105.5 47z" />
    <glyph glyph-name="e" unicode="e" horiz-adv-x="585" 
d="M548 198h-391q12 -45 50.5 -74.5t84.5 -29.5q72 0 112 65h133q-23 -76 -91.5 -126t-150.5 -50q-110 0 -187.5 78t-77.5 190q0 113 77.5 192.5t187.5 79.5q106 0 183 -78t77 -186q0 -22 -7 -61zM154 295h283q-13 54 -51 85.5t-90 31.5t-91 -32t-51 -85z" />
    <glyph glyph-name="f" unicode="f" horiz-adv-x="282" 
d="M74 0v392h-43v111h43q7 77 41 120q48 60 123 60q21 0 34 -1v-117q-44 0 -59 -12t-18 -50h70v-111h-70v-392h-121z" />
    <glyph glyph-name="g" unicode="g" horiz-adv-x="621" 
d="M455 503h111v-411q0 -125 -60 -197q-82 -99 -215 -99q-86 0 -154.5 45t-98.5 121h137q48 -56 123 -56q65 0 108.5 44t47.5 114q-68 -81 -166 -81q-106 0 -182 80t-76 193q0 109 75.5 186.5t181.5 77.5q107 0 168 -79v62zM297 409q-61 0 -103.5 -45t-42.5 -110
q0 -68 43.5 -114.5t106.5 -46.5q59 0 101.5 46t42.5 110q0 67 -43 113.5t-105 46.5z" />
    <glyph glyph-name="h" unicode="h" horiz-adv-x="552" 
d="M55 0v670h121v-202q55 52 130 52q44 0 88 -22.5t70 -59.5q37 -51 37 -154v-284h-121v257q0 152 -102 152q-56 0 -84 -50q-18 -32 -18 -104v-255h-121z" />
    <glyph glyph-name="i" unicode="i" horiz-adv-x="231" 
d="M55 0v503h121v-503h-121zM55 559v111h121v-111h-121z" />
    <glyph glyph-name="j" unicode="j" horiz-adv-x="231" 
d="M55 503h121v-482q0 -84 -47 -136t-124 -53v117q35 6 45 24q5 11 5 51v479zM55 561v109h121v-109h-121z" />
    <glyph glyph-name="k" unicode="k" horiz-adv-x="494" 
d="M55 0v670h121v-404l162 237h139l-181 -246l204 -257h-152l-172 235v-235h-121z" />
    <glyph glyph-name="l" unicode="l" horiz-adv-x="231" 
d="M55 0v670h121v-670h-121z" />
    <glyph glyph-name="m" unicode="m" horiz-adv-x="861" 
d="M55 0v503h111v-43q45 60 133 60q92 0 145 -79q55 79 162 79q111 0 168 -82q36 -52 36 -145v-293h-121v278q0 70 -25 99q-28 32 -70 32q-56 0 -84 -49q-18 -32 -18 -109v-251h-121v278q0 64 -26 97.5t-74 33.5q-59 0 -81 -53q-14 -33 -14 -105v-251h-121z" />
    <glyph glyph-name="n" unicode="n" horiz-adv-x="554" 
d="M55 0v503h112v-44q62 61 137 61q97 0 155 -75q43 -56 43 -173v-272h-121v248q0 92 -30 128q-28 33 -71 33q-57 0 -84 -47q-20 -34 -20 -123v-239h-121z" />
    <glyph glyph-name="o" unicode="o" horiz-adv-x="595" 
d="M299 520q111 0 188.5 -78t77.5 -190t-78 -190.5t-191 -78.5q-110 0 -188 80t-78 193q0 107 80 185.5t189 78.5zM298 409q-59 0 -103 -46t-44 -110q0 -67 42.5 -113t104.5 -46t104 45t42 111q0 65 -43 112t-103 47z" />
    <glyph glyph-name="p" unicode="p" horiz-adv-x="612" 
d="M55 -168v671h111v-59q61 76 165 76q107 0 179 -79t72 -187q0 -113 -73.5 -192t-178.5 -79q-48 0 -81.5 14t-72.5 50v-215h-121zM317 409q-62 0 -105 -45.5t-43 -110.5q0 -67 42 -113t104 -46q61 0 103.5 46t42.5 111q0 66 -42 112t-102 46z" />
    <glyph glyph-name="q" unicode="q" horiz-adv-x="613" 
d="M447 503h110v-671h-121v216q-59 -65 -153 -65q-106 0 -180 80t-74 193q0 107 75.5 185.5t178.5 78.5q100 0 164 -81v64zM296 409q-61 0 -103.5 -45.5t-42.5 -110.5q0 -68 42 -113.5t105 -45.5q60 0 103 46t43 111q0 64 -43.5 111t-103.5 47z" />
    <glyph glyph-name="r" unicode="r" horiz-adv-x="293" 
d="M55 0v503h111v-45q27 36 50 49t59 13h10v-118q-46 -2 -73 -23q-36 -29 -36 -97v-282h-121z" />
    <glyph glyph-name="s" unicode="s" horiz-adv-x="406" 
d="M14 158h123q17 -65 66 -65q23 0 38.5 14.5t15.5 36.5t-17.5 36t-67.5 30q-66 21 -94 47q-46 42 -46 107t49 110.5t119 45.5q78 0 127 -58q36 -42 37 -96h-118q-8 43 -47 43q-20 0 -33.5 -12t-13.5 -31q0 -30 52 -46q90 -28 117 -47q57 -41 57 -114t-54 -124.5t-130 -51.5
q-94 0 -146 71q-27 38 -34 104z" />
    <glyph glyph-name="t" unicode="t" horiz-adv-x="278" 
d="M67 0v392h-59v111h59v167h121v-167h72v-111h-72v-392h-121z" />
    <glyph glyph-name="u" unicode="u" horiz-adv-x="554" 
d="M379 503h121v-503h-111v50q-29 -37 -57.5 -52t-72.5 -15q-83 0 -145 56t-62 169v295h121v-257q0 -152 104 -152q102 0 102 152v257z" />
    <glyph glyph-name="v" unicode="v" horiz-adv-x="493" 
d="M199 0l-203 503h131l122 -334l116 334h132l-203 -503h-95z" />
    <glyph glyph-name="w" unicode="w" horiz-adv-x="711" 
d="M184 0l-181 503h129l92 -307l84 307h96l82 -307l93 307h129l-184 -503h-74l-95 326l-97 -326h-74z" />
    <glyph glyph-name="x" unicode="x" horiz-adv-x="487" 
d="M-7 0l179 260l-156 243h135l92 -152l92 152h135l-156 -243l181 -260h-144l-108 172l-106 -172h-144z" />
    <glyph glyph-name="y" unicode="y" horiz-adv-x="502" 
d="M87 -168l93 215l-184 456h138l114 -323l121 323h137l-289 -671h-130z" />
    <glyph glyph-name="z" unicode="z" horiz-adv-x="414" 
d="M17 0v109l222 283h-197v111h342v-109l-222 -283h238v-111h-383z" />
    <glyph glyph-name="braceleft" unicode="{" horiz-adv-x="311" 
d="M193 496v-123q0 -58 -22 -88q-11 -15 -43 -34q50 -53 56 -70q9 -25 9 -63v-112q0 -50 18 -61q13 -10 56 -10h10v-103h-17l-37 -2q-74 -4 -115 35q-32 31 -32 107v148q0 79 -54 91v89q54 13 54 81v151q0 76 34.5 110t112.5 30l37 -2h17v-103h-9q-44 0 -59.5 -12t-15.5 -59
z" />
    <glyph glyph-name="bar" unicode="|" 
d="M191 670h121v-838h-121v838z" />
    <glyph glyph-name="braceright" unicode="}" horiz-adv-x="311" 
d="M117 6v123q0 58 22 88q11 15 43 34q-49 52 -56 70q-9 24 -9 63v112q0 50 -16 60.5t-58 10.5h-9v103h17l36 2q74 4 115 -35q32 -31 32 -107v-148q0 -79 55 -91v-89q-55 -13 -55 -81v-151q0 -76 -34.5 -110t-112.5 -30q-14 2 -37 2h-16v103h9q43 0 58.5 12t15.5 59z" />
    <glyph glyph-name="asciitilde" unicode="~" horiz-adv-x="670" 
d="M158 567l-67 44q3 7 8 16q34 68 63.5 94t78.5 26q32 0 105 -28q65 -25 90 -25q42 0 74 54l69 -40q-37 -76 -71 -101q-39 -29 -87 -29q-25 0 -146 45q-22 8 -42 8q-25 0 -40 -13t-35 -51z" />
    <glyph glyph-name="Adieresis" unicode="&#xc4;" horiz-adv-x="655" 
d="M-1 0l279 670h97l281 -670h-137l-71 173h-238l-74 -173h-137zM255 289h144l-72 206zM177 740v121h121v-121h-121zM364 740v121h121v-121h-121z" />
    <glyph glyph-name="Aring" unicode="&#xc5;" horiz-adv-x="655" 
d="M-1 0l279 670h97l281 -670h-137l-71 173h-238l-74 -173h-137zM255 289h144l-72 206zM331 923q43 0 73 -30t30 -73t-30 -73t-73 -30t-73.5 30.5t-30.5 73.5q0 42 30.5 72t73.5 30zM331 861q-16 0 -28 -12t-12 -28q0 -18 11.5 -30t28.5 -12q16 0 27.5 12t11.5 29t-11.5 29
t-27.5 12z" />
    <glyph glyph-name="Ccedilla" unicode="&#xc7;" horiz-adv-x="711" 
d="M375 -14l-18 -38q18 7 29 7q35 0 62 -29t27 -67q0 -40 -28.5 -69t-68.5 -29t-66.5 23t-30.5 62h55q11 -31 41 -31q17 0 28 12.5t11 31.5q0 39 -37 39q-23 0 -38 -24l-52 26l39 90q-95 23 -144 58q-72 53 -112 128.5t-40 160.5q0 143 102 244.5t245 101.5q124 0 220 -78
q63 -51 96 -126h-141q-76 88 -180 88q-88 0 -153 -69t-65 -162q0 -94 66.5 -164t156.5 -70t168 84h144q-35 -89 -125 -145.5t-191 -54.5z" />
    <glyph glyph-name="Eacute" unicode="&#xc9;" horiz-adv-x="462" 
d="M62 0v670h361v-116h-237v-163h227v-116h-227v-159h237v-116h-361zM228 717l-44 80l204 121l47 -92z" />
    <glyph glyph-name="Ntilde" unicode="&#xd1;" horiz-adv-x="668" 
d="M62 0v670h141l279 -488v488h124v-670h-139l-281 487v-487h-124zM220 729l-39 79q40 42 98 42q31 0 72 -14q35 -12 58 -12q41 0 72 32l39 -75q-45 -48 -97 -48q-22 0 -92 21q-27 8 -38 8q-36 0 -73 -33z" />
    <glyph glyph-name="Odieresis" unicode="&#xd6;" horiz-adv-x="763" 
d="M383 683q145 0 247.5 -102t102.5 -246t-102.5 -246t-247.5 -102q-147 0 -249 102t-102 250q0 140 103.5 242t247.5 102zM383 567q-93 0 -160 -68t-67 -162q0 -98 66.5 -166t161.5 -68q93 0 159 68t66 164t-66 164t-160 68zM231 740v121h121v-121h-121zM418 740v121h121
v-121h-121z" />
    <glyph glyph-name="Udieresis" unicode="&#xdc;" horiz-adv-x="589" 
d="M55 670h124v-426q0 -62 21 -94q31 -48 94 -48t95 47q21 31 21 95v426h124v-426q0 -108 -46 -167q-71 -91 -192 -91q-61 0 -115 27t-87 73q-39 55 -39 158v426zM147 740v121h121v-121h-121zM334 740v121h121v-121h-121z" />
    <glyph glyph-name="aacute" unicode="&#xe1;" horiz-adv-x="616" 
d="M561 503v-503h-111v62q-11 -14 -40 -34q-65 -45 -135 -45q-106 0 -175.5 77t-69.5 194q0 113 72 189.5t179 76.5q48 0 94.5 -22.5t74.5 -58.5v64h111zM300 409q-63 0 -106 -46t-43 -114q0 -66 43.5 -111t105.5 -45q63 0 105 45t42 113q0 69 -41.5 113.5t-105.5 44.5z
M288 550l-52 66l174 145l57 -78z" />
    <glyph glyph-name="agrave" unicode="&#xe0;" horiz-adv-x="616" 
d="M561 503v-503h-111v62q-11 -14 -40 -34q-65 -45 -135 -45q-106 0 -175.5 77t-69.5 194q0 113 72 189.5t179 76.5q48 0 94.5 -22.5t74.5 -58.5v64h111zM300 409q-63 0 -106 -46t-43 -114q0 -66 43.5 -111t105.5 -45q63 0 105 45t42 113q0 69 -41.5 113.5t-105.5 44.5z
M334 550l-178 133l57 78l174 -145z" />
    <glyph glyph-name="acircumflex" unicode="&#xe2;" horiz-adv-x="616" 
d="M561 503v-503h-111v62q-11 -14 -40 -34q-65 -45 -135 -45q-106 0 -175.5 77t-69.5 194q0 113 72 189.5t179 76.5q48 0 94.5 -22.5t74.5 -58.5v64h111zM300 409q-63 0 -106 -46t-43 -114q0 -66 43.5 -111t105.5 -45q63 0 105 45t42 113q0 69 -41.5 113.5t-105.5 44.5z
M147 570l118 132h108l116 -132h-122l-48 65l-51 -65h-121z" />
    <glyph glyph-name="adieresis" unicode="&#xe4;" horiz-adv-x="616" 
d="M561 503v-503h-111v62q-11 -14 -40 -34q-65 -45 -135 -45q-106 0 -175.5 77t-69.5 194q0 113 72 189.5t179 76.5q48 0 94.5 -22.5t74.5 -58.5v64h111zM300 409q-63 0 -106 -46t-43 -114q0 -66 43.5 -111t105.5 -45q63 0 105 45t42 113q0 69 -41.5 113.5t-105.5 44.5z
M170 573v121h117v-121h-117zM351 573v121h117v-121h-117z" />
    <glyph glyph-name="atilde" unicode="&#xe3;" horiz-adv-x="616" 
d="M561 503v-503h-111v62q-11 -14 -40 -34q-65 -45 -135 -45q-106 0 -175.5 77t-69.5 194q0 113 72 189.5t179 76.5q48 0 94.5 -22.5t74.5 -58.5v64h111zM300 409q-63 0 -106 -46t-43 -114q0 -66 43.5 -111t105.5 -45q63 0 105 45t42 113q0 69 -41.5 113.5t-105.5 44.5z
M204 577l-40 71q42 39 88 39q38 0 74 -12q27 -9 56 -9q38 0 66 27l38 -73q-35 -41 -96 -41q-15 0 -83 17q-32 8 -45 8q-32 0 -58 -27z" />
    <glyph glyph-name="aring" unicode="&#xe5;" horiz-adv-x="616" 
d="M561 503v-503h-111v62q-11 -14 -40 -34q-65 -45 -135 -45q-106 0 -175.5 77t-69.5 194q0 113 72 189.5t179 76.5q48 0 94.5 -22.5t74.5 -58.5v64h111zM300 409q-63 0 -106 -46t-43 -114q0 -66 43.5 -111t105.5 -45q63 0 105 45t42 113q0 69 -41.5 113.5t-105.5 44.5z
M319 756q41 0 70.5 -29.5t29.5 -70.5t-29.5 -70.5t-70.5 -29.5q-42 0 -71.5 29.5t-29.5 71.5q0 40 30 69.5t71 29.5zM319 698q-16 0 -28.5 -12t-12.5 -29q0 -18 12 -30.5t29 -12.5q16 0 28 12.5t12 29.5t-12 29.5t-28 12.5z" />
    <glyph glyph-name="ccedilla" unicode="&#xe7;" horiz-adv-x="566" 
d="M289 -17l-16 -36q17 7 27 7q34 0 59.5 -27t25.5 -64q0 -38 -26 -64.5t-64 -26.5q-35 0 -61.5 21.5t-30.5 55.5h54q12 -27 36 -27q16 0 26.5 12t10.5 29q0 16 -10.5 27t-24.5 11q-19 0 -36 -22l-49 24l38 85q-99 22 -158.5 95t-59.5 171q0 110 78.5 188t188.5 78
q104 0 183 -73q47 -44 69 -111h-136q-42 74 -116 74q-64 0 -105 -45t-41 -113t43 -113t108 -45q68 0 111 70h136q-34 -93 -107 -139q-67 -42 -141 -42h-12z" />
    <glyph glyph-name="eacute" unicode="&#xe9;" horiz-adv-x="585" 
d="M548 198h-391q12 -45 50.5 -74.5t84.5 -29.5q72 0 112 65h133q-23 -76 -91.5 -126t-150.5 -50q-110 0 -187.5 78t-77.5 190q0 113 77.5 192.5t187.5 79.5q106 0 183 -78t77 -186q0 -22 -7 -61zM154 295h283q-13 54 -51 85.5t-90 31.5t-91 -32t-51 -85zM293 550l-52 66
l174 145l57 -78z" />
    <glyph glyph-name="egrave" unicode="&#xe8;" horiz-adv-x="585" 
d="M548 198h-391q12 -45 50.5 -74.5t84.5 -29.5q72 0 112 65h133q-23 -76 -91.5 -126t-150.5 -50q-110 0 -187.5 78t-77.5 190q0 113 77.5 192.5t187.5 79.5q106 0 183 -78t77 -186q0 -22 -7 -61zM154 295h283q-13 54 -51 85.5t-90 31.5t-91 -32t-51 -85zM308 550l-178 133
l57 78l174 -145z" />
    <glyph glyph-name="ecircumflex" unicode="&#xea;" horiz-adv-x="585" 
d="M548 198h-391q12 -45 50.5 -74.5t84.5 -29.5q72 0 112 65h133q-23 -76 -91.5 -126t-150.5 -50q-110 0 -187.5 78t-77.5 190q0 113 77.5 192.5t187.5 79.5q106 0 183 -78t77 -186q0 -22 -7 -61zM154 295h283q-13 54 -51 85.5t-90 31.5t-91 -32t-51 -85zM135 570l118 132
h108l116 -132h-122l-48 65l-51 -65h-121z" />
    <glyph glyph-name="edieresis" unicode="&#xeb;" horiz-adv-x="585" 
d="M548 198h-391q12 -45 50.5 -74.5t84.5 -29.5q72 0 112 65h133q-23 -76 -91.5 -126t-150.5 -50q-110 0 -187.5 78t-77.5 190q0 113 77.5 192.5t187.5 79.5q106 0 183 -78t77 -186q0 -22 -7 -61zM154 295h283q-13 54 -51 85.5t-90 31.5t-91 -32t-51 -85zM154 573v121h117
v-121h-117zM335 573v121h117v-121h-117z" />
    <glyph glyph-name="iacute" unicode="&#xed;" horiz-adv-x="231" 
d="M55 0v503h121v-503h-121zM116 550l-52 66l157 131l57 -77z" />
    <glyph glyph-name="igrave" unicode="&#xec;" horiz-adv-x="231" 
d="M55 0v503h121v-503h-121zM125 550l-162 120l57 77l157 -131z" />
    <glyph glyph-name="icircumflex" unicode="&#xee;" horiz-adv-x="231" 
d="M54 0v503h121v-503h-121zM-36 570l101 132h108l99 -132h-118l-35 65l-37 -65h-118z" />
    <glyph glyph-name="idieresis" unicode="&#xef;" horiz-adv-x="231" 
d="M55 0v503h121v-503h-121zM-12 573v121h107v-121h-107zM142 573v121h107v-121h-107z" />
    <glyph glyph-name="ntilde" unicode="&#xf1;" horiz-adv-x="554" 
d="M55 0v503h112v-44q62 61 137 61q97 0 155 -75q43 -56 43 -173v-272h-121v248q0 92 -30 128q-28 33 -71 33q-57 0 -84 -47q-20 -34 -20 -123v-239h-121zM167 577l-40 71q42 39 88 39q38 0 74 -12q27 -9 56 -9q38 0 66 27l38 -73q-35 -41 -96 -41q-15 0 -83 17q-32 8 -45 8
q-32 0 -58 -27z" />
    <glyph glyph-name="oacute" unicode="&#xf3;" horiz-adv-x="595" 
d="M299 520q111 0 188.5 -78t77.5 -190t-78 -190.5t-191 -78.5q-110 0 -188 80t-78 193q0 107 80 185.5t189 78.5zM298 409q-59 0 -103 -46t-44 -110q0 -67 42.5 -113t104.5 -46t104 45t42 111q0 65 -43 112t-103 47zM294 550l-52 66l174 145l57 -78z" />
    <glyph glyph-name="ograve" unicode="&#xf2;" horiz-adv-x="595" 
d="M299 520q111 0 188.5 -78t77.5 -190t-78 -190.5t-191 -78.5q-110 0 -188 80t-78 193q0 107 80 185.5t189 78.5zM298 409q-59 0 -103 -46t-44 -110q0 -67 42.5 -113t104.5 -46t104 45t42 111q0 65 -43 112t-103 47zM306 550l-178 133l57 78l174 -145z" />
    <glyph glyph-name="ocircumflex" unicode="&#xf4;" horiz-adv-x="595" 
d="M299 520q111 0 188.5 -78t77.5 -190t-78 -190.5t-191 -78.5q-110 0 -188 80t-78 193q0 107 80 185.5t189 78.5zM298 409q-59 0 -103 -46t-44 -110q0 -67 42.5 -113t104.5 -46t104 45t42 111q0 65 -43 112t-103 47zM133 570l118 132h108l116 -132h-122l-48 65l-51 -65
h-121z" />
    <glyph glyph-name="odieresis" unicode="&#xf6;" horiz-adv-x="595" 
d="M299 520q111 0 188.5 -78t77.5 -190t-78 -190.5t-191 -78.5q-110 0 -188 80t-78 193q0 107 80 185.5t189 78.5zM298 409q-59 0 -103 -46t-44 -110q0 -67 42.5 -113t104.5 -46t104 45t42 111q0 65 -43 112t-103 47zM155 573v121h117v-121h-117zM336 573v121h117v-121h-117
z" />
    <glyph glyph-name="otilde" unicode="&#xf5;" horiz-adv-x="595" 
d="M299 520q111 0 188.5 -78t77.5 -190t-78 -190.5t-191 -78.5q-110 0 -188 80t-78 193q0 107 80 185.5t189 78.5zM298 409q-59 0 -103 -46t-44 -110q0 -67 42.5 -113t104.5 -46t104 45t42 111q0 65 -43 112t-103 47zM196 577l-40 71q42 39 88 39q38 0 74 -12q27 -9 56 -9
q38 0 66 27l38 -73q-35 -41 -96 -41q-15 0 -83 17q-32 8 -45 8q-32 0 -58 -27z" />
    <glyph glyph-name="uacute" unicode="&#xfa;" horiz-adv-x="554" 
d="M379 503h121v-503h-111v50q-29 -37 -57.5 -52t-72.5 -15q-83 0 -145 56t-62 169v295h121v-257q0 -152 104 -152q102 0 102 152v257zM278 550l-52 66l174 145l57 -78z" />
    <glyph glyph-name="ugrave" unicode="&#xf9;" horiz-adv-x="554" 
d="M379 503h121v-503h-111v50q-29 -37 -57.5 -52t-72.5 -15q-83 0 -145 56t-62 169v295h121v-257q0 -152 104 -152q102 0 102 152v257zM287 550l-178 133l57 78l174 -145z" />
    <glyph glyph-name="ucircumflex" unicode="&#xfb;" horiz-adv-x="554" 
d="M379 503h121v-503h-111v50q-29 -37 -57.5 -52t-72.5 -15q-83 0 -145 56t-62 169v295h121v-257q0 -152 104 -152q102 0 102 152v257zM113 570l118 132h108l116 -132h-122l-48 65l-51 -65h-121z" />
    <glyph glyph-name="udieresis" unicode="&#xfc;" horiz-adv-x="554" 
d="M379 503h121v-503h-111v50q-29 -37 -57.5 -52t-72.5 -15q-83 0 -145 56t-62 169v295h121v-257q0 -152 104 -152q102 0 102 152v257zM133 573v121h117v-121h-117zM314 573v121h117v-121h-117z" />
    <glyph glyph-name="dagger" unicode="&#x2020;" 
d="M313 670v-188h157v-108h-157v-542h-121v542h-158v108h158v188h121z" />
    <glyph glyph-name="degree" unicode="&#xb0;" horiz-adv-x="385" 
d="M192 683q61 0 103.5 -41.5t42.5 -100.5t-43 -101t-102 -42q-61 0 -103.5 42t-42.5 103q0 57 43 98.5t102 41.5zM192 619q-32 0 -56 -23t-24 -54q0 -34 23.5 -57t57.5 -23q33 0 56.5 23.5t23.5 55.5t-23.5 55t-57.5 23z" />
    <glyph glyph-name="cent" unicode="&#xa2;" 
d="M312 36h-114v99q-57 11 -100 57q-63 67 -63 155q0 75 46.5 134.5t116.5 74.5v92h114v-92q58 -15 99 -57t54 -98h-128q-26 43 -84 43q-41 0 -69.5 -29t-28.5 -72q0 -42 28.5 -70t71.5 -28q37 0 77 36h133q-49 -117 -153 -146v-99z" />
    <glyph glyph-name="sterling" unicode="&#xa3;" 
d="M28 0v114h126q17 30 17 65q0 50 -51 102h-120v114h42q-14 36 -14 73q0 87 64.5 151t152.5 64q120 0 188 -112q26 -43 26 -80h-122q-8 34 -32.5 54.5t-58.5 20.5q-41 0 -69 -30t-28 -75q0 -37 25 -66h188v-114h-98l5 -10q23 -47 23 -98q0 -28 -10 -59q36 0 58 12
q42 24 42 77q0 14 -8 45h120q9 -16 9 -47q0 -41 -18.5 -82.5t-48.5 -67.5q-59 -51 -151 -51h-257z" />
    <glyph glyph-name="section" unicode="&#xa7;" 
d="M446 513h-113q-10 60 -83 60q-62 0 -62 -44q0 -34 59 -64l149 -76q77 -39 77 -126q0 -76 -70 -127q45 -46 45 -109q0 -74 -55 -122t-140 -48q-90 0 -147.5 53t-60.5 139h120q0 -26 7 -40q21 -44 82 -44q34 0 57 17t23 42q0 21 -12.5 34t-51.5 34l-150 79q-91 48 -91 143
q0 80 73 133q-26 42 -26 85q0 68 50.5 110t131.5 42q171 0 188 -171zM311 309l-138 71q-38 -26 -38 -58q0 -30 53 -57l140 -72q37 28 37 59q0 29 -54 57z" />
    <glyph glyph-name="bullet" unicode="&#x2022;" horiz-adv-x="670" 
d="M339 480q56 0 96.5 -41.5t40.5 -98.5t-41 -98t-98 -41q-58 0 -99 41t-41 98q0 58 41.5 99t100.5 41z" />
    <glyph glyph-name="paragraph" unicode="&#xb6;" 
d="M179 -94v415h-11q-66 0 -107 47.5t-41 123.5q0 105 70 150q44 28 127 28h246v-77h-51v-687h-82v687h-69v-687h-82z" />
    <glyph glyph-name="germandbls" unicode="&#xdf;" horiz-adv-x="566" 
d="M52 0v442q0 84 31 141q25 46 72 73.5t101 27.5q82 0 138.5 -55t56.5 -135q0 -89 -60 -124q145 -34 145 -176q0 -92 -60 -151.5t-154 -59.5q-109 0 -159 83v-66h-111zM173 172h78q6 -34 29.5 -56t53.5 -22q34 0 57.5 26t23.5 64q0 61 -51 86q-33 16 -113 16h-11v107h11
q33 0 56 27t23 66q0 40 -21 63.5t-56 23.5q-80 0 -80 -117v-284z" />
    <glyph glyph-name="registered" unicode="&#xae;" horiz-adv-x="788" 
d="M261 141v402h135q73 0 111 -31q47 -38 47 -95q0 -102 -110 -129l117 -147h-104l-110 144v-144h-86zM347 354h47q74 0 74 58q0 25 -20 40.5t-53 15.5h-48v-114zM395 683q143 0 245.5 -102.5t102.5 -245.5t-102.5 -245.5t-245.5 -102.5q-146 0 -247.5 102.5t-101.5 249.5
q0 140 103.5 242t245.5 102zM395 647q-126 0 -217.5 -92t-91.5 -217q0 -131 90.5 -223t218.5 -92q126 0 217 92t91 219q0 128 -91 220.5t-217 92.5z" />
    <glyph glyph-name="copyright" unicode="&#xa9;" horiz-adv-x="788" 
d="M503 257h99q-25 -57 -80.5 -91t-123.5 -34q-93 0 -160 62.5t-67 148.5q0 85 66.5 146.5t158.5 61.5q82 0 144 -47q42 -32 64 -81h-97q-49 53 -113 53q-55 0 -96 -40t-41 -94t41.5 -94.5t97.5 -40.5t107 50zM395 683q143 0 245.5 -102.5t102.5 -245.5t-102.5 -245.5
t-245.5 -102.5q-146 0 -247.5 102.5t-101.5 249.5q0 140 103.5 242t245.5 102zM395 647q-126 0 -217.5 -92t-91.5 -217q0 -131 90.5 -223t218.5 -92q126 0 217 92t91 219q0 128 -91 220.5t-217 92.5z" />
    <glyph glyph-name="trademark" unicode="&#x2122;" horiz-adv-x="783" 
d="M94 288v310h-77v72h237v-72h-76v-310h-84zM285 288v382h113l108 -278l108 278h112v-382h-84v267l-102 -267h-69l-102 267v-267h-84z" />
    <glyph glyph-name="acute" unicode="&#xb4;" 
d="M221 550l-52 66l174 145l57 -78z" />
    <glyph glyph-name="dieresis" unicode="&#xa8;" 
d="M102 573v121h117v-121h-117zM283 573v121h117v-121h-117z" />
    <glyph glyph-name="notequal" unicode="&#x2260;" 
d="M266 485l54 109l77 -39l-35 -70h108v-108h-157l-36 -72h193v-108h-243l-50 -99l-76 38l30 61h-97v108h146l36 72h-182v108h232z" />
    <glyph glyph-name="AE" unicode="&#xc6;" horiz-adv-x="768" 
d="M-23 0l443 670h309v-116h-200v-163h190v-116h-190v-159h200v-116h-324v173h-178l-104 -173h-146zM301 289h104v177z" />
    <glyph glyph-name="Oslash" unicode="&#xd8;" horiz-adv-x="763" 
d="M689 677l-65 -87q64 -78 86.5 -131t22.5 -123q0 -145 -103 -247t-250 -102q-81 0 -150 36l-63 -87l-80 62l60 82q-53 42 -84 110.5t-31 145.5q0 142 102.5 244.5t244.5 102.5q71 0 162 -36l68 92zM553 487l-255 -368q44 -16 84 -16q94 0 160.5 68t66.5 163q0 91 -56 153z
M216 180l255 366q-38 21 -86 21q-95 0 -162 -67.5t-67 -163.5t60 -156z" />
    <glyph glyph-name="infinity" unicode="&#x221e;" horiz-adv-x="670" 
d="M338 264q-71 -84 -159 -84q-70 0 -116 46t-46 116q0 71 46 116.5t116 45.5q85 0 153 -83q68 83 159 83q71 0 116.5 -45.5t45.5 -116.5t-45.5 -116.5t-115.5 -45.5q-88 0 -154 84zM398 337l2 -2q33 -53 75 -53q25 0 42 17.5t17 42.5t-17.5 42.5t-42.5 17.5q-40 0 -79 -60
q1 -2 3 -5zM276 342q-1 1 -4 5q-35 55 -76 55q-25 0 -42.5 -17t-17.5 -43q0 -25 17.5 -42.5t42.5 -17.5q40 0 80 60z" />
    <glyph glyph-name="plusminus" unicode="&#xb1;" 
d="M296 380h170v-90h-170v-169h-90v169h-169v90h169v170h90v-170zM37 90h429v-90h-429v90z" />
    <glyph glyph-name="lessequal" unicode="&#x2264;" 
d="M470 662v-114l-308 -141l308 -142v-114l-436 203v102zM470 123v-113h-436v113h436z" />
    <glyph glyph-name="greaterequal" unicode="&#x2265;" 
d="M34 151v114l308 142l-308 141v114l436 -207v-101zM34 10v113h436v-113h-436z" />
    <glyph glyph-name="yen" unicode="&#xa5;" 
d="M190 178h-133v95h130l-43 90h-107v95h62l-101 212h121l131 -294l133 294h121l-102 -212h63v-95h-108l-43 -90h131v-95h-134v-178h-121v178z" />
    <glyph glyph-name="mu" unicode="&#x3bc;" horiz-adv-x="570" 
d="M62 -173v655h121v-249q0 -87 33 -122q30 -31 70 -31q46 0 73 38t27 120v244h121v-482h-121v61q-36 -71 -103 -71q-63 0 -100 63v-226h-121z" />
    <glyph glyph-name="partialdiff" unicode="&#x2202;" 
d="M67 564l15 105q179 -21 276 -107q125 -111 125 -296q0 -125 -64 -200t-170 -75q-96 0 -163.5 67t-67.5 162q0 91 60 153t148 62q76 0 127 -51q-29 75 -104 122t-182 58zM251 347q-47 0 -78.5 -37.5t-31.5 -93.5q0 -57 31.5 -96t77.5 -39t77.5 39t31.5 97q0 56 -31 93
t-77 37z" />
    <glyph glyph-name="summation" unicode="&#x2211;" horiz-adv-x="670" 
d="M619 754v-249h-108l-13 136h-340l251 -372l-251 -407h350l7 134h114v-247h-607v125l246 395l-246 360v125h597z" />
    <glyph glyph-name="product" unicode="&#x220f;" horiz-adv-x="731" 
d="M40 754h652v-113h-84v-779h84v-113h-285v113h80v779h-243v-779h80v-113h-284v113h83v779h-83v113z" />
    <glyph glyph-name="pi" unicode="&#x3c0;" horiz-adv-x="595" 
d="M84 0v375h-71v108h570v-108h-69v-375h-121v375h-188v-375h-121z" />
    <glyph glyph-name="integral" unicode="&#x222b;" 
d="M57 -241l22 108q34 -10 55 -10q51 0 56 55q1 10 1 76l1 503q0 123 10 160q28 103 157 103q37 0 88 -11l-23 -107q-33 10 -54 10q-51 0 -57 -55q-1 -9 -1 -138v-441q0 -97 -3.5 -130t-17.5 -58q-40 -75 -146 -75q-48 0 -88 10z" />
    <glyph glyph-name="ordfeminine" unicode="&#xaa;" horiz-adv-x="411" 
d="M370 571v-303h-77v32q-53 -42 -109 -42q-69 0 -114.5 46.5t-45.5 116.5q0 68 47 114t117 46q57 0 105 -42v32h77zM200 510q-39 0 -65.5 -26.5t-26.5 -64.5q0 -37 27 -63t65 -26q39 0 65 26t26 64q0 40 -25.5 65t-65.5 25z" />
    <glyph glyph-name="ordmasculine" unicode="&#xba;" horiz-adv-x="398" 
d="M200 582q72 0 122.5 -47.5t50.5 -114.5q0 -68 -51.5 -115t-124.5 -47q-71 0 -122 48t-51 116q0 65 52 112.5t124 47.5zM199 510q-37 0 -64 -26.5t-27 -62.5q0 -38 26 -64.5t65 -26.5q38 0 64 26t26 63t-26.5 64t-63.5 27z" />
    <glyph glyph-name="Omega" unicode="&#x3a9;" horiz-adv-x="670" 
d="M29 0v108h145q-58 35 -91 79q-54 71 -54 181q0 137 87.5 227.5t219.5 90.5q131 0 218.5 -91t87.5 -227q0 -90 -34 -151.5t-110 -108.5h144v-108h-270v96q146 81 146 258q0 89 -44 149q-55 75 -138 75q-73 0 -126 -59q-57 -63 -57 -165q0 -177 147 -258v-96h-271z" />
    <glyph glyph-name="ae" unicode="&#xe6;" horiz-adv-x="988" 
d="M810 159h131q-22 -73 -93.5 -124.5t-147.5 -51.5q-96 0 -145 67v-50h-111v50q-54 -67 -152 -67q-108 0 -185 79.5t-77 189.5t77.5 189t186.5 79q87 0 150 -63v46h111v-46q59 63 150 63q103 0 178.5 -77t75.5 -182q0 -26 -8 -63h-390q15 -47 51.5 -75.5t82.5 -28.5
q70 0 115 65zM296 409q-59 0 -102 -45.5t-43 -107.5q0 -67 42 -114.5t102 -47.5q61 0 103.5 46t42.5 113q0 65 -42.5 110.5t-102.5 45.5zM559 295h275q-13 45 -33 68q-40 46 -103 46q-62 0 -105 -47q-21 -23 -34 -67z" />
    <glyph glyph-name="oslash" unicode="&#xf8;" horiz-adv-x="595" 
d="M521 508l-41 -62q85 -69 85 -196q0 -111 -79 -189t-191 -78q-57 0 -112 27l-47 -59l-68 50l42 60q-80 73 -80 192q0 111 80 189t193 78q59 0 106 -26l41 62zM414 348l-167 -244q29 -10 51 -10q61 0 103.5 45t42.5 110q0 47 -30 99zM180 158l163 241q-20 10 -41 10
q-63 0 -107 -46t-44 -113q0 -54 29 -92z" />
    <glyph glyph-name="questiondown" unicode="&#xbf;" horiz-adv-x="456" 
d="M181 333h120q1 -11 1 -26q0 -72 -33 -127q-16 -26 -77 -77q-39 -32 -39 -77q0 -39 23 -62.5t62 -23.5q44 0 68 33q10 14 16 56h121q-7 -84 -44 -131q-28 -35 -73.5 -57t-91.5 -22q-84 0 -143 61.5t-59 149.5q0 80 91 160q35 30 47 53t12 59q0 15 -1 31zM302 503v-121
h-121v121h121z" />
    <glyph glyph-name="exclamdown" unicode="&#xa1;" horiz-adv-x="261" 
d="M70 332h121v-500h-121v500zM70 503h121v-115h-121v115z" />
    <glyph glyph-name="logicalnot" unicode="&#xac;" 
d="M349 0v156h-315v113h436v-269h-121z" />
    <glyph glyph-name="radical" unicode="&#x221a;" horiz-adv-x="670" 
d="M670 835v-113h-182l-175 -722h-159l-61 277h-93v113h192l22 -96q12 -51 16 -146h10q14 153 50 302l93 385h287z" />
    <glyph glyph-name="florin" unicode="&#x192;" 
d="M362 521h84l-17 -105h-85l-54 -313q-14 -79 -27.5 -114t-39.5 -60q-61 -58 -155 -58q-23 0 -49 6l18 104h14q63 0 87.5 28.5t39.5 113.5l52 293h-86l17 105h87l4 23q15 83 50 125q58 68 149 68q17 0 29 -3l-18 -106h-6q-46 0 -69 -33q-14 -20 -25 -74z" />
    <glyph glyph-name="approxequal" unicode="&#x2248;" 
d="M74 350l-67 43q31 76 64.5 106t85.5 30q32 0 105 -28q65 -25 89 -25q25 0 40.5 11.5t34.5 43.5l69 -40q-36 -76 -71 -102q-39 -29 -86 -29q-27 0 -98.5 26.5t-90.5 26.5q-25 0 -40.5 -13t-34.5 -50zM74 152l-67 43q32 76 65 106t85 30q32 0 105 -28q65 -25 90 -25
q42 0 74 55l69 -40q-34 -75 -72 -103t-86 -28q-26 0 -146 45q-21 8 -42 8q-25 0 -40.5 -13t-34.5 -50z" />
    <glyph glyph-name="approxequal" unicode="&#x22f2;" 
d="M74 350l-67 43q31 76 64.5 106t85.5 30q32 0 105 -28q65 -25 89 -25q25 0 40.5 11.5t34.5 43.5l69 -40q-36 -76 -71 -102q-39 -29 -86 -29q-27 0 -98.5 26.5t-90.5 26.5q-25 0 -40.5 -13t-34.5 -50zM74 152l-67 43q32 76 65 106t85 30q32 0 105 -28q65 -25 90 -25
q42 0 74 55l69 -40q-34 -75 -72 -103t-86 -28q-26 0 -146 45q-21 8 -42 8q-25 0 -40.5 -13t-34.5 -50z" />
    <glyph glyph-name="Delta" unicode="&#x394;" horiz-adv-x="672" 
d="M7 0l262 670h130l266 -670h-658zM183 114h304l-153 409z" />
    <glyph glyph-name="guillemotleft" unicode="&#xab;" horiz-adv-x="387" 
d="M343 94l-126 119v91l126 118v-112l-61 -51l61 -53v-112zM163 94l-126 119v91l126 118v-112l-61 -51l61 -53v-112z" />
    <glyph glyph-name="guillemotright" unicode="&#xbb;" horiz-adv-x="387" 
d="M44 94v112l61 53l-61 51v112l126 -118v-91zM224 94v112l61 53l-61 51v112l126 -118v-91z" />
    <glyph glyph-name="ellipsis" unicode="&#x2026;" horiz-adv-x="704" 
d="M57 0v121h121v-121h-121zM292 0v121h121v-121h-121zM526 0v121h121v-121h-121z" />
    <glyph glyph-name="nonbreakingspace" unicode="&#xa0;" horiz-adv-x="251" 
 />
    <glyph glyph-name="Agrave" unicode="&#xc0;" horiz-adv-x="655" 
d="M-1 0l279 670h97l281 -670h-137l-71 173h-238l-74 -173h-137zM255 289h144l-72 206zM336 717l-207 109l47 92l204 -121z" />
    <glyph glyph-name="Atilde" unicode="&#xc3;" horiz-adv-x="655" 
d="M-1 0l279 670h97l281 -670h-137l-71 173h-238l-74 -173h-137zM255 289h144l-72 206zM210 729l-39 79q40 42 98 42q31 0 72 -14q35 -12 58 -12q41 0 72 32l39 -75q-45 -48 -97 -48q-22 0 -92 21q-27 8 -38 8q-36 0 -73 -33z" />
    <glyph glyph-name="Otilde" unicode="&#xd5;" horiz-adv-x="763" 
d="M383 683q145 0 247.5 -102t102.5 -246t-102.5 -246t-247.5 -102q-147 0 -249 102t-102 250q0 140 103.5 242t247.5 102zM383 567q-93 0 -160 -68t-67 -162q0 -98 66.5 -166t161.5 -68q93 0 159 68t66 164t-66 164t-160 68zM268 729l-39 79q40 42 98 42q31 0 72 -14
q35 -12 58 -12q41 0 72 32l39 -75q-45 -48 -97 -48q-22 0 -92 21q-27 8 -38 8q-36 0 -73 -33z" />
    <glyph glyph-name="OE" unicode="&#x152;" horiz-adv-x="950" 
d="M910 0h-323v72q-34 -38 -94.5 -61.5t-124.5 -23.5q-140 0 -238 101.5t-98 246.5q0 146 97.5 247.5t238.5 101.5q66 0 125 -23.5t94 -63.5v73h323v-116h-199v-163h189v-116h-189v-159h199v-116zM372 568q-88 0 -152 -68t-64 -163q0 -98 63 -166t154 -68t155 66.5t64 161.5
q0 98 -64.5 167.5t-155.5 69.5z" />
    <glyph glyph-name="oe" unicode="&#x153;" horiz-adv-x="984" 
d="M808 159h129q-25 -77 -93.5 -126.5t-149.5 -49.5q-129 0 -199 106q-26 -40 -56 -62q-60 -44 -146 -44q-109 0 -186 78.5t-77 190.5q0 110 78 189t187 79q122 0 200 -104q46 56 90.5 80t104.5 24q110 0 187 -75.5t77 -183.5q0 -33 -5 -63h-389q17 -48 52.5 -76t81.5 -28
q31 0 64 18.5t50 46.5zM297 409q-60 0 -103 -45.5t-43 -108.5q0 -67 42.5 -114t103.5 -47t103.5 46t42.5 111t-43 111.5t-103 46.5zM557 295h273q-12 52 -49 83t-88 31q-103 0 -136 -114z" />
    <glyph glyph-name="endash" unicode="&#x2013;" 
d="M34 208v101h436v-101h-436z" />
    <glyph glyph-name="emdash" unicode="&#x2014;" horiz-adv-x="755" 
d="M0 204v107h755v-107h-755z" />
    <glyph glyph-name="quotedblleft" unicode="&#x201c;" horiz-adv-x="422" 
d="M178 543v-121h-121v128q0 74 58 105q28 15 62 15v-61q-53 -11 -53 -51q0 -9 1 -15h53zM365 543v-121h-120v128q0 74 57 105q28 15 62 15v-61q-52 -10 -52 -51v-15h53z" />
    <glyph glyph-name="quotedblright" unicode="&#x201d;" horiz-adv-x="422" 
d="M57 549v121h121v-128q0 -60 -38 -92q-33 -28 -76 -28h-6v61q53 10 53 51q0 9 -1 15h-53zM245 549v121h120v-128q0 -60 -38 -92q-33 -28 -75 -28h-6v61q52 10 52 51v15h-53z" />
    <glyph glyph-name="quoteleft" unicode="&#x2018;" horiz-adv-x="235" 
d="M178 543v-121h-121v128q0 74 58 105q28 15 62 15v-61q-53 -11 -53 -51q0 -9 1 -15h53z" />
    <glyph glyph-name="quoteright" unicode="&#x2019;" horiz-adv-x="235" 
d="M57 549v121h121v-128q0 -60 -38 -92q-33 -28 -76 -28h-6v61q53 10 53 51q0 9 -1 15h-53z" />
    <glyph glyph-name="divide" unicode="&#xf7;" 
d="M37 390h429v-90h-429v90zM196 240h111v-107h-111v107zM307 558v-107h-111v107h111z" />
    <glyph glyph-name="lozenge" unicode="&#x25ca;" horiz-adv-x="670" 
d="M335 697l261 -362l-261 -361l-261 361zM335 608l-198 -273l198 -272l198 272z" />
    <glyph glyph-name="ydieresis" unicode="&#xff;" horiz-adv-x="502" 
d="M87 -168l93 215l-184 456h138l114 -323l121 323h137l-289 -671h-130zM109 573v121h117v-121h-117zM290 573v121h117v-121h-117z" />
    <glyph glyph-name="Ydieresis" unicode="&#x178;" horiz-adv-x="552" 
d="M213 0v247l-220 423h136l146 -308l146 308h137l-221 -423v-247h-124zM128 740v121h121v-121h-121zM315 740v121h121v-121h-121z" />
    <glyph glyph-name="fraction" unicode="&#x2044;" horiz-adv-x="152" 
d="M-101 0l278 670h75l-277 -670h-76z" />
    <glyph glyph-name="currency" unicode="&#xa4;" horiz-adv-x="715" 
d="M536 247h-281q27 -65 83.5 -104.5t121.5 -39.5q83 0 148 63v-146q-69 -33 -146 -33q-116 0 -211 73t-126 187h-97l28 66h58q-1 8 -1 26q0 11 1 18h-86l28 66h68q31 116 124.5 188.5t210.5 72.5q132 0 228 -84l-52 -121q-26 31 -51 48q-59 41 -129 41q-64 0 -120 -40.5
t-81 -104.5h357l-28 -66h-345q-1 -8 -1 -21q0 -14 1 -23h326z" />
    <glyph glyph-name="guilsinglleft" unicode="&#x2039;" horiz-adv-x="207" 
d="M163 94l-126 119v91l126 118v-112l-61 -51l61 -53v-112z" />
    <glyph glyph-name="guilsinglright" unicode="&#x203a;" horiz-adv-x="207" 
d="M44 94v112l61 53l-61 51v112l126 -118v-91z" />
    <glyph glyph-name="fi" unicode="&#xf001;" horiz-adv-x="512" 
d="M74 0v392h-43v111h43q7 77 41 120q48 60 123 60q21 0 34 -1v-117q-44 0 -59 -12t-18 -50h70v-111h-70v-392h-121zM336 0v503h121v-503h-121zM336 559v111h121v-111h-121z" />
    <glyph glyph-name="fl" unicode="&#xf002;" horiz-adv-x="512" 
d="M74 0v392h-43v111h43q7 77 41 120q48 60 123 60q21 0 34 -1v-117q-44 0 -59 -12t-18 -50h70v-111h-70v-392h-121zM336 0v670h121v-670h-121z" />
    <glyph glyph-name="daggerdbl" unicode="&#x2021;" 
d="M313 670v-188h157v-108h-157v-245h157v-108h-157v-189h-121v189h-158v108h158v245h-158v108h158v188h121z" />
    <glyph glyph-name="periodcentered" unicode="&#x2219;" horiz-adv-x="235" 
d="M57 198v121h121v-121h-121z" />
    <glyph glyph-name="quotesinglbase" unicode="&#x201a;" horiz-adv-x="235" 
d="M57 0v121h121v-128q0 -60 -38 -92q-33 -28 -76 -28h-6v61q53 10 53 51q0 9 -1 15h-53z" />
    <glyph glyph-name="quotedblbase" unicode="&#x201e;" horiz-adv-x="422" 
d="M57 0v121h121v-128q0 -60 -38 -92q-33 -28 -76 -28h-6v61q53 10 53 51q0 9 -1 15h-53zM245 0v121h120v-128q0 -60 -38 -92q-33 -28 -75 -28h-6v61q52 10 52 51v15h-53z" />
    <glyph glyph-name="perthousand" unicode="&#x2030;" horiz-adv-x="1179" 
d="M223 0l278 670h87l-278 -670h-87zM197 683q68 0 115.5 -47.5t47.5 -115.5t-48 -116t-115 -48q-68 0 -115.5 48t-47.5 118q0 66 48 113.5t115 47.5zM197 586q-25 0 -43.5 -19.5t-18.5 -45.5q0 -28 18 -47t44 -19t44 19t18 46t-18.5 46.5t-43.5 19.5zM616 315q68 0 116 -48
t48 -116q0 -67 -48 -115.5t-116 -48.5t-116 48t-48 118q0 66 48.5 114t115.5 48zM616 218q-26 0 -45 -19.5t-19 -46.5q0 -29 18.5 -48.5t45.5 -19.5q26 0 44.5 19.5t18.5 47.5t-18.5 47.5t-44.5 19.5zM982 315q67 0 115 -48t48 -116t-48 -116t-115 -48q-68 0 -116 48
t-48 118q0 66 48.5 114t115.5 48zM981 218q-26 0 -44.5 -19.5t-18.5 -46.5q0 -28 18.5 -48t44.5 -20t44.5 19.5t18.5 47.5t-18.5 47.5t-44.5 19.5z" />
    <glyph glyph-name="Acircumflex" unicode="&#xc2;" horiz-adv-x="655" 
d="M-1 0l279 670h97l281 -670h-137l-71 173h-238l-74 -173h-137zM255 289h144l-72 206zM153 734l123 125h111l125 -125h-132l-48 58l-48 -58h-131z" />
    <glyph glyph-name="Ecircumflex" unicode="&#xca;" horiz-adv-x="462" 
d="M62 0v670h361v-116h-237v-163h227v-116h-227v-159h237v-116h-361zM65 734l123 125h111l125 -125h-132l-48 58l-48 -58h-131z" />
    <glyph glyph-name="Aacute" unicode="&#xc1;" horiz-adv-x="655" 
d="M-1 0l279 670h97l281 -670h-137l-71 173h-238l-74 -173h-137zM255 289h144l-72 206zM317 717l-44 80l204 121l47 -92z" />
    <glyph glyph-name="Edieresis" unicode="&#xcb;" horiz-adv-x="462" 
d="M62 0v670h361v-116h-237v-163h227v-116h-227v-159h237v-116h-361zM91 740v121h121v-121h-121zM278 740v121h121v-121h-121z" />
    <glyph glyph-name="Egrave" unicode="&#xc8;" horiz-adv-x="462" 
d="M62 0v670h361v-116h-237v-163h227v-116h-227v-159h237v-116h-361zM277 717l-207 109l47 92l204 -121z" />
    <glyph glyph-name="Iacute" unicode="&#xcd;" horiz-adv-x="247" 
d="M62 0v670h124v-670h-124zM120 717l-48 77l178 120l54 -85z" />
    <glyph glyph-name="Icircumflex" unicode="&#xce;" horiz-adv-x="247" 
d="M61 0v670h124v-670h-124zM-41 734l110 125h111l111 -125h-128l-39 65l-37 -65h-128z" />
    <glyph glyph-name="Idieresis" unicode="&#xcf;" horiz-adv-x="247" 
d="M62 0v670h124v-670h-124zM-12 740v121h114v-121h-114zM152 740v121h114v-121h-114z" />
    <glyph glyph-name="Igrave" unicode="&#xcc;" horiz-adv-x="247" 
d="M62 0v670h124v-670h-124zM135 717l-184 112l54 85l177 -120z" />
    <glyph glyph-name="Oacute" unicode="&#xd3;" horiz-adv-x="763" 
d="M383 683q145 0 247.5 -102t102.5 -246t-102.5 -246t-247.5 -102q-147 0 -249 102t-102 250q0 140 103.5 242t247.5 102zM383 567q-93 0 -160 -68t-67 -162q0 -98 66.5 -166t161.5 -68q93 0 159 68t66 164t-66 164t-160 68zM375 717l-44 80l204 121l47 -92z" />
    <glyph glyph-name="Ocircumflex" unicode="&#xd4;" horiz-adv-x="763" 
d="M383 683q145 0 247.5 -102t102.5 -246t-102.5 -246t-247.5 -102q-147 0 -249 102t-102 250q0 140 103.5 242t247.5 102zM383 567q-93 0 -160 -68t-67 -162q0 -98 66.5 -166t161.5 -68q93 0 159 68t66 164t-66 164t-160 68zM208 734l123 125h111l125 -125h-132l-48 58
l-48 -58h-131z" />
    <glyph glyph-name="apple" unicode="&#xf000;" horiz-adv-x="670" 
d="M336 521h-2q-1 69 40.5 118t108.5 57q0 -60 -26 -101q-21 -33 -56 -53.5t-65 -20.5zM627 459q-81 -61 -81 -139q0 -109 100 -150q-80 -197 -171 -197q-19 0 -81 27q-9 3 -38 3q-25 0 -35.5 -3t-53.5 -20q-20 -8 -39 -8q-65 0 -130 112t-65 225q0 66 27.5 120.5t73.5 79.5
q37 20 87 20q32 0 78 -17q35 -13 47 -13q17 0 44 10q59 22 92 22q93 0 145 -72z" />
    <glyph glyph-name="Ograve" unicode="&#xd2;" horiz-adv-x="763" 
d="M383 683q145 0 247.5 -102t102.5 -246t-102.5 -246t-247.5 -102q-147 0 -249 102t-102 250q0 140 103.5 242t247.5 102zM383 567q-93 0 -160 -68t-67 -162q0 -98 66.5 -166t161.5 -68q93 0 159 68t66 164t-66 164t-160 68zM390 717l-207 109l47 92l204 -121z" />
    <glyph glyph-name="Uacute" unicode="&#xda;" horiz-adv-x="589" 
d="M55 670h124v-426q0 -62 21 -94q31 -48 94 -48t95 47q21 31 21 95v426h124v-426q0 -108 -46 -167q-71 -91 -192 -91q-61 0 -115 27t-87 73q-39 55 -39 158v426zM290 717l-44 80l204 121l47 -92z" />
    <glyph glyph-name="Ucircumflex" unicode="&#xdb;" horiz-adv-x="589" 
d="M55 670h124v-426q0 -62 21 -94q31 -48 94 -48t95 47q21 31 21 95v426h124v-426q0 -108 -46 -167q-71 -91 -192 -91q-61 0 -115 27t-87 73q-39 55 -39 158v426zM124 734l123 125h111l125 -125h-132l-48 58l-48 -58h-131z" />
    <glyph glyph-name="Ugrave" unicode="&#xd9;" horiz-adv-x="589" 
d="M55 670h124v-426q0 -62 21 -94q31 -48 94 -48t95 47q21 31 21 95v426h124v-426q0 -108 -46 -167q-71 -91 -192 -91q-61 0 -115 27t-87 73q-39 55 -39 158v426zM313 717l-207 109l47 92l204 -121z" />
    <glyph glyph-name="dotlessi" unicode="&#x131;" horiz-adv-x="231" 
d="M55 0v503h121v-503h-121z" />
    <glyph glyph-name="circumflex" unicode="&#x2c6;" 
d="M80 570l118 132h108l116 -132h-122l-48 65l-51 -65h-121z" />
    <glyph glyph-name="tilde" unicode="&#x2dc;" 
d="M130 577l-40 71q42 39 88 39q38 0 74 -12q27 -9 56 -9q38 0 66 27l38 -73q-35 -41 -96 -41q-15 0 -83 17q-32 8 -45 8q-32 0 -58 -27z" />
    <glyph glyph-name="overscore.001" unicode="&#x2c9;" 
d="M101 587v80h308v-80h-308z" />
    <glyph glyph-name="breve" unicode="&#x2d8;" 
d="M85 700h93q21 -48 74 -48q54 0 73 48h94q-19 -131 -167 -131q-71 0 -115 34.5t-52 96.5z" />
    <glyph glyph-name="dotaccent" unicode="&#x2d9;" 
d="M193 573v121h117v-121h-117z" />
    <glyph glyph-name="ring" unicode="&#x2da;" 
d="M252 756q41 0 70.5 -29.5t29.5 -70.5t-29.5 -70.5t-70.5 -29.5q-42 0 -71.5 29.5t-29.5 71.5q0 40 30 69.5t71 29.5zM252 698q-16 0 -28.5 -12t-12.5 -29q0 -18 12 -30.5t29 -12.5q16 0 28 12.5t12 29.5t-12 29.5t-28 12.5z" />
    <glyph glyph-name="cedilla" unicode="&#xb8;" 
d="M278 0l-23 -53q17 7 27 7q34 0 59.5 -27t25.5 -64q0 -38 -26 -64.5t-64 -26.5q-35 0 -61.5 21.5t-30.5 55.5h54q12 -27 36 -27q16 0 26.5 12t10.5 29q0 16 -10.5 27t-24.5 11q-18 0 -35 -22l-49 24l43 97h42z" />
    <glyph glyph-name="hungarumlaut" unicode="&#x2dd;" 
d="M169 554l-52 48l135 159l61 -59zM324 554l-53 48l135 159l61 -59z" />
    <glyph glyph-name="ogonek" unicode="&#x2db;" 
d="M277 0h63q-38 -26 -49.5 -40t-11.5 -33q0 -43 48 -43q16 0 37 10v-67q-31 -12 -61 -12q-47 0 -76 24t-29 64q0 58 79 97z" />
    <glyph glyph-name="caron" unicode="&#x2c7;" 
d="M422 702l-118 -132h-108l-116 132h121l49 -65l50 65h122z" />
    <glyph glyph-name="Lslash" unicode="&#x141;" horiz-adv-x="407" 
d="M186 307v-191h204v-116h-328v243l-57 -43v118l57 43v309h124v-246l121 83v-118z" />
    <glyph glyph-name="lslash" unicode="&#x142;" horiz-adv-x="231" 
d="M55 361v309h121v-242l50 38v-96l-50 -37v-333h-121v265l-50 -38v96z" />
    <glyph glyph-name="Scaron" unicode="&#x160;" horiz-adv-x="485" 
d="M17 192h130q1 -41 26 -65.5t66 -24.5q39 0 64.5 23.5t25.5 60.5q0 36 -20.5 58.5t-70.5 40.5q-72 26 -96 38t-45 33q-56 55 -56 137q0 78 58 134t139 56q95 0 155 -73q40 -49 43 -117h-128q-6 74 -74 74q-69 0 -69 -68q0 -32 26 -53q22 -18 86 -40q78 -28 115 -62
q61 -57 61 -141q0 -90 -61 -150q-67 -66 -156 -66q-111 0 -175 82q-40 51 -44 123zM60 859h132l50 -58l45 58h132l-121 -125h-107z" />
    <glyph glyph-name="scaron" unicode="&#x161;" horiz-adv-x="406" 
d="M14 158h123q17 -65 66 -65q23 0 38.5 14.5t15.5 36.5t-17.5 36t-67.5 30q-66 21 -94 47q-46 42 -46 107t49 110.5t119 45.5q78 0 127 -58q36 -42 37 -96h-118q-8 43 -47 43q-20 0 -33.5 -12t-13.5 -31q0 -30 52 -46q90 -28 117 -47q57 -41 57 -114t-54 -124.5t-130 -51.5
q-94 0 -146 71q-27 38 -34 104zM377 702l-117 -132h-109l-116 132h122l48 -65l51 65h121z" />
    <glyph glyph-name="Zcaron" unicode="&#x17d;" horiz-adv-x="459" 
d="M22 102l257 452h-243v116h387v-108l-254 -446h272v-116h-419v102zM58 859h131l51 -58l45 58h131l-121 -125h-107z" />
    <glyph glyph-name="zcaron" unicode="&#x17e;" horiz-adv-x="414" 
d="M17 0v109l222 283h-197v111h342v-109l-222 -283h238v-111h-383zM397 702l-117 -132h-109l-115 132h121l48 -65l51 65h121z" />
    <glyph glyph-name="brokenbar" unicode="&#xa6;" 
d="M191 670h121v-346h-121v346zM191 154h121v-322h-121v322z" />
    <glyph glyph-name="Eth" unicode="&#xd0;" horiz-adv-x="631" 
d="M62 389v281h152q151 0 237 -51q67 -40 108 -118t41 -167q0 -95 -45.5 -175.5t-121.5 -118.5q-79 -40 -216 -40h-155v285h-64v104h64zM186 389h160v-104h-160v-169h26q108 0 164 33q47 28 73.5 76.5t26.5 106.5q0 61 -28 112t-77 79q-55 31 -161 31h-24v-165z" />
    <glyph glyph-name="eth" unicode="&#xf0;" horiz-adv-x="595" 
d="M205 590l63 31q-6 8 -14.5 18t-18.5 22l-14 12l71 42l13 -13l26 -24l16 -17l68 34l41 -55l-68 -35q80 -103 110 -154q67 -114 67 -208q0 -107 -79 -183.5t-191 -76.5q-111 0 -188 77.5t-77 189.5q0 109 73 182.5t181 73.5q24 0 65 -12q-12 22 -17 30l-17 26q-2 4 -9 15
l-62 -30zM298 400q-60 0 -103.5 -44t-43.5 -104q0 -67 42.5 -112.5t104.5 -45.5t104 43.5t42 107.5q0 63 -43 109t-103 46z" />
    <glyph glyph-name="Yacute" unicode="&#xdd;" horiz-adv-x="552" 
d="M213 0v247l-220 423h136l146 -308l146 308h137l-221 -423v-247h-124zM275 717l-44 80l204 121l47 -92z" />
    <glyph glyph-name="yacute" unicode="&#xfd;" horiz-adv-x="502" 
d="M87 -168l93 215l-184 456h138l114 -323l121 323h137l-289 -671h-130zM251 550l-52 66l174 145l57 -78z" />
    <glyph glyph-name="Thorn" unicode="&#xde;" horiz-adv-x="510" 
d="M62 0v670h124v-94h45q61 0 88 -4q46 -7 81 -30q90 -60 90 -172q0 -52 -24 -99.5t-65 -76.5q-48 -34 -172 -34h-43v-160h-124zM186 281h40q54 0 83 9q25 8 41 30.5t16 48.5q0 59 -57 78q-24 8 -78 8h-45v-174z" />
    <glyph glyph-name="thorn" unicode="&#xfe;" horiz-adv-x="612" 
d="M55 -168v838h111v-233q63 83 164 83q108 0 180 -79t72 -187q0 -114 -73.5 -192.5t-179.5 -78.5q-89 0 -153 71v-222h-121zM317 403q-62 0 -105 -44t-43 -106q0 -65 42 -109t104 -44q61 0 103.5 44.5t42.5 106.5q0 63 -42.5 107.5t-101.5 44.5z" />
    <glyph glyph-name="minus" unicode="&#x2212;" 
d="M37 380h429v-90h-429v90z" />
    <glyph glyph-name="multiply" unicode="&#xd7;" 
d="M315 334l131 -131l-63 -63l-132 133l-132 -132l-63 62l132 132l-132 132l63 63l133 -132l131 132l63 -62z" />
    <glyph glyph-name="onesuperior" unicode="&#xb9;" horiz-adv-x="341" 
d="M143 268v328h-54v74h138v-402h-84z" />
    <glyph glyph-name="twosuperior" unicode="&#xb2;" horiz-adv-x="341" 
d="M30 268v72l154 132q46 39 46 76q0 25 -16.5 40.5t-42.5 15.5q-46 0 -58 -42q-3 -10 -3 -35h-84q-1 7 -1 16q0 57 41.5 96t102.5 39t103 -39t42 -95q0 -67 -84 -136l-80 -66h164v-74h-284z" />
    <glyph glyph-name="threesuperior" unicode="&#xb3;" horiz-adv-x="341" 
d="M131 457v74h17q50 0 50 39q0 34 -37 34q-29 0 -33 -36h-84q4 47 31 74q36 36 87 36q49 0 84.5 -32.5t35.5 -77.5t-34 -69q65 -27 65 -103q0 -58 -43.5 -97t-107.5 -39q-61 0 -103.5 38.5t-44.5 95.5h84q2 -26 20.5 -43t45.5 -17q26 0 45.5 18t19.5 43q0 28 -22 45t-60 17
h-16z" />
    <glyph glyph-name="onehalf" unicode="&#xbd;" horiz-adv-x="834" 
d="M143 268v328h-54v74h138v-402h-84zM240 0l278 670h75l-277 -670h-76zM522 0v72l155 132q46 39 46 76q0 25 -16.5 40.5t-42.5 15.5q-37 0 -55 -32q-7 -12 -7 -45h-84q-1 7 -1 16q0 57 42 96t103 39t103 -39t42 -95q0 -67 -84 -136l-80 -66h164v-74h-285z" />
    <glyph glyph-name="onequarter" unicode="&#xbc;" horiz-adv-x="834" 
d="M143 268v328h-54v74h138v-402h-84zM240 0l278 670h75l-277 -670h-76zM500 122l199 280h70v-269h46v-74h-46v-59h-84v59h-185v63zM688 130v143l-98 -143h98z" />
    <glyph glyph-name="threequarters" unicode="&#xbe;" horiz-adv-x="834" 
d="M131 457v74h17q50 0 50 39q0 34 -37 34q-29 0 -33 -36h-84q4 47 31 74q36 36 87 36q49 0 84.5 -32.5t35.5 -77.5t-34 -69q65 -27 65 -103q0 -58 -43.5 -97t-107.5 -39q-61 0 -103.5 38.5t-44.5 95.5h84q2 -26 20.5 -43t45.5 -17q26 0 45.5 18t19.5 43q0 28 -22 45t-60 17
h-16zM240 0l277 670h76l-278 -670h-75zM500 122l199 280h70v-269h45v-74h-45v-59h-84v59h-185v63zM688 130v143l-98 -143h98z" />
    <glyph glyph-name="franc" unicode="&#x20a3;" 
d="M60 0v670h282v-114h-161v-165h137v-114h-137v-277h-121zM343 0v303h83v-21q24 31 67 31h9v-76q-70 -1 -70 -67v-170h-89z" />
    <glyph glyph-name="Gbreve" unicode="&#x11e;" horiz-adv-x="777" 
d="M310 225v116h437q0 -119 -64 -207q-49 -68 -127 -107.5t-164 -39.5q-149 0 -254.5 101.5t-105.5 246.5q0 143 105 245.5t252 102.5q107 0 200 -60t125 -149h-148q-64 93 -180 93q-100 0 -165 -69t-65 -165q0 -97 68.5 -163.5t168.5 -66.5q64 0 116.5 33t81.5 89h-281z
M226 861h98q14 -44 70 -44q32 0 48.5 8.5t25.5 35.5h98q-6 -56 -48 -91q-47 -39 -122 -39q-82 0 -129 45q-36 34 -41 85z" />
    <glyph glyph-name="gbreve" unicode="&#x11f;" horiz-adv-x="621" 
d="M455 503h111v-411q0 -125 -60 -197q-82 -99 -215 -99q-86 0 -154.5 45t-98.5 121h137q48 -56 123 -56q65 0 108.5 44t47.5 114q-68 -81 -166 -81q-106 0 -182 80t-76 193q0 109 75.5 186.5t181.5 77.5q107 0 168 -79v62zM297 409q-61 0 -103.5 -45t-42.5 -110
q0 -68 43.5 -114.5t106.5 -46.5q59 0 101.5 46t42.5 110q0 67 -43 113.5t-105 46.5zM147 700h93q21 -48 74 -48q52 0 73 48h93q-8 -62 -51.5 -96.5t-115.5 -34.5q-71 0 -114.5 34.5t-51.5 96.5z" />
    <glyph glyph-name="Scedilla" unicode="&#x15e;" horiz-adv-x="485" 
d="M235 -13l-13 -39q18 7 28 7q36 0 63 -29t27 -67q0 -40 -28.5 -69t-68.5 -29t-66.5 23t-30.5 62h55q10 -31 40 -31q17 0 28.5 13t11.5 32q0 38 -37 38q-23 0 -38 -24l-53 26l38 90q-74 14 -124 71.5t-50 130.5h130q1 -41 26 -65.5t66 -24.5q39 0 64.5 23.5t25.5 60.5
q0 36 -20.5 58.5t-70.5 40.5q-73 27 -96.5 38.5t-44.5 32.5q-56 54 -56 137q0 78 58 134t139 56q95 0 155 -73q40 -49 43 -117h-128q-6 74 -74 74q-69 0 -69 -68q0 -32 26 -53q23 -18 86 -40q78 -27 115 -62q61 -57 61 -141q0 -119 -100 -182q-51 -33 -118 -34z" />
    <glyph glyph-name="scedilla" unicode="&#x15f;" horiz-adv-x="406" 
d="M191 -17l-16 -35q20 7 29 7q36 0 62.5 -29t26.5 -67q0 -40 -28.5 -69t-68.5 -29t-66 23t-31 62h56q10 -31 40 -31q17 0 28 12.5t11 31.5q0 39 -36 39q-24 0 -39 -24l-52 26l39 89q-123 36 -132 169h123q17 -64 66 -64q23 0 38.5 14.5t15.5 36.5t-17.5 36t-67.5 30
q-66 21 -94 47q-46 42 -46 107q0 64 49 109.5t119 45.5q78 0 127 -58q36 -42 37 -96h-118q-8 43 -47 43q-20 0 -33.5 -12t-13.5 -31q0 -30 52 -46q89 -27 117 -47q57 -40 57 -114q0 -75 -53 -124.5t-134 -51.5z" />
    <glyph glyph-name="Cacute" unicode="&#x106;" horiz-adv-x="711" 
d="M547 186h144q-37 -89 -123 -144t-187 -55q-143 0 -246 103.5t-103 247.5q0 142 102 243.5t245 101.5q124 0 220 -78q63 -51 96 -126h-141q-76 88 -180 88q-88 0 -153 -68.5t-65 -162.5t66.5 -163.5t156.5 -69.5q89 0 168 83zM375 717l-52 65l151 129l57 -75z" />
    <glyph glyph-name="cacute" unicode="&#x107;" horiz-adv-x="566" 
d="M413 164h136q-27 -77 -83 -122q-73 -59 -168 -59q-110 0 -189 79.5t-79 191.5q0 110 78.5 188t188.5 78q104 0 183 -73q47 -44 69 -111h-136q-42 74 -116 74q-64 0 -105 -45t-41 -113t43 -113t108 -45q68 0 111 70zM301 554l-52 48l135 159l61 -59z" />
    <glyph glyph-name="Ccaron" unicode="&#x10c;" horiz-adv-x="711" 
d="M547 186h144q-37 -89 -123 -144t-187 -55q-143 0 -246 103.5t-103 247.5q0 142 102 243.5t245 101.5q124 0 220 -78q63 -51 96 -126h-141q-76 88 -180 88q-88 0 -153 -68.5t-65 -162.5t66.5 -163.5t156.5 -69.5q89 0 168 83zM202 859h131l51 -58l45 58h132l-121 -125
h-108z" />
    <glyph glyph-name="ccaron" unicode="&#x10d;" horiz-adv-x="566" 
d="M413 163h136q-29 -78 -83 -121q-74 -59 -168 -59q-111 0 -189.5 79t-78.5 191q0 110 78.5 188.5t188.5 78.5q104 0 183 -73q47 -44 69 -111h-136q-42 67 -117 67q-63 0 -104 -43t-41 -108q0 -66 43 -109t108 -43q68 0 111 63zM125 702h132l50 -59l49 59h131l-132 -126
h-95z" />
    <glyph glyph-name="dcroat" unicode="&#xeb08;" horiz-adv-x="615" 
d="M559 670v-670h-110v61q-72 -78 -173 -78q-100 0 -173.5 79.5t-73.5 188.5q0 110 74.5 189.5t178.5 79.5q94 0 156 -62v212h121zM298 409q-59 0 -103.5 -46.5t-44.5 -109.5q0 -66 43.5 -112.5t105.5 -46.5q61 0 105 46.5t44 110.5t-44.5 111t-105.5 47zM332 753v86h328
v-86h-328z" />
    <glyph glyph-name="sfthyphen" unicode="&#xad;" horiz-adv-x="251" 
d="M0 208v101h251v-101h-251z" />
    <glyph glyph-name="macron" unicode="&#xaf;" 
d="M0 893h503v-108h-503v108z" />
    <glyph glyph-name="mu1" unicode="&#xb5;" 
d="M29 -173v656h121v-258q0 -85 33 -117q30 -29 70 -29q46 0 73 36t27 114v254h121v-483h-121v61q-36 -72 -103 -72q-62 0 -100 64v-226h-121z" />
    <glyph glyph-name="middot.001" unicode="&#xb7;" horiz-adv-x="235" 
d="M57 198v121h121v-121h-121z" />
    <glyph glyph-name="Amacron" unicode="&#x100;" horiz-adv-x="655" 
d="M-1 0l279 670h97l281 -670h-137l-71 173h-238l-74 -173h-137zM255 289h144l-72 206zM170 753v86h328v-86h-328z" />
    <glyph glyph-name="amacron" unicode="&#x101;" horiz-adv-x="616" 
d="M561 503v-503h-111v62q-11 -14 -40 -34q-65 -45 -135 -45q-106 0 -175.5 77t-69.5 194q0 113 72 189.5t179 76.5q48 0 94.5 -22.5t74.5 -58.5v64h111zM300 409q-63 0 -106 -46t-43 -114q0 -66 43.5 -111t105.5 -45q63 0 105 45t42 113q0 69 -41.5 113.5t-105.5 44.5z
M167 587v80h308v-80h-308z" />
    <glyph glyph-name="Abreve" unicode="&#x102;" horiz-adv-x="655" 
d="M-1 0l279 670h97l281 -670h-137l-71 173h-238l-74 -173h-137zM255 289h144l-72 206zM161 861h98q14 -44 70 -44q32 0 48.5 8.5t25.5 35.5h98q-6 -56 -48 -91q-47 -39 -122 -39q-82 0 -129 45q-36 34 -41 85z" />
    <glyph glyph-name="abreve" unicode="&#x103;" horiz-adv-x="616" 
d="M561 503v-503h-111v62q-11 -14 -40 -34q-65 -45 -135 -45q-106 0 -175.5 77t-69.5 194q0 113 72 189.5t179 76.5q48 0 94.5 -22.5t74.5 -58.5v64h111zM300 409q-63 0 -106 -46t-43 -114q0 -66 43.5 -111t105.5 -45q63 0 105 45t42 113q0 69 -41.5 113.5t-105.5 44.5z
M151 700h93q21 -48 74 -48q54 0 73 48h94q-19 -131 -167 -131q-71 0 -115 34.5t-52 96.5z" />
    <glyph glyph-name="Aogonek" unicode="&#x104;" horiz-adv-x="655" 
d="M656 0h-31q-64 -35 -64 -72q0 -17 13 -28.5t33 -11.5q23 0 44 9v-72q-35 -13 -65 -13q-46 0 -76.5 26t-30.5 64q0 60 78 98h-38l-71 173h-238l-74 -173h-137l279 670h97zM255 289h143l-71 206z" />
    <glyph glyph-name="aogonek" unicode="&#x105;" horiz-adv-x="616" 
d="M561 0h-48q-2 -2 -6 -4l-3 -2q-51 -34 -51 -67q0 -43 48 -43q15 0 36 10v-67q-31 -12 -61 -12q-47 0 -75.5 24t-28.5 64q0 56 78 97v62q-11 -14 -40 -34q-65 -45 -135 -45q-106 0 -175.5 77t-69.5 194q0 113 72 189.5t179 76.5q48 0 94.5 -22.5t74.5 -58.5v64h111v-503z
M300 409q-63 0 -106 -46t-43 -114q0 -66 43.5 -111t105.5 -45q63 0 105 45t42 113q0 69 -41.5 113.5t-105.5 44.5z" />
    <glyph glyph-name="Ccircumflex" unicode="&#x108;" horiz-adv-x="711" 
d="M547 186h144q-37 -89 -123 -144t-187 -55q-143 0 -246 103.5t-103 247.5q0 142 102 243.5t245 101.5q124 0 220 -78q63 -51 96 -126h-141q-76 88 -180 88q-88 0 -153 -68.5t-65 -162.5t66.5 -163.5t156.5 -69.5q89 0 168 83zM205 734l123 125h111l125 -125h-132l-48 58
l-47 -58h-132z" />
    <glyph glyph-name="ccircumflex" unicode="&#x109;" horiz-adv-x="566" 
d="M413 164h136q-27 -77 -83 -122q-73 -59 -168 -59q-110 0 -189 79.5t-79 191.5q0 110 78.5 188t188.5 78q104 0 183 -73q47 -44 69 -111h-136q-42 74 -116 74q-64 0 -105 -45t-41 -113t43 -113t108 -45q68 0 111 70zM127 570l117 132h109l116 -132h-122l-48 65l-51 -65
h-121z" />
    <glyph glyph-name="Cdotaccent" unicode="&#x10a;" horiz-adv-x="711" 
d="M547 186h144q-37 -89 -123 -144t-187 -55q-143 0 -246 103.5t-103 247.5q0 142 102 243.5t245 101.5q124 0 220 -78q63 -51 96 -126h-141q-76 88 -180 88q-88 0 -153 -68.5t-65 -162.5t66.5 -163.5t156.5 -69.5q89 0 168 83zM322 740v121h121v-121h-121z" />
    <glyph glyph-name="cdotaccent" unicode="&#x10b;" horiz-adv-x="566" 
d="M413 164h136q-27 -77 -83 -122q-73 -59 -168 -59q-110 0 -189 79.5t-79 191.5q0 110 78.5 188t188.5 78q104 0 183 -73q47 -44 69 -111h-136q-42 74 -116 74q-64 0 -105 -45t-41 -113t43 -113t108 -45q68 0 111 70zM238 573v121h117v-121h-117z" />
    <glyph glyph-name="Dcaron" unicode="&#x10e;" horiz-adv-x="631" 
d="M62 0v670h152q151 0 237 -51q68 -40 108.5 -118t40.5 -168q0 -95 -45.5 -175t-121.5 -118q-80 -40 -216 -40h-155zM186 116h26q108 0 164 33q47 28 73.5 76.5t26.5 106.5q0 60 -28.5 111.5t-76.5 79.5q-54 31 -161 31h-24v-438zM105 859h131l51 -58l45 58h132l-121 -125
h-108z" />
    <glyph glyph-name="dcaron" unicode="&#x10f;" horiz-adv-x="722" 
d="M559 670v-670h-110v61q-72 -78 -173 -78q-100 0 -173.5 79.5t-73.5 188.5q0 110 74.5 189.5t178.5 79.5q94 0 156 -62v212h121zM298 409q-59 0 -103.5 -46.5t-44.5 -109.5q0 -66 43.5 -112.5t105.5 -46.5q61 0 105 46.5t44 110.5t-44.5 111t-105.5 47zM613 580v90h109
v-96q0 -43 -29 -67.5t-79 -24.5v51q48 6 48 35q0 8 -1 12h-48z" />
    <glyph glyph-name="Dcroat" unicode="&#x110;" horiz-adv-x="631" 
d="M62 389v281h152q151 0 237 -51q67 -40 108 -118t41 -167q0 -95 -45.5 -175.5t-121.5 -118.5q-79 -40 -216 -40h-155v285h-64v104h64zM186 389h160v-104h-160v-169h26q108 0 164 33q47 28 73.5 76.5t26.5 106.5q0 61 -28 112t-77 79q-55 31 -161 31h-24v-165z" />
    <glyph glyph-name="dcroat" unicode="&#x111;" horiz-adv-x="615" 
d="M559 670v-40h61v-79h-61v-551h-111v61q-29 -35 -76.5 -56.5t-95.5 -21.5q-101 0 -174 79.5t-73 188.5q0 111 74.5 190t178.5 79q92 0 156 -62v93h-127v79h127v40h121zM297 403q-59 0 -103.5 -45t-44.5 -106q0 -63 43.5 -107.5t105.5 -44.5q61 0 104.5 44.5t43.5 106.5
t-44 107t-105 45z" />
    <glyph glyph-name="Emacron" unicode="&#x112;" horiz-adv-x="462" 
d="M62 0v670h361v-116h-237v-163h227v-116h-227v-159h237v-116h-361zM81 753v86h328v-86h-328z" />
    <glyph glyph-name="emacron" unicode="&#x113;" horiz-adv-x="585" 
d="M548 198h-391q12 -45 50.5 -74.5t84.5 -29.5q72 0 112 65h133q-23 -76 -91.5 -126t-150.5 -50q-110 0 -187.5 78t-77.5 190q0 113 77.5 192.5t187.5 79.5q106 0 183 -78t77 -186q0 -22 -7 -61zM154 295h283q-13 54 -51 85.5t-90 31.5t-91 -32t-51 -85zM152 587v80h308
v-80h-308z" />
    <glyph glyph-name="Ebreve" unicode="&#x114;" horiz-adv-x="463" 
d="M62 0v670h361v-116h-237v-163h227v-116h-227v-159h237v-116h-361zM79 861h98q14 -44 70 -44q33 0 47 8q18 9 28 36h97q-4 -55 -48 -91q-47 -39 -122 -39q-82 0 -129 45q-36 34 -41 85z" />
    <glyph glyph-name="ebreve" unicode="&#x115;" horiz-adv-x="585" 
d="M548 198h-391q12 -45 50.5 -74.5t84.5 -29.5q72 0 112 65h133q-23 -76 -91.5 -126t-150.5 -50q-110 0 -187.5 78t-77.5 190q0 113 77.5 192.5t187.5 79.5q106 0 183 -78t77 -186q0 -22 -7 -61zM154 295h283q-13 54 -51 85.5t-90 31.5t-91 -32t-51 -85zM132 700h94
q20 -48 73 -48t74 48h93q-8 -62 -52 -96.5t-115 -34.5q-148 0 -167 131z" />
    <glyph glyph-name="Edotaccent" unicode="&#x116;" horiz-adv-x="462" 
d="M62 0v670h361v-116h-237v-163h227v-116h-227v-159h237v-116h-361zM185 740v121h121v-121h-121z" />
    <glyph glyph-name="edotaccent" unicode="&#x117;" horiz-adv-x="585" 
d="M548 198h-391q12 -45 50.5 -74.5t84.5 -29.5q72 0 112 65h133q-23 -76 -91.5 -126t-150.5 -50q-110 0 -187.5 78t-77.5 190q0 113 77.5 192.5t187.5 79.5q106 0 183 -78t77 -186q0 -22 -7 -61zM154 295h283q-13 54 -51 85.5t-90 31.5t-91 -32t-51 -85zM237 573v121h117
v-121h-117z" />
    <glyph glyph-name="Eogonek" unicode="&#x118;" horiz-adv-x="462" 
d="M423 0h-23q-65 -35 -65 -72q0 -17 13 -28.5t33 -11.5q23 0 44 9v-72q-32 -13 -65 -13q-46 0 -76.5 26t-30.5 64q0 58 78 98h-269v670h361v-116h-237v-163h227v-116h-227v-159h237v-116z" />
    <glyph glyph-name="eogonek" unicode="&#x119;" horiz-adv-x="585" 
d="M424 19l-4 -3l-2 -2q-64 -47 -64 -86q0 -44 48 -44q16 0 37 10v-67q-31 -12 -61 -12q-48 0 -76.5 24.5t-28.5 65.5t37 79q-9 -1 -16 -1q-108 -7 -186 74t-78 194t77.5 192.5t187.5 79.5q106 0 183 -78t77 -186q0 -22 -7 -61h-391q12 -45 50.5 -74.5t84.5 -29.5
q72 0 112 65h133q-22 -85 -113 -140zM154 295h283q-12 54 -50 85.5t-91 31.5q-52 0 -91 -32t-51 -85z" />
    <glyph glyph-name="Ecaron" unicode="&#x11a;" horiz-adv-x="462" 
d="M62 0v670h361v-116h-237v-163h227v-116h-227v-159h237v-116h-361zM72 859h131l51 -58l45 58h132l-121 -125h-108z" />
    <glyph glyph-name="ecaron" unicode="&#x11b;" horiz-adv-x="585" 
d="M548 198h-391q12 -45 50.5 -74.5t84.5 -29.5q72 0 112 65h133q-23 -76 -91.5 -126t-150.5 -50q-110 0 -187.5 78t-77.5 190q0 113 77.5 192.5t187.5 79.5q106 0 183 -78t77 -186q0 -22 -7 -61zM154 295h283q-13 54 -51 85.5t-90 31.5t-91 -32t-51 -85zM474 702l-118 -132
h-108l-116 132h121l49 -65l50 65h122z" />
    <glyph glyph-name="Gcircumflex" unicode="&#x11c;" horiz-adv-x="777" 
d="M310 225v116h437q0 -119 -64 -207q-49 -68 -127 -107.5t-164 -39.5q-149 0 -254.5 101.5t-105.5 246.5q0 143 105 245.5t252 102.5q107 0 200 -60t125 -149h-148q-64 93 -180 93q-100 0 -165 -69t-65 -165q0 -97 68.5 -163.5t168.5 -66.5q64 0 116.5 33t81.5 89h-281z
M218 734l123 125h111l125 -125h-132l-48 58l-47 -58h-132z" />
    <glyph glyph-name="gcircumflex" unicode="&#x11d;" horiz-adv-x="621" 
d="M455 503h111v-411q0 -125 -60 -197q-82 -99 -215 -99q-86 0 -154.5 45t-98.5 121h137q48 -56 123 -56q65 0 108.5 44t47.5 114q-68 -81 -166 -81q-106 0 -182 80t-76 193q0 109 75.5 186.5t181.5 77.5q107 0 168 -79v62zM297 409q-61 0 -103.5 -45t-42.5 -110
q0 -68 43.5 -114.5t106.5 -46.5q59 0 101.5 46t42.5 110q0 67 -43 113.5t-105 46.5zM149 570l118 132h109l115 -132h-121l-49 65l-50 -65h-122z" />
    <glyph glyph-name="Gdotaccent" unicode="&#x120;" horiz-adv-x="777" 
d="M310 225v116h437q0 -119 -64 -207q-49 -68 -127 -107.5t-164 -39.5q-149 0 -254.5 101.5t-105.5 246.5q0 143 105 245.5t252 102.5q107 0 200 -60t125 -149h-148q-64 93 -180 93q-100 0 -165 -69t-65 -165q0 -97 68.5 -163.5t168.5 -66.5q64 0 116.5 33t81.5 89h-281z
M335 740v121h121v-121h-121z" />
    <glyph glyph-name="gdotaccent" unicode="&#x121;" horiz-adv-x="621" 
d="M455 503h111v-411q0 -125 -60 -197q-82 -99 -215 -99q-86 0 -154.5 45t-98.5 121h137q48 -56 123 -56q65 0 108.5 44t47.5 114q-68 -81 -166 -81q-106 0 -182 80t-76 193q0 109 75.5 186.5t181.5 77.5q107 0 168 -79v62zM297 409q-61 0 -103.5 -45t-42.5 -110
q0 -68 43.5 -114.5t106.5 -46.5q59 0 101.5 46t42.5 110q0 67 -43 113.5t-105 46.5zM255 573v121h117v-121h-117z" />
    <glyph glyph-name="Gcommaaccent" unicode="&#x122;" horiz-adv-x="777" 
d="M310 225v116h437q0 -119 -64 -207q-49 -68 -127 -107.5t-164 -39.5q-149 0 -254.5 101.5t-105.5 246.5q0 143 105 245.5t252 102.5q107 0 200 -60t125 -149h-148q-64 93 -180 93q-100 0 -165 -69t-65 -165q0 -97 68.5 -163.5t168.5 -66.5q64 0 116.5 33t81.5 89h-281z
M338 -143v90h109v-96q0 -43 -29 -67.5t-79 -24.5v51q48 6 48 35q0 8 -1 12h-48z" />
    <glyph glyph-name="gcommaaccent" unicode="&#x123;" horiz-adv-x="621" 
d="M455 503h111v-411q0 -125 -60 -197q-82 -99 -215 -99q-86 0 -154.5 45t-98.5 121h137q48 -56 123 -56q65 0 108.5 44t47.5 114q-68 -81 -166 -81q-106 0 -182 80t-76 193q0 109 75.5 186.5t181.5 77.5q107 0 168 -79v62zM297 409q-61 0 -103.5 -45t-42.5 -110
q0 -68 43.5 -114.5t106.5 -46.5q59 0 101.5 46t42.5 110q0 67 -43 113.5t-105 46.5zM365 659v-90h-109v96q0 43 28.5 67.5t79.5 24.5v-51q-48 -6 -48 -35q0 -8 1 -12h48z" />
    <glyph glyph-name="Hcircumflex" unicode="&#x124;" horiz-adv-x="611" 
d="M62 0v670h124v-273h240v273h124v-670h-124v281h-240v-281h-124zM132 734l123 125h111l124 -125h-131l-49 58l-47 -58h-131z" />
    <glyph glyph-name="hcircumflex" unicode="&#x125;" horiz-adv-x="552" 
d="M55 0v670h121v-202q56 52 130 52q44 0 88 -22.5t70 -59.5q37 -51 37 -154v-284h-121v257q0 152 -102 152q-56 0 -84 -50q-18 -32 -18 -104v-255h-121zM-61 734l123 125h111l125 -125h-132l-48 58l-48 -58h-131z" />
    <glyph glyph-name="Hbar" unicode="&#x126;" horiz-adv-x="611" 
d="M550 482v-482h-124v281h-240v-281h-124v482h-64v104h64v84h124v-84h240v84h124v-84h63v-104h-63zM426 482h-240v-85h240v85z" />
    <glyph glyph-name="hbar" unicode="&#x127;" horiz-adv-x="552" 
d="M176 551v-83q55 52 130 52q44 0 88 -22.5t70 -59.5q37 -51 37 -154v-284h-121v257q0 153 -102 153q-58 0 -84 -50q-18 -34 -18 -105v-255h-121v551h-60v79h60v40h121v-40h114v-79h-114z" />
    <glyph glyph-name="Itilde" unicode="&#x128;" horiz-adv-x="247" 
d="M61 0v670h124v-670h-124zM-2 729l-39 79q40 42 98 42q31 0 72 -14q35 -12 58 -12q41 0 72 32l39 -75q-45 -48 -97 -48q-22 0 -92 21q-27 8 -38 8q-36 0 -73 -33z" />
    <glyph glyph-name="itilde" unicode="&#x129;" horiz-adv-x="231" 
d="M55 0v503h121v-503h-121zM-1 577l-40 71q42 39 88 39q38 0 74 -12q27 -9 56 -9q38 0 66 27l38 -73q-35 -41 -96 -41q-15 0 -83 17q-32 8 -45 8q-32 0 -58 -27z" />
    <glyph glyph-name="Imacron" unicode="&#x12a;" horiz-adv-x="247" 
d="M62 0v670h124v-670h-124zM-17 753v86h288v-86h-288z" />
    <glyph glyph-name="imacron" unicode="&#x12b;" horiz-adv-x="231" 
d="M55 0v503h121v-503h-121zM-15 587v80h268v-80h-268z" />
    <glyph glyph-name="Ibreve" unicode="&#x12c;" horiz-adv-x="247" 
d="M62 0v670h124v-670h-124zM-45 861h98q14 -44 70 -44q32 0 48.5 8.5t25.5 35.5h98q-6 -56 -48 -91q-47 -39 -122 -39q-82 0 -129 45q-36 34 -41 85z" />
    <glyph glyph-name="ibreve" unicode="&#x12d;" horiz-adv-x="230" 
d="M55 0v503h121v-503h-121zM-33 702h93q10 -49 60 -49q49 0 63 49h93q-8 -61 -49.5 -97t-103.5 -36q-136 0 -156 133z" />
    <glyph glyph-name="Iogonek" unicode="&#x12e;" horiz-adv-x="247" 
d="M186 0h-22q-64 -36 -64 -72q0 -17 13 -28.5t33 -11.5q23 0 44 9v-72q-33 -13 -65 -13q-46 0 -76.5 26t-30.5 64q0 59 78 98h-34v670h124v-670z" />
    <glyph glyph-name="iogonek" unicode="&#x12f;" horiz-adv-x="231" 
d="M156 0l-7 -4l-2 -2q-52 -36 -52 -67q0 -43 48 -43q16 0 37 10v-67q-32 -12 -62 -12q-47 0 -75.5 24t-28.5 64q0 57 78 97h-37v503h121v-503h-20zM55 559v111h121v-111h-121z" />
    <glyph glyph-name="Idotaccent" unicode="&#x130;" horiz-adv-x="247" 
d="M62 0v670h124v-670h-124zM67 740v121h121v-121h-121z" />
    <glyph glyph-name="IJ" unicode="&#x132;" horiz-adv-x="663" 
d="M62 0v670h124v-670h-124zM485 670h124v-479q0 -85 -39 -136q-52 -68 -144 -68q-84 0 -141 61q-38 40 -44 110h124q12 -55 60 -55q60 0 60 80v487z" />
    <glyph glyph-name="ij" unicode="&#x133;" horiz-adv-x="454" 
d="M55 0v503h121v-503h-121zM55 559v111h121v-111h-121zM279 503h121v-482q0 -84 -47 -136t-124 -53v117q35 6 45 24q5 11 5 51v479zM279 561v109h121v-109h-121z" />
    <glyph glyph-name="Jcircumflex" unicode="&#x134;" horiz-adv-x="423" 
d="M244 670h124v-479q0 -85 -39 -136q-52 -68 -144 -68q-84 0 -141 61q-38 40 -44 110h124q12 -55 60 -55q60 0 60 80v487zM129 734l123 125h111l124 -125h-131l-48 58l-48 -58h-131z" />
    <glyph glyph-name="jcircumflex" unicode="&#x135;" horiz-adv-x="231" 
d="M55 503h121v-482q0 -84 -47 -136t-124 -53v117q30 5 38 15q12 16 12 60v479zM-51 570l118 132h108l116 -132h-122l-48 65l-51 -65h-121z" />
    <glyph glyph-name="Kcommaaccent" unicode="&#x136;" horiz-adv-x="537" 
d="M62 0v670h124v-290l211 290h146l-253 -329l253 -341h-146l-211 294v-294h-124zM211 -143v90h109v-96q0 -43 -29 -67.5t-79 -24.5v51q48 6 48 35q0 8 -1 12h-48z" />
    <glyph glyph-name="kcommaaccent" unicode="&#x137;" horiz-adv-x="494" 
d="M55 0v670h121v-404l162 237h139l-181 -246l204 -257h-152l-172 235v-235h-121zM192 -143v90h109v-96q0 -43 -29 -67.5t-79 -24.5v51q48 6 48 35q0 8 -1 12h-48z" />
    <glyph glyph-name="kgreenlandic" unicode="&#x138;" horiz-adv-x="494" 
d="M55 0v503h121v-237l162 237h139l-181 -246l204 -257h-152l-172 235v-235h-121z" />
    <glyph glyph-name="Lacute" unicode="&#x139;" horiz-adv-x="407" 
d="M62 0v670h124v-554h204v-116h-328zM128 717l-52 65l151 129l57 -75z" />
    <glyph glyph-name="lacute" unicode="&#x13a;" horiz-adv-x="231" 
d="M55 0v670h121v-670h-121zM129 717l-52 65l151 129l56 -75z" />
    <glyph glyph-name="Lcommaaccent" unicode="&#x13b;" horiz-adv-x="407" 
d="M62 0v670h124v-554h204v-116h-328zM172 -143v90h109v-96q0 -43 -29 -67.5t-79 -24.5v51q48 6 48 35q0 8 -1 12h-48z" />
    <glyph glyph-name="lcommaaccent" unicode="&#x13c;" horiz-adv-x="231" 
d="M55 0v670h121v-670h-121zM64 -143v90h109v-96q0 -43 -29 -67.5t-79 -24.5v51q48 6 48 35q0 8 -1 12h-48z" />
    <glyph glyph-name="Lcaron" unicode="&#x13d;" horiz-adv-x="407" 
d="M62 0v670h124v-554h204v-116h-328zM246 580v90h109v-96q0 -43 -29 -67.5t-79 -24.5v51q48 6 48 35q0 8 -1 12h-48z" />
    <glyph glyph-name="lcaron" unicode="&#x13e;" horiz-adv-x="338" 
d="M55 0v670h121v-670h-121zM229 580v90h109v-96q0 -43 -29 -67.5t-79 -24.5v51q48 6 48 35q0 8 -1 12h-48z" />
    <glyph glyph-name="Ldot" unicode="&#x13f;" horiz-adv-x="407" 
d="M62 0v670h124v-554h204v-116h-328zM255 270v144h144v-144h-144z" />
    <glyph glyph-name="ldot" unicode="&#x140;" horiz-adv-x="351" 
d="M55 0v670h121v-670h-121zM230 281v121h121v-121h-121z" />
    <glyph glyph-name="Nacute" unicode="&#x143;" horiz-adv-x="668" 
d="M62 0v670h141l279 -488v488h124v-670h-139l-281 487v-487h-124zM325 717l-44 80l204 121l47 -92z" />
    <glyph glyph-name="nacute" unicode="&#x144;" horiz-adv-x="554" 
d="M55 0v503h112v-44q62 61 137 61q97 0 155 -75q43 -56 43 -173v-272h-121v248q0 92 -30 128q-28 33 -71 33q-57 0 -84 -47q-20 -34 -20 -123v-239h-121zM273 550l-52 66l174 145l57 -78z" />
    <glyph glyph-name="Ncommaaccent" unicode="&#x145;" horiz-adv-x="668" 
d="M62 0v670h141l279 -488v488h124v-670h-139l-281 487v-487h-124zM266 -143v90h109v-96q0 -43 -29 -67.5t-79 -24.5v51q48 6 48 35q0 8 -1 12h-48z" />
    <glyph glyph-name="ncommaaccent" unicode="&#x146;" horiz-adv-x="554" 
d="M55 0v503h112v-44q62 61 137 61q97 0 155 -75q43 -56 43 -173v-272h-121v248q0 92 -30 128q-28 33 -71 33q-57 0 -84 -47q-20 -34 -20 -123v-239h-121zM221 -143v90h109v-96q0 -43 -29 -67.5t-79 -24.5v51q48 6 48 35q0 8 -1 12h-48z" />
    <glyph glyph-name="Ncaron" unicode="&#x147;" horiz-adv-x="668" 
d="M62 0v670h141l279 -488v488h124v-670h-139l-281 487v-487h-124zM163 859h131l51 -58l45 58h132l-121 -125h-108z" />
    <glyph glyph-name="ncaron" unicode="&#x148;" horiz-adv-x="554" 
d="M55 0v503h112v-44q62 61 137 61q97 0 155 -75q43 -56 43 -173v-272h-121v248q0 92 -30 128q-28 33 -71 33q-57 0 -84 -47q-20 -34 -20 -123v-239h-121zM448 702l-118 -132h-108l-116 132h121l49 -65l50 65h122z" />
    <glyph glyph-name="napostrophe" unicode="&#x149;" horiz-adv-x="729" 
d="M57 549v121h121v-128q0 -60 -38 -92q-33 -28 -76 -28h-6v61q53 10 53 51q0 9 -1 15h-53zM230 0v503h112v-44q62 61 137 61q97 0 155 -75q43 -56 43 -173v-272h-121v248q0 92 -30 128q-28 33 -71 33q-57 0 -84 -47q-20 -34 -20 -123v-239h-121z" />
    <glyph glyph-name="Eng" unicode="&#x14a;" horiz-adv-x="596" 
d="M62 670h115v-44q58 57 138 57q119 0 187 -100q39 -57 39 -157v-405q0 -86 -47.5 -137.5t-126.5 -51.5v118q30 3 38 14q12 16 12 60v402q0 63 -18 93q-29 48 -94 48q-67 0 -98 -46q-21 -31 -21 -93v-428h-124v670z" />
    <glyph glyph-name="eng" unicode="&#x14b;" horiz-adv-x="554" 
d="M55 503h112v-44q62 61 137 61q97 0 155 -75q43 -56 43 -173v-251q0 -84 -47 -136t-124 -53v118q30 3 38 14q12 16 12 60v224q0 92 -30 128q-28 33 -71 33q-57 0 -84 -47q-20 -34 -20 -123v-239h-121v503z" />
    <glyph glyph-name="Omacron" unicode="&#x14c;" horiz-adv-x="763" 
d="M383 683q145 0 247.5 -102t102.5 -246t-102.5 -246t-247.5 -102q-147 0 -249 102t-102 250q0 140 103.5 242t247.5 102zM383 567q-93 0 -160 -68t-67 -162q0 -98 66.5 -166t161.5 -68q93 0 159 68t66 164t-66 164t-160 68zM221 753v86h329v-86h-329z" />
    <glyph glyph-name="omacron" unicode="&#x14d;" horiz-adv-x="595" 
d="M299 520q111 0 188.5 -78t77.5 -190t-78 -190.5t-191 -78.5q-110 0 -188 80t-78 193q0 107 80 185.5t189 78.5zM298 409q-59 0 -103 -46t-44 -110q0 -67 42.5 -113t104.5 -46t104 45t42 111q0 65 -43 112t-103 47zM153 587v80h309v-80h-309z" />
    <glyph glyph-name="Obreve" unicode="&#x14e;" horiz-adv-x="763" 
d="M383 683q145 0 247.5 -102t102.5 -246t-102.5 -246t-247.5 -102q-147 0 -249 102t-102 250q0 140 103.5 242t247.5 102zM383 567q-93 0 -160 -68t-67 -162q0 -98 66.5 -166t161.5 -68q93 0 159 68t66 164t-66 164t-160 68zM213 861h98q14 -44 70 -44q33 0 49.5 8.5
t25.5 35.5h98q-6 -56 -48 -91q-47 -39 -123 -39q-82 0 -129 45q-36 34 -41 85z" />
    <glyph glyph-name="obreve" unicode="&#x14f;" horiz-adv-x="595" 
d="M299 520q111 0 188.5 -78t77.5 -190t-78 -190.5t-191 -78.5q-110 0 -188 80t-78 193q0 107 80 185.5t189 78.5zM298 409q-59 0 -103 -46t-44 -110q0 -67 42.5 -113t104.5 -46t104 45t42 111q0 65 -43 112t-103 47zM133 700h94q20 -48 73 -48t74 48h93q-8 -62 -52 -96.5
t-115 -34.5q-148 0 -167 131z" />
    <glyph glyph-name="Ohungarumlaut" unicode="&#x150;" horiz-adv-x="763" 
d="M383 683q145 0 247.5 -102t102.5 -246t-102.5 -246t-247.5 -102q-147 0 -249 102t-102 250q0 140 103.5 242t247.5 102zM383 567q-93 0 -160 -68t-67 -162q0 -98 66.5 -166t161.5 -68q93 0 159 68t66 164t-66 164t-160 68zM481 717l-52 65l151 129l57 -75zM300 717
l-52 65l151 129l57 -75z" />
    <glyph glyph-name="ohungarumlaut" unicode="&#x151;" horiz-adv-x="595" 
d="M299 520q111 0 188.5 -78t77.5 -190t-78 -190.5t-191 -78.5q-110 0 -188 80t-78 193q0 107 80 185.5t189 78.5zM298 409q-59 0 -103 -46t-44 -110q0 -67 42.5 -113t104.5 -46t104 45t42 111q0 65 -43 112t-103 47zM235 554l-52 48l135 159l60 -59zM389 554l-52 48
l135 159l61 -59z" />
    <glyph glyph-name="Racute" unicode="&#x154;" horiz-adv-x="542" 
d="M62 0v670h205q113 0 171 -51q71 -62 71 -156q0 -103 -70 -165q-38 -34 -105 -50l181 -248h-150l-179 256v-256h-124zM186 350h79q56 0 88 27.5t32 75.5q0 46 -32.5 73.5t-86.5 27.5h-80v-204zM253 717l-44 80l204 121l47 -92z" />
    <glyph glyph-name="racute" unicode="&#x155;" horiz-adv-x="293" 
d="M55 0v503h111v-45q27 36 50 49t59 13h10v-118q-46 -2 -73 -23q-36 -29 -36 -97v-282h-121zM130 550l-53 66l174 145l57 -78z" />
    <glyph glyph-name="Rcommaaccent" unicode="&#x156;" horiz-adv-x="542" 
d="M62 0v670h205q113 0 171 -51q71 -62 71 -156q0 -103 -70 -165q-38 -34 -105 -50l181 -248h-150l-179 256v-256h-124zM186 350h79q56 0 88 27.5t32 75.5q0 46 -32.5 73.5t-86.5 27.5h-80v-204zM214 -143v90h108v-96q0 -43 -29 -67.5t-79 -24.5v51q48 6 48 35q0 8 -1 12
h-47z" />
    <glyph glyph-name="rcommaaccent" unicode="&#x157;" horiz-adv-x="293" 
d="M55 0v503h111v-45q27 36 50 49t59 13h10v-118q-46 -2 -73 -23q-36 -29 -36 -97v-282h-121zM59 -143v90h108v-96q0 -43 -29 -67.5t-79 -24.5v51q48 6 48 35q0 8 -1 12h-47z" />
    <glyph glyph-name="Rcaron" unicode="&#x158;" horiz-adv-x="542" 
d="M62 0v670h205q113 0 171 -51q71 -62 71 -156q0 -103 -70 -165q-38 -34 -105 -50l181 -248h-150l-179 256v-256h-124zM186 350h79q56 0 88 27.5t32 75.5q0 46 -32.5 73.5t-86.5 27.5h-80v-204zM74 859h131l51 -58l45 58h131l-121 -125h-107z" />
    <glyph glyph-name="rcaron" unicode="&#x159;" horiz-adv-x="293" 
d="M55 0v503h111v-45q27 36 50 49t59 13h10v-118q-46 -2 -73 -23q-36 -29 -36 -97v-282h-121zM348 702l-118 -132h-108l-116 132h121l49 -65l50 65h122z" />
    <glyph glyph-name="Sacute" unicode="&#x15a;" horiz-adv-x="485" 
d="M17 192h130q1 -41 26 -65.5t66 -24.5q39 0 64.5 23.5t25.5 60.5q0 36 -20.5 58.5t-70.5 40.5q-72 26 -96 38t-45 33q-56 55 -56 137q0 78 58 134t139 56q95 0 155 -73q40 -49 43 -117h-128q-6 74 -74 74q-69 0 -69 -68q0 -32 26 -53q22 -18 86 -40q78 -28 115 -62
q61 -57 61 -141q0 -90 -61 -150q-67 -66 -156 -66q-111 0 -175 82q-40 51 -44 123zM225 717l-44 80l204 121l47 -92z" />
    <glyph glyph-name="sacute" unicode="&#x15b;" horiz-adv-x="406" 
d="M14 158h123q17 -65 66 -65q23 0 38.5 14.5t15.5 36.5t-17.5 36t-67.5 30q-66 21 -94 47q-46 42 -46 107t49 110.5t119 45.5q78 0 127 -58q36 -42 37 -96h-118q-8 43 -47 43q-20 0 -33.5 -12t-13.5 -31q0 -30 52 -46q90 -28 117 -47q57 -41 57 -114t-54 -124.5t-130 -51.5
q-94 0 -146 71q-27 38 -34 104zM194 550l-53 66l174 145l57 -78z" />
    <glyph glyph-name="Scircumflex" unicode="&#x15c;" horiz-adv-x="485" 
d="M17 192h130q1 -41 26 -65.5t66 -24.5q39 0 64.5 23.5t25.5 60.5q0 36 -20.5 58.5t-70.5 40.5q-72 26 -96 38t-45 33q-56 55 -56 137q0 78 58 134t139 56q95 0 155 -73q40 -49 43 -117h-128q-6 74 -74 74q-69 0 -69 -68q0 -32 26 -53q22 -18 86 -40q78 -28 115 -62
q61 -57 61 -141q0 -90 -61 -150q-67 -66 -156 -66q-111 0 -175 82q-40 51 -44 123zM65 734l123 125h111l125 -125h-132l-48 58l-48 -58h-131z" />
    <glyph glyph-name="scircumflex" unicode="&#x15d;" horiz-adv-x="406" 
d="M14 158h123q17 -65 66 -65q23 0 38.5 14.5t15.5 36.5t-17.5 36t-67.5 30q-66 21 -94 47q-46 42 -46 107t49 110.5t119 45.5q78 0 127 -58q36 -42 37 -96h-118q-8 43 -47 43q-20 0 -33.5 -12t-13.5 -31q0 -30 52 -46q90 -28 117 -47q57 -41 57 -114t-54 -124.5t-130 -51.5
q-94 0 -146 71q-27 38 -34 104zM35 570l118 132h109l115 -132h-121l-49 65l-50 -65h-122z" />
    <glyph glyph-name="Tcaron" unicode="&#x164;" horiz-adv-x="391" 
d="M133 0v554h-124v116h372v-116h-124v-554h-124zM17 859h132l50 -58l46 58h131l-121 -125h-107z" />
    <glyph glyph-name="tcaron" unicode="&#x165;" horiz-adv-x="278" 
d="M67 0v392h-59v111h59v167h121v-167h72v-111h-72v-392h-121zM-42 859h128l39 -58l37 58h128l-106 -125h-107z" />
    <glyph glyph-name="Tbar" unicode="&#x166;" horiz-adv-x="391" 
d="M133 442v112h-124v116h372v-116h-124v-112h90v-104h-90v-338h-124v338h-90v104h90z" />
    <glyph glyph-name="tbar" unicode="&#x167;" horiz-adv-x="278" 
d="M67 250h-59v79h59v70h-59v104h59v167h121v-167h72v-104h-72v-70h72v-79h-72v-250h-121v250z" />
    <glyph glyph-name="Utilde" unicode="&#x168;" horiz-adv-x="589" 
d="M55 670h124v-426q0 -62 21 -94q31 -48 94 -48t95 47q21 31 21 95v426h124v-426q0 -108 -46 -167q-71 -91 -192 -91q-61 0 -115 27t-87 73q-39 55 -39 158v426zM172 729l-39 79q40 42 97 42q32 0 73 -14q35 -12 57 -12q41 0 73 32l39 -75q-45 -48 -97 -48q-22 0 -92 21
q-27 8 -38 8q-36 0 -73 -33z" />
    <glyph glyph-name="utilde" unicode="&#x169;" horiz-adv-x="554" 
d="M379 503h121v-503h-111v50q-29 -37 -57.5 -52t-72.5 -15q-83 0 -145 56t-62 169v295h121v-257q0 -152 104 -152q102 0 102 152v257zM171 577l-40 71q42 39 88 39q37 0 74 -12q28 -9 57 -9q37 0 65 27l39 -73q-35 -41 -96 -41q-16 0 -84 17q-32 8 -45 8q-32 0 -58 -27z
" />
    <glyph glyph-name="Umacron" unicode="&#x16a;" horiz-adv-x="589" 
d="M55 670h124v-426q0 -62 21 -94q31 -48 94 -48t95 47q21 31 21 95v426h124v-426q0 -108 -46 -167q-71 -91 -192 -91q-61 0 -115 27t-87 73q-39 55 -39 158v426zM137 753v86h329v-86h-329z" />
    <glyph glyph-name="umacron" unicode="&#x16b;" horiz-adv-x="554" 
d="M379 503h121v-503h-111v50q-29 -37 -57.5 -52t-72.5 -15q-83 0 -145 56t-62 169v295h121v-257q0 -152 104 -152q102 0 102 152v257zM130 587v80h308v-80h-308z" />
    <glyph glyph-name="Ubreve" unicode="&#x16c;" horiz-adv-x="589" 
d="M55 670h124v-426q0 -62 21 -94q31 -48 94 -48t95 47q21 31 21 95v426h124v-426q0 -108 -46 -167q-71 -91 -192 -91q-61 0 -115 27t-87 73q-39 55 -39 158v426zM134 861h98q14 -44 69 -44q33 0 49.5 8.5t25.5 35.5h98q-6 -56 -48 -91q-47 -39 -122 -39q-101 0 -150 68
q-17 25 -20 62z" />
    <glyph glyph-name="ubreve" unicode="&#x16d;" horiz-adv-x="554" 
d="M379 503h121v-503h-111v50q-29 -37 -57.5 -52t-72.5 -15q-83 0 -145 56t-62 169v295h121v-257q0 -152 104 -152q102 0 102 152v257zM116 700h93q21 -48 74 -48q52 0 73 48h93q-8 -62 -51.5 -96.5t-115.5 -34.5q-71 0 -114.5 34.5t-51.5 96.5z" />
    <glyph glyph-name="Uring" unicode="&#x16e;" horiz-adv-x="589" 
d="M55 670h124v-426q0 -62 21 -94q31 -48 94 -48t95 47q21 31 21 95v426h124v-426q0 -108 -46 -167q-71 -91 -192 -91q-61 0 -115 27t-87 73q-39 55 -39 158v426zM302 923q43 0 73 -30t30 -73t-30 -73t-73 -30t-73.5 30.5t-30.5 73.5q0 42 30.5 72t73.5 30zM302 861
q-16 0 -28 -12t-12 -28q0 -17 12 -29.5t28 -12.5t27.5 12t11.5 29t-11.5 29t-27.5 12z" />
    <glyph glyph-name="uring" unicode="&#x16f;" horiz-adv-x="554" 
d="M379 503h121v-503h-111v50q-29 -37 -57.5 -52t-72.5 -15q-83 0 -145 56t-62 169v295h121v-257q0 -152 104 -152q102 0 102 152v257zM285 756q41 0 70.5 -29.5t29.5 -70.5t-29.5 -70.5t-70.5 -29.5q-42 0 -71.5 29.5t-29.5 71.5q0 40 30 69.5t71 29.5zM285 698
q-16 0 -28.5 -12t-12.5 -29q0 -18 12 -30.5t29 -12.5q16 0 28 12.5t12 29.5t-12 29.5t-28 12.5z" />
    <glyph glyph-name="Uhungarumlaut" unicode="&#x170;" horiz-adv-x="589" 
d="M55 670h124v-426q0 -62 21 -94q31 -48 94 -48t95 47q21 31 21 95v426h124v-426q0 -108 -46 -167q-71 -91 -192 -91q-61 0 -115 27t-87 73q-39 55 -39 158v426zM397 717l-52 65l151 129l57 -75zM216 717l-52 65l151 129l57 -75z" />
    <glyph glyph-name="uhungarumlaut" unicode="&#x171;" horiz-adv-x="554" 
d="M379 503h121v-503h-111v50q-29 -37 -57.5 -52t-72.5 -15q-83 0 -145 56t-62 169v295h121v-257q0 -152 104 -152q102 0 102 152v257zM209 554l-53 48l135 159l61 -59zM363 554l-53 48l135 159l61 -59z" />
    <glyph glyph-name="Uogonek" unicode="&#x172;" horiz-adv-x="589" 
d="M534 670v-426q0 -86 -29 -140.5t-93 -88.5q-55 -41 -55 -86q0 -41 46 -41q22 0 44 9v-72q-35 -13 -65 -13q-46 0 -76.5 26t-30.5 65q0 46 35 84q-6 -1 -13 -1q-101 0 -171.5 64.5t-70.5 193.5v426h124v-426q0 -62 21 -94q31 -48 94 -48t95 47q21 31 21 95v426h124z" />
    <glyph glyph-name="uogonek" unicode="&#x173;" horiz-adv-x="554" 
d="M452 0l-9 -6q-52 -35 -52 -67q0 -43 48 -43q16 0 37 10v-67q-31 -12 -62 -12q-47 0 -75.5 24t-28.5 64q0 58 79 97v50q-29 -37 -57.5 -52t-72.5 -15q-83 0 -145 56t-62 169v295h121v-257q0 -152 104 -152q102 0 102 152v257h121v-503h-48z" />
    <glyph glyph-name="Wcircumflex" unicode="&#x174;" horiz-adv-x="833" 
d="M208 0l-196 670h127l117 -468l116 468h90l114 -468l118 468h127l-195 -670h-99l-109 443l-112 -443h-98zM239 737l123 125h111l124 -125h-131l-49 58l-47 -58h-131z" />
    <glyph glyph-name="wcircumflex" unicode="&#x175;" horiz-adv-x="711" 
d="M184 0l-181 503h129l92 -307l84 307h96l82 -307l93 307h129l-184 -503h-74l-95 326l-97 -326h-74zM187 570l118 132h108l116 -132h-121l-49 65l-51 -65h-121z" />
    <glyph glyph-name="Ycircumflex" unicode="&#x176;" horiz-adv-x="552" 
d="M213 0v247l-220 423h136l146 -308l146 308h137l-221 -423v-247h-124zM105 737l123 125h111l124 -125h-131l-49 58l-47 -58h-131z" />
    <glyph glyph-name="ycircumflex" unicode="&#x177;" horiz-adv-x="502" 
d="M87 -168l93 215l-184 456h138l114 -323l121 323h137l-289 -671h-130zM90 570l118 132h109l115 -132h-121l-49 65l-50 -65h-122z" />
    <glyph glyph-name="Zacute" unicode="&#x179;" horiz-adv-x="459" 
d="M22 102l257 452h-243v116h387v-108l-254 -446h272v-116h-419v102zM237 717l-52 65l151 129l57 -75z" />
    <glyph glyph-name="zacute" unicode="&#x17a;" horiz-adv-x="414" 
d="M17 0v109l222 283h-197v111h342v-109l-222 -283h238v-111h-383zM216 554l-52 48l135 159l60 -59z" />
    <glyph glyph-name="Zdotaccent" unicode="&#x17b;" horiz-adv-x="459" 
d="M22 102l257 452h-243v116h387v-108l-254 -446h272v-116h-419v102zM183 740v121h121v-121h-121z" />
    <glyph glyph-name="zdotaccent" unicode="&#x17c;" horiz-adv-x="414" 
d="M17 0v109l222 283h-197v111h342v-109l-222 -283h238v-111h-383zM164 573v121h117v-121h-117z" />
    <glyph glyph-name="Acaron" unicode="&#x1cd;" horiz-adv-x="655" 
d="M-1 0l279 670h97l281 -670h-137l-71 173h-238l-74 -173h-137zM255 289h144l-72 206zM142 859h132l50 -58l45 58h132l-121 -125h-107z" />
    <glyph glyph-name="acaron" unicode="&#x1ce;" horiz-adv-x="616" 
d="M561 503v-503h-111v62q-11 -14 -40 -34q-65 -45 -135 -45q-106 0 -175.5 77t-69.5 194q0 113 72 189.5t179 76.5q48 0 94.5 -22.5t74.5 -58.5v64h111zM300 409q-63 0 -106 -46t-43 -114q0 -66 43.5 -111t105.5 -45q63 0 105 45t42 113q0 69 -41.5 113.5t-105.5 44.5z
M485 702l-117 -132h-109l-115 132h121l49 -65l50 65h121z" />
    <glyph glyph-name="Icaron" unicode="&#x1cf;" horiz-adv-x="247" 
d="M61 0v670h124v-670h-124zM-57 859h131l51 -58l45 58h132l-121 -125h-108z" />
    <glyph glyph-name="icaron" unicode="&#x1d0;" horiz-adv-x="231" 
d="M55 0v503h121v-503h-121zM292 702l-118 -132h-108l-116 132h121l49 -65l50 65h122z" />
    <glyph glyph-name="Ocaron" unicode="&#x1d1;" horiz-adv-x="763" 
d="M383 683q145 0 247.5 -102t102.5 -246t-102.5 -246t-247.5 -102q-147 0 -249 102t-102 250q0 140 103.5 242t247.5 102zM383 567q-93 0 -160 -68t-67 -162q0 -98 66.5 -166t161.5 -68q93 0 159 68t66 164t-66 164t-160 68zM207 859h132l50 -58l45 58h132l-121 -125h-107z
" />
    <glyph glyph-name="ocaron" unicode="&#x1d2;" horiz-adv-x="595" 
d="M299 520q111 0 188.5 -78t77.5 -190t-78 -190.5t-191 -78.5q-110 0 -188 80t-78 193q0 107 80 185.5t189 78.5zM298 409q-59 0 -103 -46t-44 -110q0 -67 42.5 -113t104.5 -46t104 45t42 111q0 65 -43 112t-103 47zM474 702l-118 -132h-109l-115 132h121l49 -65l50 65h122
z" />
    <glyph glyph-name="Ucaron" unicode="&#x1d3;" horiz-adv-x="589" 
d="M55 670h124v-426q0 -62 21 -94q31 -48 94 -48t95 47q21 31 21 95v426h124v-426q0 -108 -46 -167q-71 -91 -192 -91q-61 0 -115 27t-87 73q-39 55 -39 158v426zM124 859h131l51 -58l45 58h131l-121 -125h-107z" />
    <glyph glyph-name="ucaron" unicode="&#x1d4;" horiz-adv-x="554" 
d="M379 503h121v-503h-111v50q-29 -37 -57.5 -52t-72.5 -15q-83 0 -145 56t-62 169v295h121v-257q0 -152 104 -152q102 0 102 152v257zM452 702l-118 -132h-108l-116 132h121l49 -65l50 65h122z" />
    <glyph glyph-name="Udieresismacron" unicode="&#x1d5;" horiz-adv-x="589" 
d="M55 670h124v-426q0 -62 21 -94q31 -48 94 -48t95 47q21 31 21 95v426h124v-426q0 -108 -46 -167q-71 -91 -192 -91q-61 0 -115 27t-87 73q-39 55 -39 158v426zM147 740v121h121v-121h-121zM334 740v121h121v-121h-121zM138 921v86h329v-86h-329z" />
    <glyph glyph-name="udieresismacron" unicode="&#x1d6;" horiz-adv-x="554" 
d="M379 503h121v-503h-111v50q-29 -37 -57.5 -52t-72.5 -15q-83 0 -145 56t-62 169v295h121v-257q0 -152 104 -152q102 0 102 152v257zM133 573v121h117v-121h-117zM315 573v121h117v-121h-117zM128 754v80h308v-80h-308z" />
    <glyph glyph-name="Udieresisacute" unicode="&#x1d7;" horiz-adv-x="589" 
d="M55 670h124v-426q0 -62 21 -94q31 -48 94 -48t95 47q21 31 21 95v426h124v-426q0 -108 -46 -167q-71 -91 -192 -91q-61 0 -115 27t-87 73q-39 55 -39 158v426zM147 740v121h121v-121h-121zM334 740v121h121v-121h-121zM294 885l-44 80l204 121l46 -92z" />
    <glyph glyph-name="udieresisacute" unicode="&#x1d8;" horiz-adv-x="554" 
d="M379 503h121v-503h-111v50q-29 -37 -57.5 -52t-72.5 -15q-83 0 -145 56t-62 169v295h121v-257q0 -152 104 -152q102 0 102 152v257zM133 573v121h117v-121h-117zM315 573v121h117v-121h-117zM281 717l-52 67l174 144l57 -77z" />
    <glyph glyph-name="Udieresiscaron" unicode="&#x1d9;" horiz-adv-x="589" 
d="M55 670h124v-426q0 -62 21 -94q31 -48 94 -48t95 47q21 31 21 95v426h124v-426q0 -108 -46 -167q-71 -91 -192 -91q-61 0 -115 27t-87 73q-39 55 -39 158v426zM147 740v121h121v-121h-121zM334 740v121h121v-121h-121zM120 1027h131l51 -59l45 59h131l-121 -126h-107z
" />
    <glyph glyph-name="udieresiscaron" unicode="&#x1da;" horiz-adv-x="554" 
d="M379 503h121v-503h-111v50q-29 -37 -57.5 -52t-72.5 -15q-83 0 -145 56t-62 169v295h121v-257q0 -152 104 -152q102 0 102 152v257zM133 573v121h117v-121h-117zM315 573v121h117v-121h-117zM455 869l-118 -132h-108l-116 132h121l49 -65l50 65h122z" />
    <glyph glyph-name="Udieresisgrave" unicode="&#x1db;" horiz-adv-x="589" 
d="M55 670h124v-426q0 -62 21 -94q31 -48 94 -48t95 47q21 31 21 95v426h124v-426q0 -108 -46 -167q-71 -91 -192 -91q-61 0 -115 27t-87 73q-39 55 -39 158v426zM147 740v121h121v-121h-121zM334 740v121h121v-121h-121zM304 885l-207 109l47 92l204 -121z" />
    <glyph glyph-name="udieresisgrave" unicode="&#x1dc;" horiz-adv-x="554" 
d="M379 503h121v-503h-111v50q-29 -37 -57.5 -52t-72.5 -15q-83 0 -145 56t-62 169v295h121v-257q0 -152 104 -152q102 0 102 152v257zM133 573v121h117v-121h-117zM315 573v121h117v-121h-117zM284 717l-179 134l57 77l174 -144z" />
    <glyph glyph-name="Adieresismacron" unicode="&#x1de;" horiz-adv-x="655" 
d="M-1 0l279 670h97l281 -670h-137l-71 173h-238l-74 -173h-137zM255 289h144l-72 206zM177 740v121h121v-121h-121zM364 740v121h121v-121h-121zM169 921v86h328v-86h-328z" />
    <glyph glyph-name="adieresismacron" unicode="&#x1df;" horiz-adv-x="616" 
d="M561 503v-503h-111v62q-11 -14 -40 -34q-65 -45 -135 -45q-106 0 -175.5 77t-69.5 194q0 113 72 189.5t179 76.5q48 0 94.5 -22.5t74.5 -58.5v64h111zM300 409q-63 0 -106 -46t-43 -114q0 -66 43.5 -111t105.5 -45q63 0 105 45t42 113q0 69 -41.5 113.5t-105.5 44.5z
M170 573v121h117v-121h-117zM351 573v121h117v-121h-117zM166 754v80h308v-80h-308z" />
    <glyph glyph-name="Adotmacron" unicode="&#x1e0;" horiz-adv-x="655" 
d="M-1 0l279 670h97l281 -670h-137l-71 173h-238l-74 -173h-137zM255 289h144l-72 206zM264 740v121h121v-121h-121zM169 921v86h328v-86h-328z" />
    <glyph glyph-name="adotmacron" unicode="&#x1e1;" horiz-adv-x="616" 
d="M561 503v-503h-111v62q-11 -14 -40 -34q-65 -45 -135 -45q-106 0 -175.5 77t-69.5 194q0 113 72 189.5t179 76.5q48 0 94.5 -22.5t74.5 -58.5v64h111zM300 409q-63 0 -106 -46t-43 -114q0 -66 43.5 -111t105.5 -45q63 0 105 45t42 113q0 69 -41.5 113.5t-105.5 44.5z
M259 573v121h117v-121h-117zM163 754v80h309v-80h-309z" />
    <glyph glyph-name="AEmacron" unicode="&#x1e2;" horiz-adv-x="768" 
d="M-23 0l443 670h309v-116h-200v-163h190v-116h-190v-159h200v-116h-324v173h-178l-104 -173h-146zM301 289h104v177zM315 753v86h328v-86h-328z" />
    <glyph glyph-name="aemacron" unicode="&#x1e3;" horiz-adv-x="988" 
d="M810 159h131q-22 -73 -93.5 -124.5t-147.5 -51.5q-96 0 -145 67v-50h-111v50q-54 -67 -152 -67q-108 0 -185 79.5t-77 189.5t77.5 189t186.5 79q87 0 150 -63v46h111v-46q59 63 150 63q103 0 178.5 -77t75.5 -182q0 -26 -8 -63h-390q15 -47 51.5 -75.5t82.5 -28.5
q70 0 115 65zM296 409q-59 0 -102 -45.5t-43 -107.5q0 -67 42 -114.5t102 -47.5q61 0 103.5 46t42.5 113q0 65 -42.5 110.5t-102.5 45.5zM559 295h275q-13 45 -33 68q-40 46 -103 46q-62 0 -105 -47q-21 -23 -34 -67zM346 587v80h308v-80h-308z" />
    <glyph glyph-name="Gcaron" unicode="&#x1e6;" horiz-adv-x="777" 
d="M310 225v116h437q0 -119 -64 -207q-49 -68 -127 -107.5t-164 -39.5q-149 0 -254.5 101.5t-105.5 246.5q0 143 105 245.5t252 102.5q107 0 200 -60t125 -149h-148q-64 93 -180 93q-100 0 -165 -69t-65 -165q0 -97 68.5 -163.5t168.5 -66.5q64 0 116.5 33t81.5 89h-281z
M215 859h131l51 -58l45 58h131l-121 -125h-107z" />
    <glyph glyph-name="gcaron" unicode="&#x1e7;" horiz-adv-x="621" 
d="M455 503h111v-411q0 -125 -60 -197q-82 -99 -215 -99q-86 0 -154.5 45t-98.5 121h137q48 -56 123 -56q65 0 108.5 44t47.5 114q-68 -81 -166 -81q-106 0 -182 80t-76 193q0 109 75.5 186.5t181.5 77.5q107 0 168 -79v62zM297 409q-61 0 -103.5 -45t-42.5 -110
q0 -68 43.5 -114.5t106.5 -46.5q59 0 101.5 46t42.5 110q0 67 -43 113.5t-105 46.5zM484 702l-117 -132h-109l-115 132h121l49 -65l50 65h121z" />
    <glyph glyph-name="Kcaron" unicode="&#x1e8;" horiz-adv-x="537" 
d="M62 0v670h124v-290l211 290h146l-253 -329l253 -341h-146l-211 294v-294h-124zM96 859h131l51 -58l45 58h131l-121 -125h-107z" />
    <glyph glyph-name="kcaron" unicode="&#x1e9;" horiz-adv-x="494" 
d="M55 0v670h121v-404l162 237h139l-181 -246l204 -257h-151l-173 235v-235h-121zM-64 859h131l51 -58l45 58h132l-121 -125h-108z" />
    <glyph glyph-name="jcaron" unicode="&#x1f0;" horiz-adv-x="231" 
d="M55 503h121v-482q0 -84 -47 -136t-124 -53v117q30 5 38 15q12 16 12 60v479zM291 702l-118 -132h-108l-116 132h121l49 -65l50 65h122z" />
    <glyph glyph-name="Gacute" unicode="&#x1f4;" horiz-adv-x="777" 
d="M310 225v116h437q0 -119 -64 -207q-49 -68 -127 -107.5t-164 -39.5q-149 0 -254.5 101.5t-105.5 246.5q0 143 105 245.5t252 102.5q107 0 200 -60t125 -149h-148q-64 93 -180 93q-100 0 -165 -69t-65 -165q0 -97 68.5 -163.5t168.5 -66.5q64 0 116.5 33t81.5 89h-281z
M381 717l-44 80l204 121l47 -92z" />
    <glyph glyph-name="gacute" unicode="&#x1f5;" horiz-adv-x="621" 
d="M455 503h111v-411q0 -125 -60 -197q-82 -99 -215 -99q-86 0 -154.5 45t-98.5 121h137q48 -56 123 -56q65 0 108.5 44t47.5 114q-68 -81 -166 -81q-106 0 -182 80t-76 193q0 109 75.5 186.5t181.5 77.5q107 0 168 -79v62zM297 409q-61 0 -103.5 -45t-42.5 -110
q0 -68 43.5 -114.5t106.5 -46.5q59 0 101.5 46t42.5 110q0 67 -43 113.5t-105 46.5zM287 550l-52 66l173 145l57 -78z" />
    <glyph glyph-name="Ngrave" unicode="&#x1f8;" horiz-adv-x="668" 
d="M62 0v670h141l279 -488v488h124v-670h-139l-281 487v-487h-124zM359 717l-207 109l47 92l204 -121z" />
    <glyph glyph-name="ngrave" unicode="&#x1f9;" horiz-adv-x="554" 
d="M55 0v503h112v-44q62 61 137 61q97 0 155 -75q43 -56 43 -173v-272h-121v248q0 92 -30 128q-28 33 -71 33q-57 0 -84 -47q-20 -34 -20 -123v-239h-121zM295 550l-179 133l57 78l174 -145z" />
    <glyph glyph-name="Aringacute" unicode="&#x1fa;" horiz-adv-x="655" 
d="M-1 0l279 670h97l281 -670h-137l-71 173h-238l-74 -173h-137zM255 289h144l-72 206zM331 923q43 0 73.5 -30t30.5 -73t-30.5 -73t-73.5 -30t-73.5 30.5t-30.5 73.5q0 42 30.5 72t73.5 30zM331 861q-16 0 -28 -12t-12 -28q0 -17 12 -29.5t28 -12.5t28 12t12 29t-12 29
t-28 12zM324 952l-44 80l204 121l47 -92z" />
    <glyph glyph-name="aringacute" unicode="&#x1fb;" horiz-adv-x="616" 
d="M561 503v-503h-111v62q-11 -14 -40 -34q-65 -45 -135 -45q-106 0 -175.5 77t-69.5 194q0 113 72 189.5t179 76.5q48 0 94.5 -22.5t74.5 -58.5v64h111zM300 409q-63 0 -106 -46t-43 -114q0 -66 43.5 -111t105.5 -45q63 0 105 45t42 113q0 69 -41.5 113.5t-105.5 44.5z
M319 756q41 0 71 -29.5t30 -70.5t-30 -70.5t-71 -29.5q-42 0 -71.5 29.5t-29.5 71.5q0 40 30 69.5t71 29.5zM319 698q-16 0 -28.5 -12t-12.5 -29q0 -18 12 -30.5t29 -12.5t29 12.5t12 29.5t-12 29.5t-29 12.5zM314 782l-52 66l174 145l57 -78z" />
    <glyph glyph-name="AEacute" unicode="&#x1fc;" horiz-adv-x="768" 
d="M-23 0l443 670h309v-116h-200v-163h190v-116h-190v-159h200v-116h-324v173h-178l-104 -173h-146zM301 289h104v177zM462 717l-44 80l204 121l47 -92z" />
    <glyph glyph-name="aeacute" unicode="&#x1fd;" horiz-adv-x="988" 
d="M810 159h131q-22 -73 -93.5 -124.5t-147.5 -51.5q-96 0 -145 67v-50h-111v50q-54 -67 -152 -67q-108 0 -185 79.5t-77 189.5t77.5 189t186.5 79q87 0 150 -63v46h111v-46q59 63 150 63q103 0 178.5 -77t75.5 -182q0 -26 -8 -63h-390q15 -47 51.5 -75.5t82.5 -28.5
q70 0 115 65zM296 409q-59 0 -102 -45.5t-43 -107.5q0 -67 42 -114.5t102 -47.5q61 0 103.5 46t42.5 113q0 65 -42.5 110.5t-102.5 45.5zM559 295h275q-13 45 -33 68q-40 46 -103 46q-62 0 -105 -47q-21 -23 -34 -67zM488 550l-52 66l174 145l57 -78z" />
    <glyph glyph-name="Oslashacute" unicode="&#x1fe;" horiz-adv-x="763" 
d="M689 677l-65 -87q64 -78 86.5 -131t22.5 -123q0 -145 -103 -247t-250 -102q-81 0 -150 36l-63 -87l-80 62l60 82q-53 42 -84 110.5t-31 145.5q0 142 102.5 244.5t244.5 102.5q71 0 162 -36l68 92zM553 487l-255 -368q44 -16 84 -16q94 0 160.5 68t66.5 163q0 91 -56 153z
M216 180l255 366q-38 21 -86 21q-95 0 -162 -67.5t-67 -163.5t60 -156zM370 717l-43 80l204 121l46 -92z" />
    <glyph glyph-name="oslashacute" unicode="&#x1ff;" horiz-adv-x="595" 
d="M521 508l-41 -62q85 -69 85 -196q0 -111 -79 -189t-191 -78q-57 0 -112 27l-47 -59l-68 50l42 60q-80 73 -80 192q0 111 80 189t193 78q59 0 106 -26l41 62zM414 348l-167 -244q29 -10 51 -10q61 0 103.5 45t42.5 110q0 47 -30 99zM180 158l163 241q-20 10 -41 10
q-63 0 -107 -46t-44 -113q0 -54 29 -92zM300 550l-52 66l174 145l57 -78z" />
    <glyph glyph-name="Scommaaccent" unicode="&#x218;" horiz-adv-x="485" 
d="M17 192h130q1 -41 26 -65.5t66 -24.5q39 0 64.5 23.5t25.5 60.5q0 36 -20.5 58.5t-70.5 40.5q-72 26 -96 38t-45 33q-56 55 -56 137q0 78 58 134t139 56q95 0 155 -73q40 -49 43 -117h-128q-6 74 -74 74q-69 0 -69 -68q0 -32 26 -53q22 -18 86 -40q78 -28 115 -62
q61 -57 61 -141q0 -90 -61 -150q-67 -66 -156 -66q-111 0 -175 82q-40 51 -44 123zM181 -143v90h109v-96q0 -43 -29 -67.5t-79 -24.5v51q48 6 48 35q0 8 -1 12h-48z" />
    <glyph glyph-name="scommaaccent" unicode="&#x219;" horiz-adv-x="406" 
d="M14 158h123q17 -65 66 -65q23 0 38.5 14.5t15.5 36.5t-17.5 36t-67.5 30q-66 21 -94 47q-46 42 -46 107t49 110.5t119 45.5q78 0 127 -58q36 -42 37 -96h-118q-8 43 -47 43q-20 0 -33.5 -12t-13.5 -31q0 -30 52 -46q90 -28 117 -47q57 -41 57 -114t-54 -124.5t-130 -51.5
q-94 0 -146 71q-27 38 -34 104zM138 -143v90h109v-96q0 -43 -29 -67.5t-79 -24.5v51q48 6 48 35q0 8 -1 12h-48z" />
    <glyph glyph-name="Tcommaaccent" unicode="&#x162;" horiz-adv-x="391" 
d="M133 0v554h-124v116h372v-116h-124v-554h-124zM141 -143v90h108v-96q0 -43 -29 -67.5t-79 -24.5v51q48 7 48 35q0 8 -1 12h-47z" />
    <glyph glyph-name="tcommaaccent" unicode="&#x163;" horiz-adv-x="278" 
d="M67 0v392h-59v111h59v167h121v-167h72v-111h-72v-392h-121zM73 -143v90h108v-96q0 -43 -29 -67.5t-79 -24.5v51q48 6 48 35q0 8 -1 12h-47z" />
    <glyph glyph-name="Hcaron" unicode="&#x21e;" horiz-adv-x="611" 
d="M62 0v670h124v-273h240v273h124v-670h-124v281h-240v-281h-124zM126 859h131l51 -58l45 58h131l-121 -125h-107z" />
    <glyph glyph-name="hcaron" unicode="&#x21f;" horiz-adv-x="552" 
d="M55 0v670h121v-202q55 52 130 52q44 0 88 -22.5t70 -59.5q37 -51 37 -154v-284h-121v257q0 152 -102 152q-57 0 -84 -50q-18 -34 -18 -104v-255h-121zM-66 859h131l51 -58l45 58h132l-121 -125h-108z" />
    <glyph glyph-name="Adotaccent" unicode="&#x226;" horiz-adv-x="655" 
d="M-1 0l279 670h97l281 -670h-137l-71 173h-238l-74 -173h-137zM255 289h144l-72 206zM264 740v121h121v-121h-121z" />
    <glyph glyph-name="adotaccent" unicode="&#x227;" horiz-adv-x="616" 
d="M561 503v-503h-111v62q-11 -14 -40 -34q-65 -45 -135 -45q-106 0 -175.5 77t-69.5 194q0 113 72 189.5t179 76.5q48 0 94.5 -22.5t74.5 -58.5v64h111zM300 409q-63 0 -106 -46t-43 -114q0 -66 43.5 -111t105.5 -45q63 0 105 45t42 113q0 69 -41.5 113.5t-105.5 44.5z
M259 573v121h117v-121h-117z" />
    <glyph glyph-name="Odieresismacron" unicode="&#x22a;" horiz-adv-x="763" 
d="M383 683q145 0 247.5 -102t102.5 -246t-102.5 -246t-247.5 -102q-147 0 -249 102t-102 250q0 140 103.5 242t247.5 102zM383 567q-93 0 -160 -68t-67 -162q0 -98 66.5 -166t161.5 -68q93 0 159 68t66 164t-66 164t-160 68zM231 740v121h121v-121h-121zM419 740v121h121
v-121h-121zM223 921v86h329v-86h-329z" />
    <glyph glyph-name="odieresismacron" unicode="&#x22b;" horiz-adv-x="595" 
d="M299 520q111 0 188.5 -78t77.5 -190t-78 -190.5t-191 -78.5q-110 0 -188 80t-78 193q0 107 80 185.5t189 78.5zM298 409q-59 0 -103 -46t-44 -110q0 -67 42.5 -113t104.5 -46t104 45t42 111q0 65 -43 112t-103 47zM155 573v121h117v-121h-117zM336 573v121h117v-121h-117
zM149 754v80h309v-80h-309z" />
    <glyph glyph-name="Otildemacron" unicode="&#x22c;" horiz-adv-x="763" 
d="M383 683q145 0 247.5 -102t102.5 -246t-102.5 -246t-247.5 -102q-147 0 -249 102t-102 250q0 140 103.5 242t247.5 102zM383 567q-93 0 -160 -68t-67 -162q0 -98 66.5 -166t161.5 -68q93 0 159 68t66 164t-66 164t-160 68zM269 729l-40 79q40 42 98 42q31 0 72 -14
q35 -12 58 -12q41 0 73 32l39 -75q-46 -48 -98 -48q-22 0 -92 21q-27 8 -38 8q-36 0 -72 -33zM234 921v86h329v-86h-329z" />
    <glyph glyph-name="otildemacron" unicode="&#x22d;" horiz-adv-x="595" 
d="M299 520q111 0 188.5 -78t77.5 -190t-78 -190.5t-191 -78.5q-110 0 -188 80t-78 193q0 107 80 185.5t189 78.5zM298 409q-59 0 -103 -46t-44 -110q0 -67 42.5 -113t104.5 -46t104 45t42 111q0 65 -43 112t-103 47zM196 577l-40 71q42 39 88 39q38 0 74 -12q27 -9 57 -9
q37 0 65 27l39 -73q-35 -41 -96 -41q-16 0 -84 17q-32 8 -45 8q-32 0 -58 -27zM160 754v80h308v-80h-308z" />
    <glyph glyph-name="Odotaccent" unicode="&#x22e;" horiz-adv-x="763" 
d="M383 683q145 0 247.5 -102t102.5 -246t-102.5 -246t-247.5 -102q-147 0 -249 102t-102 250q0 140 103.5 242t247.5 102zM383 567q-93 0 -160 -68t-67 -162q0 -98 66.5 -166t161.5 -68q93 0 159 68t66 164t-66 164t-160 68zM325 740v121h121v-121h-121z" />
    <glyph glyph-name="odotaccent" unicode="&#x22f;" horiz-adv-x="595" 
d="M299 520q111 0 188.5 -78t77.5 -190t-78 -190.5t-191 -78.5q-110 0 -188 80t-78 193q0 107 80 185.5t189 78.5zM298 409q-59 0 -103 -46t-44 -110q0 -67 42.5 -113t104.5 -46t104 45t42 111q0 65 -43 112t-103 47zM241 573v121h117v-121h-117z" />
    <glyph glyph-name="Ymacron" unicode="&#x232;" horiz-adv-x="552" 
d="M213 0v247l-220 423h136l146 -308l146 308h137l-221 -423v-247h-124zM114 753v86h329v-86h-329z" />
    <glyph glyph-name="ymacron" unicode="&#x233;" horiz-adv-x="502" 
d="M87 -168l93 215l-184 456h138l114 -323l121 323h137l-289 -671h-130zM103 587v80h308v-80h-308z" />
    <glyph glyph-name="commabelow" unicode="&#x326;" 
d="M197 -143v90h109v-96q0 -43 -29 -67.5t-79 -24.5v51q48 6 48 35q0 8 -1 12h-48z" />
    <glyph glyph-name="Gamma" unicode="&#x393;" horiz-adv-x="582" 
d="M70 0v670h500v-114h-367v-556h-133z" />
    <glyph glyph-name="Theta" unicode="&#x398;" horiz-adv-x="724" 
d="M484 400v-108h-245v108h245zM371 686q143 0 230 -100t87 -263q0 -149 -91 -243.5t-233 -94.5q-161 0 -254 114q-74 91 -74 236q0 160 91 255.5t244 95.5zM363 578q-89 0 -140 -65t-51 -179q0 -112 51.5 -176.5t140.5 -64.5q86 0 137 62t51 167q0 118 -51 187t-138 69z
" />
    <glyph glyph-name="Theta" unicode="&#x472;" horiz-adv-x="724" 
d="M484 400v-108h-245v108h245zM371 686q143 0 230 -100t87 -263q0 -149 -91 -243.5t-233 -94.5q-161 0 -254 114q-74 91 -74 236q0 160 91 255.5t244 95.5zM363 578q-89 0 -140 -65t-51 -179q0 -112 51.5 -176.5t140.5 -64.5q86 0 137 62t51 167q0 118 -51 187t-138 69z
" />
    <glyph glyph-name="Sigma" unicode="&#x3a3;" horiz-adv-x="567" 
d="M35 0v107l217 233l-214 220v110h495v-108h-329l211 -222l-218 -232h351v-108h-513z" />
    <glyph glyph-name="Phi" unicode="&#x3a6;" horiz-adv-x="712" 
d="M296 -12v81q-83 8 -133 36q-59 32 -92.5 93.5t-33.5 136.5t33.5 136.5t92.5 93.5q53 29 133 36v82h121v-82q83 -7 139 -38.5t88 -92t32 -135.5t-32 -135.5t-89 -92.5q-53 -30 -138 -38v-81h-121zM417 495v-321q129 23 129 161q0 69 -34.5 111.5t-94.5 48.5zM296 174v321
q-61 -10 -95 -51.5t-34 -107.5q0 -139 129 -162z" />
    <glyph glyph-name="alpha" unicode="&#x3b1;" horiz-adv-x="663" 
d="M614 483l-103 -234l120 -249h-137l-47 132q-46 -71 -71 -95q-55 -52 -126 -52q-89 0 -150.5 75.5t-61.5 184.5q0 108 63 180.5t157 72.5q114 0 187 -129l39 114h130zM406 249q-19 59 -37 92q-37 67 -93 67q-50 0 -82 -46.5t-32 -120.5q0 -72 31.5 -119t80.5 -47
q56 0 92 68q7 14 40 106z" />
    <glyph glyph-name="beta" unicode="&#x3b2;" horiz-adv-x="566" 
d="M63 -174v619q0 115 35 165q53 75 180 75q95 0 154 -48.5t59 -127.5q0 -88 -87 -131q52 -16 77 -42q50 -52 50 -135q0 -90 -60.5 -150.5t-150.5 -60.5q-80 0 -136 48v-212h-121zM184 458v-334q51 -44 105 -44q51 0 84.5 36.5t33.5 91.5q0 116 -132 116h-10v98q34 1 53 9
q49 20 49 82q0 38 -23.5 60t-64.5 22q-52 0 -76 -34q-19 -27 -19 -103z" />
    <glyph glyph-name="delta" unicode="&#x3b4;" horiz-adv-x="561" 
d="M470 670v-84h-194l98 -88q72 -65 87 -81t29 -41q35 -64 35 -142q0 -113 -66.5 -181t-175.5 -68q-112 0 -179.5 69t-67.5 182q0 144 96 204q33 20 87 29l-126 117v84h377zM281 383q-54 0 -87.5 -43.5t-33.5 -114.5q0 -68 33 -109t89 -41q55 0 87 39t32 106q0 77 -31.5 120
t-88.5 43z" />
    <glyph glyph-name="epsilon" unicode="&#x3b5;" horiz-adv-x="476" 
d="M281 295v-90q-44 0 -66 -5q-52 -12 -52 -61q0 -28 22.5 -46t58.5 -18q83 0 85 82h128q-13 -172 -210 -172q-104 0 -156 44.5t-52 110.5q0 88 93 118q-79 39 -79 108q0 61 53 99.5t139 38.5q100 0 153 -54q40 -41 40 -112h-124q0 76 -70 76q-29 0 -47.5 -16.5t-18.5 -42.5
q0 -47 58 -57q18 -3 45 -3z" />
    <glyph glyph-name="eta" unicode="&#x3b7;" horiz-adv-x="573" 
d="M184 482v-71q12 39 54 63t97 24q92 0 140 -56q36 -42 36 -141v-474h-121v454q0 61 -15 87q-23 39 -78 39q-62 0 -91 -48q-22 -37 -22 -106v-253h-121v482h121z" />
    <glyph glyph-name="sigma" unicode="&#x3c3;" horiz-adv-x="578" 
d="M566 483v-108h-92q54 -59 54 -144q0 -109 -68 -177.5t-177 -68.5q-111 0 -179 70t-68 185t68 186.5t177 71.5q44 0 90 -15h195zM281 408q-56 0 -88.5 -44.5t-32.5 -122.5q0 -77 33 -121.5t90 -44.5t89 43t32 120q0 170 -123 170z" />
    <glyph glyph-name="tau" unicode="&#x3c4;" horiz-adv-x="430" 
d="M430 483v-108h-152v-375h-121v375h-157v108h430z" />
    <glyph glyph-name="phi" unicode="&#x3c6;" horiz-adv-x="670" 
d="M276 -175v160q-106 8 -163 63q-77 74 -77 195q0 105 56 169q42 48 129 78v-112q-61 -43 -61 -136q0 -130 116 -149v406q50 2 68 2q127 0 200 -60q91 -75 91 -202q0 -141 -107 -213q-51 -34 -131 -41v-160h-121zM397 392v-299q114 14 114 152q0 64 -30.5 103t-83.5 44z
" />
    <glyph glyph-name="psi" unicode="&#x3c8;" horiz-adv-x="673" 
d="M277 -174v159q-107 12 -156 53q-40 33 -56 78t-16 123v243h121v-237q0 -83 22.5 -115t84.5 -39v391h121v-391q61 9 83 41t22 113v237h121v-243q0 -78 -16 -123t-55 -78q-51 -42 -155 -53v-159h-121z" />
    <glyph glyph-name="psi" unicode="&#x471;" horiz-adv-x="673" 
d="M277 -174v159q-107 12 -156 53q-40 33 -56 78t-16 123v243h121v-237q0 -83 22.5 -115t84.5 -39v391h121v-391q61 9 83 41t22 113v237h121v-243q0 -78 -16 -123t-55 -78q-51 -42 -155 -53v-159h-121z" />
    <glyph glyph-name="Bdotaccent" unicode="&#x1e02;" horiz-adv-x="527" 
d="M62 0v670h132q66 0 95 -4q53 -7 89 -30t58 -62t22 -80q0 -85 -75 -129q115 -40 115 -166q0 -104 -88 -161q-59 -38 -169 -38h-179zM186 116h63q125 0 125 87q0 90 -123 90h-65v-177zM186 409h41q53 0 76 14q31 19 31 58q0 73 -96 73h-52v-145zM190 740v121h121v-121h-121
z" />
    <glyph glyph-name="bdotaccent" unicode="&#x1e03;" horiz-adv-x="615" 
d="M55 0v670h121v-213q60 63 157 63q105 0 179 -78.5t74 -190.5q0 -113 -72 -190.5t-178 -77.5q-99 0 -170 77v-60h-111zM318 409q-62 0 -105.5 -45t-43.5 -110q0 -68 43.5 -114t108.5 -46q62 0 103 45t41 113q0 67 -42 112t-105 45zM269 573v121h117v-121h-117z" />
    <glyph glyph-name="Ccedillaacute" unicode="&#x1e08;" horiz-adv-x="711" 
d="M375 -14l-18 -38q18 7 29 7q35 0 62 -29t27 -67q0 -40 -28.5 -69t-68.5 -29t-66.5 23t-30.5 62h55q11 -31 41 -31q17 0 28 12.5t11 31.5q0 39 -37 39q-23 0 -38 -24l-52 26l39 90q-95 23 -144 58q-72 53 -112 128.5t-40 160.5q0 143 102 244.5t245 101.5q124 0 220 -78
q63 -51 96 -126h-141q-76 88 -180 88q-88 0 -153 -69t-65 -162q0 -94 66.5 -164t156.5 -70t168 84h144q-35 -89 -125 -145.5t-191 -54.5zM371 717l-44 80l204 121l47 -92z" />
    <glyph glyph-name="ccedillaacute" unicode="&#x1e09;" horiz-adv-x="566" 
d="M289 -17l-16 -36q17 7 27 7q34 0 59.5 -27t25.5 -64q0 -38 -26 -64.5t-64 -26.5q-35 0 -61.5 21.5t-30.5 55.5h54q12 -27 36 -27q16 0 26.5 12t10.5 29q0 16 -10.5 27t-24.5 11q-19 0 -36 -22l-49 24l38 85q-99 22 -158.5 95t-59.5 171q0 110 78.5 188t188.5 78
q104 0 183 -73q47 -44 69 -111h-136q-42 74 -116 74q-64 0 -105 -45t-41 -113t43 -113t108 -45q68 0 111 70h136q-34 -93 -107 -139q-67 -42 -141 -42h-12zM290 550l-53 66l174 145l57 -78z" />
    <glyph glyph-name="Ddotaccent" unicode="&#x1e0a;" horiz-adv-x="631" 
d="M62 0v670h152q151 0 237 -51q68 -40 108.5 -118t40.5 -168q0 -95 -45.5 -175t-121.5 -118q-80 -40 -216 -40h-155zM186 116h26q108 0 164 33q47 28 73.5 76.5t26.5 106.5q0 60 -28.5 111.5t-76.5 79.5q-54 31 -161 31h-24v-438zM238 740v121h121v-121h-121z" />
    <glyph glyph-name="ddotaccent" unicode="&#x1e0b;" horiz-adv-x="615" 
d="M559 670v-670h-110v61q-72 -78 -173 -78q-100 0 -173.5 79.5t-73.5 188.5q0 110 74.5 189.5t178.5 79.5q94 0 156 -62v212h121zM298 409q-59 0 -103.5 -46.5t-44.5 -109.5q0 -66 43.5 -112.5t105.5 -46.5q61 0 105 46.5t44 110.5t-44.5 111t-105.5 47zM233 573v121h117
v-121h-117z" />
    <glyph glyph-name="Dcommaaccent" unicode="&#x1e10;" horiz-adv-x="631" 
d="M62 0v670h152q151 0 237 -51q68 -40 108.5 -118t40.5 -168q0 -95 -45.5 -175t-121.5 -118q-80 -40 -216 -40h-155zM186 116h26q108 0 164 33q47 28 73.5 76.5t26.5 106.5q0 60 -28.5 111.5t-76.5 79.5q-54 31 -161 31h-24v-438zM238 -143v90h109v-96q0 -43 -29 -67.5
t-79 -24.5v51q48 6 48 35q0 8 -1 12h-48z" />
    <glyph glyph-name="dcommaaccent" unicode="&#x1e11;" horiz-adv-x="615" 
d="M559 670v-670h-110v61q-72 -78 -173 -78q-100 0 -173.5 79.5t-73.5 188.5q0 110 74.5 189.5t178.5 79.5q94 0 156 -62v212h121zM298 409q-59 0 -103.5 -46.5t-44.5 -109.5q0 -66 43.5 -112.5t105.5 -46.5q61 0 105 46.5t44 110.5t-44.5 111t-105.5 47zM245 -143v90h109
v-96q0 -43 -29 -67.5t-79 -24.5v51q48 6 48 35q0 8 -1 12h-48z" />
    <glyph glyph-name="Emacrongrave" unicode="&#x1e14;" horiz-adv-x="462" 
d="M62 0v670h361v-116h-237v-163h227v-116h-227v-159h237v-116h-361zM81 753v86h328v-86h-328zM249 885l-207 109l47 92l204 -121z" />
    <glyph glyph-name="emacrongrave" unicode="&#x1e15;" horiz-adv-x="585" 
d="M548 198h-391q12 -45 50.5 -74.5t84.5 -29.5q72 0 112 65h133q-23 -76 -91.5 -126t-150.5 -50q-110 0 -187.5 78t-77.5 190q0 113 77.5 192.5t187.5 79.5q106 0 183 -78t77 -186q0 -22 -7 -61zM154 295h283q-13 54 -51 85.5t-90 31.5t-91 -32t-51 -85zM152 587v80h308
v-80h-308zM303 717l-178 134l57 77l174 -144z" />
    <glyph glyph-name="Emacronacute" unicode="&#x1e16;" horiz-adv-x="462" 
d="M62 0v670h361v-116h-237v-163h227v-116h-227v-159h237v-116h-361zM81 753v86h328v-86h-328zM236 885l-44 80l204 121l47 -92z" />
    <glyph glyph-name="emacronacute" unicode="&#x1e17;" horiz-adv-x="585" 
d="M548 198h-391q12 -45 50.5 -74.5t84.5 -29.5q72 0 112 65h133q-23 -76 -91.5 -126t-150.5 -50q-110 0 -187.5 78t-77.5 190q0 113 77.5 192.5t187.5 79.5q106 0 183 -78t77 -186q0 -22 -7 -61zM154 295h283q-13 54 -51 85.5t-90 31.5t-91 -32t-51 -85zM152 587v80h308
v-80h-308zM300 717l-52 67l174 144l57 -77z" />
    <glyph glyph-name="Fdotaccent" unicode="&#x1e1e;" horiz-adv-x="428" 
d="M62 0v670h341v-116h-217v-163h207v-116h-207v-275h-124zM176 740v121h121v-121h-121z" />
    <glyph glyph-name="fdotaccent" unicode="&#x1e1f;" horiz-adv-x="282" 
d="M74 0v392h-43v111h43q7 77 41 120q48 60 123 60q21 0 34 -1v-117q-44 0 -59 -12t-18 -50h70v-111h-70v-392h-121zM86 740v121h121v-121h-121z" />
    <glyph glyph-name="Gmacron" unicode="&#x1e20;" horiz-adv-x="777" 
d="M310 225v116h437q0 -119 -64 -207q-49 -68 -127 -107.5t-164 -39.5q-149 0 -254.5 101.5t-105.5 246.5q0 143 105 245.5t252 102.5q107 0 200 -60t125 -149h-148q-64 93 -180 93q-100 0 -165 -69t-65 -165q0 -97 68.5 -163.5t168.5 -66.5q64 0 116.5 33t81.5 89h-281z
M234 753v86h328v-86h-328z" />
    <glyph glyph-name="gmacron" unicode="&#x1e21;" horiz-adv-x="621" 
d="M455 503h111v-411q0 -125 -60 -197q-82 -99 -215 -99q-86 0 -154.5 45t-98.5 121h137q48 -56 123 -56q65 0 108.5 44t47.5 114q-68 -81 -166 -81q-106 0 -182 80t-76 193q0 109 75.5 186.5t181.5 77.5q107 0 168 -79v62zM297 409q-61 0 -103.5 -45t-42.5 -110
q0 -68 43.5 -114.5t106.5 -46.5q59 0 101.5 46t42.5 110q0 67 -43 113.5t-105 46.5zM150 587v80h308v-80h-308z" />
    <glyph glyph-name="Hdotaccent" unicode="&#x1e22;" horiz-adv-x="611" 
d="M62 0v670h124v-273h240v273h124v-670h-124v281h-240v-281h-124zM243 740v121h121v-121h-121z" />
    <glyph glyph-name="hdotaccent" unicode="&#x1e23;" horiz-adv-x="552" 
d="M55 0v670h121v-202q55 52 130 52q44 0 88 -22.5t70 -59.5q37 -51 37 -154v-284h-121v257q0 152 -102 152q-56 0 -84 -50q-18 -32 -18 -104v-255h-121zM246 573v121h117v-121h-117z" />
    <glyph glyph-name="Hdieresis" unicode="&#x1e26;" horiz-adv-x="611" 
d="M62 0v670h124v-273h240v273h124v-670h-124v281h-240v-281h-124zM149 740v121h121v-121h-121zM336 740v121h121v-121h-121z" />
    <glyph glyph-name="hdieresis" unicode="&#x1e27;" horiz-adv-x="552" 
d="M55 0v670h121v-202q55 52 130 52q44 0 88 -22.5t70 -59.5q37 -51 37 -154v-284h-121v257q0 152 -102 152q-56 0 -84 -50q-18 -32 -18 -104v-255h-121zM-32 740v121h121v-121h-121zM156 740v121h121v-121h-121z" />
    <glyph glyph-name="Idieresisacute" unicode="&#x1e2e;" horiz-adv-x="247" 
d="M62 0v670h124v-670h-124zM-12 740v121h114v-121h-114zM152 740v121h114v-121h-114zM121 885l-44 80l204 121l47 -92z" />
    <glyph glyph-name="idieresisacute" unicode="&#x1e2f;" horiz-adv-x="231" 
d="M55 0v503h121v-503h-121zM-12 573v121h107v-121h-107zM142 573v121h107v-121h-107zM116 717l-52 67l173 144l57 -77z" />
    <glyph glyph-name="Kacute" unicode="&#x1e30;" horiz-adv-x="537" 
d="M62 0v670h124v-290l211 290h146l-253 -329l253 -341h-146l-211 294v-294h-124zM259 717l-44 80l204 121l47 -92z" />
    <glyph glyph-name="kacute" unicode="&#x1e31;" horiz-adv-x="494" 
d="M55 0v670h121v-404l162 237h139l-181 -246l204 -257h-152l-172 235v-235h-121zM126 717l-44 80l204 121l47 -92z" />
    <glyph glyph-name="Macute" unicode="&#x1e3e;" horiz-adv-x="824" 
d="M62 0v670h172l179 -508l177 508h172v-670h-124v502l-174 -502h-104l-174 502v-502h-124zM419 717l-44 80l204 121l47 -92z" />
    <glyph glyph-name="macute" unicode="&#x1e3f;" horiz-adv-x="861" 
d="M55 0v503h111v-43q45 60 133 60q92 0 145 -79q55 79 162 79q111 0 168 -82q36 -52 36 -145v-293h-121v278q0 70 -25 99q-28 32 -70 32q-56 0 -84 -49q-18 -32 -18 -109v-251h-121v278q0 64 -26 97.5t-74 33.5q-59 0 -81 -53q-14 -33 -14 -105v-251h-121zM438 550l-53 66
l174 145l57 -78z" />
    <glyph glyph-name="Mdotaccent" unicode="&#x1e40;" horiz-adv-x="824" 
d="M62 0v670h172l179 -508l177 508h172v-670h-124v502l-174 -502h-104l-174 502v-502h-124zM355 740v121h121v-121h-121z" />
    <glyph glyph-name="mdotaccent" unicode="&#x1e41;" horiz-adv-x="861" 
d="M55 0v503h111v-43q45 60 133 60q92 0 145 -79q55 79 162 79q111 0 168 -82q36 -52 36 -145v-293h-121v278q0 70 -25 99q-28 32 -70 32q-56 0 -84 -49q-18 -32 -18 -109v-251h-121v278q0 64 -26 97.5t-74 33.5q-59 0 -81 -53q-14 -33 -14 -105v-251h-121zM376 573v121h117
v-121h-117z" />
    <glyph glyph-name="Ndotaccent" unicode="&#x1e44;" horiz-adv-x="668" 
d="M62 0v670h141l279 -488v488h124v-670h-139l-281 487v-487h-124zM279 740v121h121v-121h-121z" />
    <glyph glyph-name="Otildeacute" unicode="&#x1e4c;" horiz-adv-x="763" 
d="M383 683q145 0 247.5 -102t102.5 -246t-102.5 -246t-247.5 -102q-147 0 -249 102t-102 250q0 140 103.5 242t247.5 102zM383 567q-93 0 -160 -68t-67 -162q0 -98 66.5 -166t161.5 -68q93 0 159 68t66 164t-66 164t-160 68zM269 729l-40 79q40 42 98 42q31 0 72 -14
q35 -12 58 -12q41 0 73 32l39 -75q-46 -48 -98 -48q-22 0 -92 21q-27 8 -38 8q-36 0 -72 -33zM387 885l-44 80l204 121l46 -92z" />
    <glyph glyph-name="otildeacute" unicode="&#x1e4d;" horiz-adv-x="595" 
d="M299 520q111 0 188.5 -78t77.5 -190t-78 -190.5t-191 -78.5q-110 0 -188 80t-78 193q0 107 80 185.5t189 78.5zM298 409q-59 0 -103 -46t-44 -110q0 -67 42.5 -113t104.5 -46t104 45t42 111q0 65 -43 112t-103 47zM196 577l-40 71q42 39 88 39q38 0 74 -12q27 -9 57 -9
q37 0 65 27l39 -73q-35 -41 -96 -41q-16 0 -84 17q-32 8 -45 8q-32 0 -58 -27zM308 717l-52 67l174 144l57 -77z" />
    <glyph glyph-name="Otildedieresis" unicode="&#x1e4e;" horiz-adv-x="763" 
d="M383 683q145 0 247.5 -102t102.5 -246t-102.5 -246t-247.5 -102q-147 0 -249 102t-102 250q0 140 103.5 242t247.5 102zM383 567q-93 0 -160 -68t-67 -162q0 -98 66.5 -166t161.5 -68q93 0 159 68t66 164t-66 164t-160 68zM269 729l-40 79q40 42 98 42q31 0 72 -14
q35 -12 58 -12q41 0 73 32l39 -75q-46 -48 -98 -48q-22 0 -92 21q-27 8 -38 8q-36 0 -72 -33zM242 908v121h121v-121h-121zM429 908v121h121v-121h-121z" />
    <glyph glyph-name="otildedieresis" unicode="&#x1e4f;" horiz-adv-x="595" 
d="M299 520q111 0 188.5 -78t77.5 -190t-78 -190.5t-191 -78.5q-110 0 -188 80t-78 193q0 107 80 185.5t189 78.5zM298 409q-59 0 -103 -46t-44 -110q0 -67 42.5 -113t104.5 -46t104 45t42 111q0 65 -43 112t-103 47zM196 577l-40 71q42 39 88 39q38 0 74 -12q27 -9 57 -9
q37 0 65 27l39 -73q-35 -41 -96 -41q-16 0 -84 17q-32 8 -45 8q-32 0 -58 -27zM164 740v121h117v-121h-117zM346 740v121h117v-121h-117z" />
    <glyph glyph-name="Omacrongrave" unicode="&#x1e50;" horiz-adv-x="763" 
d="M383 683q145 0 247.5 -102t102.5 -246t-102.5 -246t-247.5 -102q-147 0 -249 102t-102 250q0 140 103.5 242t247.5 102zM383 567q-93 0 -160 -68t-67 -162q0 -98 66.5 -166t161.5 -68q93 0 159 68t66 164t-66 164t-160 68zM221 753v86h329v-86h-329zM399 885l-206 109
l46 92l204 -121z" />
    <glyph glyph-name="omacrongrave" unicode="&#x1e51;" horiz-adv-x="595" 
d="M299 520q111 0 188.5 -78t77.5 -190t-78 -190.5t-191 -78.5q-110 0 -188 80t-78 193q0 107 80 185.5t189 78.5zM298 409q-59 0 -103 -46t-44 -110q0 -67 42.5 -113t104.5 -46t104 45t42 111q0 65 -43 112t-103 47zM153 587v80h309v-80h-309zM311 717l-179 134l57 77
l174 -144z" />
    <glyph glyph-name="Omacronacute" unicode="&#x1e52;" horiz-adv-x="763" 
d="M383 683q145 0 247.5 -102t102.5 -246t-102.5 -246t-247.5 -102q-147 0 -249 102t-102 250q0 140 103.5 242t247.5 102zM383 567q-93 0 -160 -68t-67 -162q0 -98 66.5 -166t161.5 -68q93 0 159 68t66 164t-66 164t-160 68zM221 753v86h329v-86h-329zM373 885l-44 80
l204 121l47 -92z" />
    <glyph glyph-name="omacronacute" unicode="&#x1e53;" horiz-adv-x="595" 
d="M299 520q111 0 188.5 -78t77.5 -190t-78 -190.5t-191 -78.5q-110 0 -188 80t-78 193q0 107 80 185.5t189 78.5zM298 409q-59 0 -103 -46t-44 -110q0 -67 42.5 -113t104.5 -46t104 45t42 111q0 65 -43 112t-103 47zM153 587v80h309v-80h-309zM300 717l-52 67l174 144
l57 -77z" />
    <glyph glyph-name="Pacute" unicode="&#x1e54;" horiz-adv-x="508" 
d="M62 0v670h169q61 0 88 -4q46 -6 81 -29q90 -58 90 -170q0 -117 -89 -179q-33 -23 -83 -29q-23 -3 -89 -3h-43v-256h-124zM186 372h40q56 0 82 9.5t42 33t16 51.5q0 61 -57 80q-24 8 -78 8h-45v-182zM246 717l-44 80l204 121l46 -92z" />
    <glyph glyph-name="pacute" unicode="&#x1e55;" horiz-adv-x="612" 
d="M55 -168v671h111v-59q61 76 165 76q107 0 179 -79t72 -187q0 -113 -73.5 -192t-178.5 -79q-48 0 -81.5 14t-72.5 50v-215h-121zM317 409q-62 0 -105 -45.5t-43 -110.5q0 -67 42 -113t104 -46q61 0 103.5 46t42.5 111q0 66 -42 112t-102 46zM305 550l-52 66l173 145
l57 -78z" />
    <glyph glyph-name="Pdotaccent" unicode="&#x1e56;" horiz-adv-x="508" 
d="M62 0v670h169q61 0 88 -4q46 -6 81 -29q90 -58 90 -170q0 -117 -89 -179q-33 -23 -83 -29q-23 -3 -89 -3h-43v-256h-124zM186 372h40q56 0 82 9.5t42 33t16 51.5q0 61 -57 80q-24 8 -78 8h-45v-182zM202 740v121h121v-121h-121z" />
    <glyph glyph-name="pdotaccent" unicode="&#x1e57;" horiz-adv-x="612" 
d="M55 -168v671h111v-59q61 76 165 76q107 0 179 -79t72 -187q0 -113 -73.5 -192t-178.5 -79q-48 0 -81.5 14t-72.5 50v-215h-121zM317 409q-62 0 -105 -45.5t-43 -110.5q0 -67 42 -113t104 -46q61 0 103.5 46t42.5 111q0 66 -42 112t-102 46zM268 573v121h117v-121h-117z
" />
    <glyph glyph-name="Rdotaccent" unicode="&#x1e58;" horiz-adv-x="542" 
d="M62 0v670h205q113 0 171 -51q71 -62 71 -156q0 -103 -70 -165q-38 -34 -105 -50l181 -248h-150l-179 256v-256h-124zM186 350h79q56 0 88 27.5t32 75.5q0 46 -32.5 73.5t-86.5 27.5h-80v-204zM202 740v121h121v-121h-121z" />
    <glyph glyph-name="rdotaccent" unicode="&#x1e59;" horiz-adv-x="293" 
d="M55 0v503h111v-45q27 36 50 49t59 13h10v-118q-46 -2 -73 -23q-36 -29 -36 -97v-282h-121zM60 573v121h117v-121h-117z" />
    <glyph glyph-name="Sdotaccent" unicode="&#x1e60;" horiz-adv-x="485" 
d="M17 192h130q1 -41 26 -65.5t66 -24.5q39 0 64.5 23.5t25.5 60.5q0 36 -20.5 58.5t-70.5 40.5q-72 26 -96 38t-45 33q-56 55 -56 137q0 78 58 134t139 56q95 0 155 -73q40 -49 43 -117h-128q-6 74 -74 74q-69 0 -69 -68q0 -32 26 -53q22 -18 86 -40q78 -28 115 -62
q61 -57 61 -141q0 -90 -61 -150q-67 -66 -156 -66q-111 0 -175 82q-40 51 -44 123zM177 740v121h121v-121h-121z" />
    <glyph glyph-name="sdotaccent" unicode="&#x1e61;" horiz-adv-x="406" 
d="M14 158h123q17 -65 66 -65q23 0 38.5 14.5t15.5 36.5t-17.5 36t-67.5 30q-66 21 -94 47q-46 42 -46 107t49 110.5t119 45.5q78 0 127 -58q36 -42 37 -96h-118q-8 43 -47 43q-20 0 -33.5 -12t-13.5 -31q0 -30 52 -46q90 -28 117 -47q57 -41 57 -114t-54 -124.5t-130 -51.5
q-94 0 -146 71q-27 38 -34 104zM140 573v121h117v-121h-117z" />
    <glyph glyph-name="Sacutedot" unicode="&#x1e64;" horiz-adv-x="485" 
d="M17 192h130q1 -41 26 -65.5t66 -24.5q39 0 64.5 23.5t25.5 60.5q0 36 -20.5 58.5t-70.5 40.5q-72 26 -96 38t-45 33q-56 55 -56 137q0 78 58 134t139 56q95 0 155 -73q40 -49 43 -117h-128q-6 74 -74 74q-69 0 -69 -68q0 -32 26 -53q22 -18 86 -40q78 -28 115 -62
q61 -57 61 -141q0 -90 -61 -150q-67 -66 -156 -66q-111 0 -175 82q-40 51 -44 123zM228 717l-52 65l151 129l57 -75zM180 921v121h121v-121h-121z" />
    <glyph glyph-name="sacutedot" unicode="&#x1e65;" horiz-adv-x="406" 
d="M14 158h123q17 -65 66 -65q23 0 38.5 14.5t15.5 36.5t-17.5 36t-67.5 30q-66 21 -94 47q-46 42 -46 107t49 110.5t119 45.5q78 0 127 -58q36 -42 37 -96h-118q-8 43 -47 43q-20 0 -33.5 -12t-13.5 -31q0 -30 52 -46q90 -28 117 -47q57 -41 57 -114t-54 -124.5t-130 -51.5
q-94 0 -146 71q-27 38 -34 104zM197 554l-53 48l135 159l61 -59zM143 754v121h117v-121h-117z" />
    <glyph glyph-name="Tdotaccent" unicode="&#x1e6a;" horiz-adv-x="391" 
d="M133 0v554h-124v116h372v-116h-124v-554h-124zM135 740v121h121v-121h-121z" />
    <glyph glyph-name="tdotaccent" unicode="&#x1e6b;" horiz-adv-x="278" 
d="M67 0v392h-59v111h59v167h121v-167h72v-111h-72v-392h-121zM71 740v121h121v-121h-121z" />
    <glyph glyph-name="utildeacute" unicode="&#x1e79;" horiz-adv-x="554" 
d="M379 503h121v-503h-111v50q-29 -37 -57.5 -52t-72.5 -15q-83 0 -145 56t-62 169v295h121v-257q0 -152 104 -152q102 0 102 152v257zM171 577l-40 71q42 39 88 39q37 0 74 -12q28 -9 57 -9q37 0 65 27l39 -73q-35 -41 -96 -41q-16 0 -84 17q-32 8 -45 8q-32 0 -58 -27z
M278 717l-52 67l174 144l57 -77z" />
    <glyph glyph-name="Vtilde" unicode="&#x1e7c;" horiz-adv-x="609" 
d="M254 0l-261 670h131l180 -510l181 510h130l-259 -670h-102zM184 729l-39 79q40 42 98 42q31 0 72 -14q35 -12 58 -12q41 0 72 32l40 -75q-46 -48 -98 -48q-22 0 -92 21q-27 8 -38 8q-36 0 -73 -33z" />
    <glyph glyph-name="vtilde" unicode="&#x1e7d;" horiz-adv-x="493" 
d="M199 0l-203 503h131l122 -334l116 334h132l-203 -503h-95zM133 577l-40 71q42 39 88 39q38 0 74 -12q27 -9 56 -9q38 0 66 27l38 -73q-35 -41 -96 -41q-15 0 -83 17q-32 8 -45 8q-32 0 -58 -27z" />
    <glyph glyph-name="Wgrave" unicode="&#x1e80;" horiz-adv-x="833" 
d="M208 0l-196 670h127l117 -468l116 468h90l114 -468l118 468h127l-195 -670h-99l-109 443l-112 -443h-98zM426 717l-207 109l46 92l204 -121z" />
    <glyph glyph-name="wgrave" unicode="&#x1e81;" horiz-adv-x="711" 
d="M184 0l-181 503h129l92 -307l84 307h96l82 -307l93 307h129l-184 -503h-74l-95 326l-97 -326h-74zM361 550l-179 133l57 78l174 -145z" />
    <glyph glyph-name="Wacute" unicode="&#x1e82;" horiz-adv-x="833" 
d="M208 0l-196 670h127l117 -468l116 468h90l114 -468l118 468h127l-195 -670h-99l-109 443l-112 -443h-98zM410 717l-44 80l204 121l47 -92z" />
    <glyph glyph-name="wacute" unicode="&#x1e83;" horiz-adv-x="711" 
d="M184 0l-181 503h129l92 -307l84 307h96l82 -307l93 307h129l-184 -503h-74l-95 326l-97 -326h-74zM355 550l-52 66l174 145l57 -78z" />
    <glyph glyph-name="Wdieresis" unicode="&#x1e84;" horiz-adv-x="833" 
d="M208 0l-196 670h127l117 -468l116 468h90l114 -468l118 468h127l-195 -670h-99l-109 443l-112 -443h-98zM266 740v121h121v-121h-121zM453 740v121h121v-121h-121z" />
    <glyph glyph-name="wdieresis" unicode="&#x1e85;" horiz-adv-x="711" 
d="M184 0l-181 503h129l92 -307l84 307h96l82 -307l93 307h129l-184 -503h-74l-95 326l-97 -326h-74zM209 573v121h117v-121h-117zM390 573v121h117v-121h-117z" />
    <glyph glyph-name="Wdotaccent" unicode="&#x1e86;" horiz-adv-x="833" 
d="M208 0l-196 670h127l117 -468l116 468h90l114 -468l118 468h127l-195 -670h-99l-109 443l-112 -443h-98zM359 740v121h121v-121h-121z" />
    <glyph glyph-name="wdotaccent" unicode="&#x1e87;" horiz-adv-x="711" 
d="M184 0l-181 503h129l92 -307l84 307h96l82 -307l93 307h129l-184 -503h-74l-95 326l-97 -326h-74zM299 573v121h117v-121h-117z" />
    <glyph glyph-name="Xdotaccent" unicode="&#x1e8a;" horiz-adv-x="595" 
d="M-7 0l231 334l-231 336h147l157 -234l161 234h144l-232 -336l232 -334h-144l-161 232l-157 -232h-147zM245 740v121h121v-121h-121z" />
    <glyph glyph-name="xdotaccent" unicode="&#x1e8b;" horiz-adv-x="487" 
d="M-7 0l179 260l-156 243h135l92 -152l92 152h135l-156 -243l181 -260h-144l-108 172l-106 -172h-144zM188 573v121h117v-121h-117z" />
    <glyph glyph-name="Xdieresis" unicode="&#x1e8c;" horiz-adv-x="595" 
d="M-7 0l231 334l-231 336h147l157 -234l161 234h144l-232 -336l232 -334h-144l-161 232l-157 -232h-147zM146 740v121h121v-121h-121zM333 740v121h121v-121h-121z" />
    <glyph glyph-name="xdieresis" unicode="&#x1e8d;" horiz-adv-x="487" 
d="M-7 0l179 260l-156 243h135l92 -152l92 152h135l-156 -243l181 -260h-144l-108 172l-106 -172h-144zM97 573v121h117v-121h-117zM279 573v121h117v-121h-117z" />
    <glyph glyph-name="Ydotaccent" unicode="&#x1e8e;" horiz-adv-x="552" 
d="M213 0v247l-220 423h136l146 -308l146 308h137l-221 -423v-247h-124zM223 740v121h121v-121h-121z" />
    <glyph glyph-name="ydotaccent" unicode="&#x1e8f;" horiz-adv-x="502" 
d="M87 -168l93 215l-184 456h138l114 -323l121 323h137l-289 -671h-130zM201 573v121h117v-121h-117z" />
    <glyph glyph-name="Zcircumflex" unicode="&#x1e90;" horiz-adv-x="459" 
d="M22 102l257 452h-243v116h387v-108l-254 -446h272v-116h-419v102zM53 734l123 125h111l125 -125h-132l-48 58l-47 -58h-132z" />
    <glyph glyph-name="zcircumflex" unicode="&#x1e91;" horiz-adv-x="414" 
d="M17 0v109l222 283h-197v111h342v-109l-222 -283h238v-111h-383zM45 570l118 132h109l115 -132h-121l-49 65l-50 -65h-122z" />
    <glyph glyph-name="tdieresis" unicode="&#x1e97;" horiz-adv-x="278" 
d="M67 0v392h-59v111h59v167h121v-167h72v-111h-72v-392h-121zM-23 740v121h121v-121h-121zM164 740v121h121v-121h-121z" />
    <glyph glyph-name="wring" unicode="&#x1e98;" horiz-adv-x="711" 
d="M184 0l-181 503h129l92 -307l84 307h96l82 -307l93 307h129l-184 -503h-74l-95 326l-97 -326h-74zM358 756q41 0 71 -29.5t30 -70.5t-30 -70.5t-71 -29.5q-42 0 -71.5 29.5t-29.5 71.5q0 40 30 69.5t71 29.5zM358 698q-16 0 -28.5 -12t-12.5 -29q0 -18 12 -30.5t29 -12.5
t29 12.5t12 29.5t-12 29.5t-29 12.5z" />
    <glyph glyph-name="yring" unicode="&#x1e99;" horiz-adv-x="502" 
d="M87 -168l93 215l-184 456h138l114 -323l121 323h137l-289 -671h-130zM260 756q41 0 70.5 -29.5t29.5 -70.5t-29.5 -70.5t-70.5 -29.5q-42 0 -71.5 29.5t-29.5 71.5q0 40 30 69.5t71 29.5zM260 698q-16 0 -28.5 -12t-12.5 -29q0 -18 12 -30.5t29 -12.5q16 0 28 12.5
t12 29.5t-12 29.5t-28 12.5z" />
    <glyph glyph-name="Etilde" unicode="&#x1ebc;" horiz-adv-x="462" 
d="M62 0v670h361v-116h-237v-163h227v-116h-227v-159h237v-116h-361zM117 729l-39 79q40 42 97 42q32 0 73 -14q35 -12 57 -12q41 0 73 32l39 -75q-45 -48 -97 -48q-22 0 -92 21q-27 8 -38 8q-36 0 -73 -33z" />
    <glyph glyph-name="etilde" unicode="&#x1ebd;" horiz-adv-x="585" 
d="M548 198h-391q12 -45 50.5 -74.5t84.5 -29.5q72 0 112 65h133q-23 -76 -91.5 -126t-150.5 -50q-110 0 -187.5 78t-77.5 190q0 113 77.5 192.5t187.5 79.5q106 0 183 -78t77 -186q0 -22 -7 -61zM154 295h283q-13 54 -51 85.5t-90 31.5t-91 -32t-51 -85zM184 577l-40 71
q42 39 88 39q38 0 74 -12q27 -9 56 -9q38 0 66 27l38 -73q-35 -41 -96 -41q-15 0 -83 17q-32 8 -45 8q-32 0 -58 -27z" />
    <glyph glyph-name="Ygrave" unicode="&#x1ef2;" horiz-adv-x="552" 
d="M213 0v247l-220 423h136l146 -308l146 308h137l-221 -423v-247h-124zM293 717l-207 109l47 92l204 -121z" />
    <glyph glyph-name="ygrave" unicode="&#x1ef3;" horiz-adv-x="502" 
d="M87 -168l93 215l-184 456h138l114 -323l121 323h137l-289 -671h-130zM262 550l-179 133l57 78l174 -145z" />
    <glyph glyph-name="Ytilde" unicode="&#x1ef8;" horiz-adv-x="552" 
d="M213 0v247l-220 423h136l146 -308l146 308h137l-221 -423v-247h-124zM151 729l-40 79q40 42 98 42q31 0 72 -14q35 -12 58 -12q41 0 72 32l40 -75q-46 -48 -98 -48q-22 0 -92 21q-27 8 -38 8q-36 0 -72 -33z" />
    <glyph glyph-name="ytilde" unicode="&#x1ef9;" horiz-adv-x="502" 
d="M87 -168l93 215l-184 456h138l114 -323l121 323h137l-289 -671h-130zM135 577l-40 71q42 39 88 39q37 0 74 -12q28 -9 56 -9q38 0 66 27l38 -73q-35 -41 -96 -41q-16 0 -84 17q-32 8 -45 8q-31 0 -57 -27z" />
    <glyph glyph-name="enquad" unicode="&#x2000;" 
 />
    <glyph glyph-name="emquad" unicode="&#x2001;" horiz-adv-x="1005" 
 />
    <glyph glyph-name="enspace" unicode="&#x2002;" 
 />
    <glyph glyph-name="emspace" unicode="&#x2003;" horiz-adv-x="1005" 
 />
    <glyph glyph-name="threeperemspace" unicode="&#x2004;" horiz-adv-x="335" 
 />
    <glyph glyph-name="fourperemspace" unicode="&#x2005;" horiz-adv-x="251" 
 />
    <glyph glyph-name="figurespace" unicode="&#x2007;" 
 />
    <glyph glyph-name="hyphenminus" unicode="&#x2010;" horiz-adv-x="251" 
d="M0 208v101h251v-101h-251z" />
    <glyph glyph-name="underscoredbl" unicode="&#x2017;" 
d="M0 -51h503v-72h-503v72zM0 -168h503v-72h-503v72z" />
    <glyph glyph-name="trianglebullet" unicode="&#x2023;" 
d="M72 119v436l408 -218z" />
    <glyph glyph-name="onedotlead" unicode="&#x2024;" horiz-adv-x="251" 
d="M71 0v109h109v-109h-109z" />
    <glyph glyph-name="twodotlead" unicode="&#x2025;" 
d="M71 0v109h109v-109h-109zM322 0v109h109v-109h-109z" />
    <glyph glyph-name="minute" unicode="&#x2032;" horiz-adv-x="132" 
d="M36 461l-8 209h76l-8 -209h-60z" />
    <glyph glyph-name="second" unicode="&#x2033;" horiz-adv-x="243" 
d="M36 461l-8 209h76l-8 -209h-60zM147 461l-8 209h76l-8 -209h-60z" />
    <glyph glyph-name="exclamdbl" unicode="&#x203c;" horiz-adv-x="489" 
d="M182 670v-179l-34 -290h-63l-33 289v180h130zM185 139v-139h-135v139h135zM436 670v-179l-34 -290h-63l-33 289v180h130zM438 139v-139h-135v139h135z" />
    <glyph glyph-name="overscore2" unicode="&#x203e;" 
d="M0 893h503v-108h-503v108z" />
    <glyph glyph-name="zerosuperior" unicode="&#x2070;" horiz-adv-x="341" 
d="M316 541v-145q0 -59 -41 -97.5t-103 -38.5q-66 0 -107 38.5t-41 100.5v142q0 60 41 98.5t105 38.5q63 0 104.5 -39t41.5 -98zM108 540v-139q0 -67 64 -67q28 0 44.5 18t16.5 47v143q0 25 -19 43.5t-44 18.5q-26 0 -44 -18.5t-18 -45.5z" />
    <glyph glyph-name="foursuperior" unicode="&#x2074;" horiz-adv-x="341" 
d="M8 390l199 280h70v-269h45v-74h-45v-59h-84v59h-185v63zM196 398v143l-98 -143h98z" />
    <glyph glyph-name="fivesuperior" unicode="&#x2075;" horiz-adv-x="341" 
d="M32 457l42 213h200v-74h-137l-12 -64q24 9 51 9q57 0 98.5 -41.5t41.5 -98.5q0 -58 -44.5 -99.5t-107.5 -41.5q-61 0 -105.5 38.5t-45.5 93.5h83q13 -58 66 -58q29 0 49.5 19.5t20.5 47.5q0 27 -20.5 46.5t-48.5 19.5q-32 0 -57 -29z" />
    <glyph glyph-name="sixsuperior" unicode="&#x2076;" horiz-adv-x="341" 
d="M174 670h99l-95 -133h15q53 0 91.5 -39t38.5 -93q0 -60 -44.5 -102.5t-107.5 -42.5q-64 0 -108.5 41.5t-44.5 102.5q0 48 28 87zM169 465q-28 0 -47.5 -19t-19.5 -46t20 -46.5t48 -19.5q29 0 49 19t20 46t-20.5 46.5t-49.5 19.5z" />
    <glyph glyph-name="sevensuperior" unicode="&#x2077;" horiz-adv-x="341" 
d="M54 268l160 328h-170v74h259v-71l-156 -331h-93z" />
    <glyph glyph-name="eightsuperior" unicode="&#x2078;" horiz-adv-x="341" 
d="M85 492q-35 35 -35 73q0 47 35.5 80t84.5 33q51 0 87 -32.5t36 -78.5t-36 -75q60 -33 60 -99q0 -55 -43 -94t-104 -39t-103.5 39t-42.5 95q0 71 61 98zM172 604q-18 0 -30.5 -11.5t-12.5 -27.5t12.5 -27.5t30.5 -11.5q17 0 29.5 11.5t12.5 27.5t-12.5 27.5t-29.5 11.5z
M172 449q-27 0 -45.5 -16.5t-18.5 -40.5t18 -41t44 -17t44.5 17t18.5 40q0 24 -18 41t-43 17z" />
    <glyph glyph-name="ninesuperior" unicode="&#x2079;" horiz-adv-x="341" 
d="M68 268l94 133q-4 -1 -9 -1q-57 0 -95.5 38.5t-38.5 94.5q0 61 43.5 103t107.5 42t108.5 -40.5t44.5 -99.5q0 -52 -38 -105l-118 -165h-99zM172 600q-29 0 -50 -19t-21 -45q0 -27 20.5 -46t49.5 -19t49.5 19t20.5 46q0 26 -20.5 45t-48.5 19z" />
    <glyph glyph-name="plussuperior" unicode="&#x207a;" horiz-adv-x="317" 
d="M5 503h114v108h78v-108h114v-76h-114v-110h-78v110h-114v76z" />
    <glyph glyph-name="minussuperior" unicode="&#x207b;" horiz-adv-x="317" 
d="M5 503h306v-76h-306v76z" />
    <glyph glyph-name="parenleftsuperior" unicode="&#x207d;" horiz-adv-x="216" 
d="M194 243v-83q-53 18 -91 60q-76 85 -76 199q0 132 91 215q27 25 76 46v-84q-81 -64 -81 -177q0 -53 22.5 -102.5t58.5 -73.5z" />
    <glyph glyph-name="parenrightsuperior" unicode="&#x207e;" horiz-adv-x="216" 
d="M22 596v83q55 -18 92 -60q75 -84 75 -199q0 -132 -91 -215q-27 -25 -76 -46v84q81 64 81 177q0 53 -22.5 101.5t-58.5 74.5z" />
    <glyph glyph-name="nsuperior" unicode="&#x207f;" horiz-adv-x="371" 
d="M40 268v303h78v-21q38 31 85 31q64 0 101 -45q29 -35 29 -104v-164h-84v150q0 92 -62 92q-34 0 -51 -26q-12 -18 -12 -71v-145h-84z" />
    <glyph glyph-name="zeroinferior" unicode="&#x2080;" horiz-adv-x="341" 
d="M316 274v-146q0 -59 -41 -97.5t-103 -38.5q-66 0 -107 39t-41 101v142q0 59 41 97.5t105 38.5q63 0 104.5 -38.5t41.5 -97.5zM108 272v-138q0 -68 64 -68q28 0 44.5 18t16.5 47v143q0 25 -19 43.5t-44 18.5q-26 0 -44 -18.5t-18 -45.5z" />
    <glyph glyph-name="oneinferior" unicode="&#x2081;" horiz-adv-x="341" 
d="M143 0v328h-54v74h138v-402h-84z" />
    <glyph glyph-name="twoinferior" unicode="&#x2082;" horiz-adv-x="341" 
d="M30 0v72l154 132q46 39 46 76q0 25 -16.5 40.5t-42.5 15.5q-46 0 -58 -42q-3 -10 -3 -35h-84q-1 7 -1 16q0 57 41.5 96t102.5 39t103 -39t42 -95q0 -67 -84 -136l-80 -66h164v-74h-284z" />
    <glyph glyph-name="threeinferior" unicode="&#x2083;" horiz-adv-x="341" 
d="M131 189v74h17q50 0 50 39q0 34 -37 34q-29 0 -33 -36h-84q4 46 31 74q35 36 87 36q49 0 84.5 -32.5t35.5 -77.5t-34 -69q65 -27 65 -103q0 -58 -43.5 -97t-107.5 -39q-61 0 -103.5 38.5t-44.5 95.5h84q2 -26 20.5 -43t45.5 -17q26 0 45.5 18t19.5 43q0 28 -22 45t-60 17
h-16z" />
    <glyph glyph-name="fourinferior" unicode="&#x2084;" horiz-adv-x="341" 
d="M8 122l199 280h70v-269h45v-74h-45v-59h-84v59h-185v63zM196 130v143l-98 -143h98z" />
    <glyph glyph-name="fiveinferior" unicode="&#x2085;" horiz-adv-x="341" 
d="M32 189l42 213h200v-74h-137l-12 -64q27 9 51 9q57 0 98.5 -41.5t41.5 -98.5q0 -58 -44.5 -99.5t-107.5 -41.5q-61 0 -105.5 38.5t-45.5 93.5h83q13 -58 66 -58q29 0 49.5 19.5t20.5 47.5q0 27 -20.5 46.5t-48.5 19.5q-32 0 -57 -28z" />
    <glyph glyph-name="sixinferior" unicode="&#x2086;" horiz-adv-x="341" 
d="M174 402h99l-95 -133h15q53 0 91.5 -39t38.5 -93q0 -60 -44 -102.5t-108 -42.5t-108.5 41.5t-44.5 102.5q0 48 28 87zM169 197q-28 0 -47.5 -19t-19.5 -46t20 -46.5t48 -19.5q29 0 49 19t20 46t-20.5 46.5t-49.5 19.5z" />
    <glyph glyph-name="seveninferior" unicode="&#x2087;" horiz-adv-x="341" 
d="M54 0l160 328h-170v74h259v-71l-156 -331h-93z" />
    <glyph glyph-name="eightinferior" unicode="&#x2088;" horiz-adv-x="341" 
d="M85 225q-35 34 -35 72q0 47 35.5 80t84.5 33q51 0 87 -32.5t36 -78.5t-36 -75q60 -31 60 -99q0 -55 -43 -94t-104 -39t-103.5 39t-42.5 95q0 70 61 99zM172 336q-18 0 -30.5 -11.5t-12.5 -27.5t12.5 -27.5t30.5 -11.5q17 0 29.5 11.5t12.5 27.5t-12.5 27.5t-29.5 11.5z
M172 181q-27 0 -45.5 -16.5t-18.5 -40.5t18 -41t44 -17t44.5 17t18.5 40q0 24 -18 41t-43 17z" />
    <glyph glyph-name="nineinferior" unicode="&#x2089;" horiz-adv-x="341" 
d="M68 0l94 133q-4 -1 -9 -1q-57 0 -95.5 38.5t-38.5 94.5q0 61 43.5 103t107.5 42t108.5 -40.5t44.5 -99.5q0 -52 -38 -105l-118 -165h-99zM172 332q-29 0 -50 -18.5t-21 -45.5t20.5 -46t49.5 -19t49.5 19t20.5 46q0 26 -20.5 45t-48.5 19z" />
    <glyph glyph-name="lira" unicode="&#x20a4;" horiz-adv-x="519" 
d="M178 456h192v-88h-144l27 -37q3 -4 11 -16h106v-88h-68q4 -29 4 -52q0 -31 -9 -61q35 0 58 13q42 24 42 77q0 16 -9 44h121q9 -16 9 -46q0 -42 -18.5 -83.5t-48.5 -67.5q-60 -51 -151 -51h-257v114h126q17 31 17 66q0 20 -8 47h-158v88h99q-21 29 -32 53h-67v88h38
q-2 22 -2 25q0 83 60.5 143t144.5 60q118 0 186 -113q26 -43 26 -80h-122q-7 34 -31.5 55t-57.5 21q-36 0 -60.5 -26t-24.5 -65q0 -12 1 -20z" />
    <glyph glyph-name="peseta" unicode="&#x20a7;" horiz-adv-x="627" 
d="M60 0v670h146q57 0 81 -4q43 -6 75 -29q83 -58 83 -170q0 -118 -82 -179q-31 -23 -76 -29q-22 -3 -83 -3h-23v-256h-121zM181 370h19q50 0 72 10q49 22 49 86q0 62 -49 82q-19 8 -66 8h-25v-186zM476 0v231h-38v72h38v99h87v-99h46v-72h-46v-231h-87z" />
    <glyph glyph-name="Euro" unicode="&#x20ac;" horiz-adv-x="715" 
d="M536 247h-281q27 -65 83.5 -104.5t121.5 -39.5q83 0 148 63v-146q-69 -33 -146 -33q-116 0 -211 73t-126 187h-97l28 66h58q-1 8 -1 26q0 11 1 18h-86l28 66h68q31 116 124.5 188.5t210.5 72.5q132 0 228 -84l-52 -121q-26 31 -51 48q-59 41 -129 41q-64 0 -120 -40.5
t-81 -104.5h357l-28 -66h-345q-1 -8 -1 -21q0 -14 1 -23h326z" />
    <glyph glyph-name="aslashs" unicode="&#x2101;" horiz-adv-x="935" 
d="M15 268l182 402h66l183 -402h-95l-46 102h-148l-47 -102h-95zM184 442h92l-46 119zM357 0l278 670h72l-277 -670h-73zM608 120h90q0 -53 55 -53q23 0 38.5 13t15.5 33q0 36 -56 55q-69 23 -91 43q-37 33 -37 83q0 47 38.5 81.5t91.5 34.5q55 0 91.5 -33.5t38.5 -85.5h-89
q-3 44 -44 44t-41 -37q0 -18 13.5 -28t56.5 -24q114 -37 114 -123q0 -55 -41.5 -93t-100.5 -38q-60 0 -100.5 36t-42.5 92z" />
    <glyph glyph-name="liter" unicode="&#x2113;" 
d="M139 178l-9 -9q-13 -13 -21 -13q-18 0 -18 24q0 13 15 28q29 30 47 53q35 184 81 295q52 125 127 125q35 0 55.5 -25t20.5 -67q0 -85 -68 -192q-27 -43 -108 -129q-4 -14 -14 -70q-16 -85 -16 -118q0 -29 16 -29q20 0 43 50q9 20 22 20q17 0 17 -20q0 -41 -35 -78.5
t-75 -37.5q-76 0 -76 128q0 14 3 71zM275 355q106 120 106 225q0 41 -19 41t-33 -40q-27 -79 -54 -226z" />
    <glyph glyph-name="Ohm" unicode="&#x2126;" horiz-adv-x="670" 
d="M29 0v108h145q-58 35 -91 79q-54 71 -54 181q0 137 87.5 227.5t219.5 90.5q131 0 218.5 -91t87.5 -227q0 -90 -34 -151.5t-110 -108.5h144v-108h-270v96q146 81 146 258q0 89 -44 149q-55 75 -138 75q-73 0 -126 -59q-57 -63 -57 -165q0 -177 147 -258v-96h-271z" />
    <glyph glyph-name="onethird" unicode="&#x2153;" horiz-adv-x="834" 
d="M143 268v328h-54v74h138v-402h-84zM240 0l278 670h75l-277 -670h-76zM625 189v74h17q50 0 50 39q0 34 -37 34q-29 0 -33 -36h-84q4 46 31 74q35 36 87 36q49 0 84.5 -32.5t35.5 -77.5t-34 -69q65 -28 65 -103q0 -58 -43.5 -97t-107.5 -39q-61 0 -103 37.5t-46 96.5h85
q2 -26 20.5 -43t45.5 -17q26 0 45.5 18t19.5 43q0 28 -22 45t-60 17h-16z" />
    <glyph glyph-name="twothirds" unicode="&#x2154;" horiz-adv-x="834" 
d="M30 268v72l154 132q46 39 46 76q0 25 -16.5 40.5t-42.5 15.5q-46 0 -58 -42q-3 -10 -3 -35h-84q-1 7 -1 16q0 57 41.5 96t102.5 39t103 -39t42 -95q0 -67 -84 -136l-80 -66h164v-74h-284zM241 0l277 670h76l-278 -670h-75zM625 189v74h17q50 0 50 39q0 34 -37 34
q-29 0 -33 -36h-84q4 46 31 74q35 36 87 36q49 0 84.5 -32.5t35.5 -77.5t-34 -69q65 -27 65 -103q0 -58 -43.5 -97t-107.5 -39q-62 0 -103.5 38t-44.5 96h84q2 -26 20.5 -43t45.5 -17q26 0 45.5 18t19.5 43q0 28 -22 45t-60 17h-16z" />
    <glyph glyph-name="onefifth" unicode="&#x2155;" horiz-adv-x="834" 
d="M143 268v328h-54v74h138v-402h-84zM240 0l278 670h75l-277 -670h-76zM525 189l42 213h200v-74h-137l-12 -64q27 9 51 9q57 0 98.5 -41.5t41.5 -98.5q0 -58 -44.5 -99.5t-107.5 -41.5q-61 0 -105 38.5t-46 93.5h83q13 -58 66 -58q29 0 49.5 19.5t20.5 47.5
q0 27 -20.5 46.5t-48.5 19.5q-32 0 -57 -28z" />
    <glyph glyph-name="twofifths" unicode="&#x2156;" horiz-adv-x="834" 
d="M30 268v72l154 132q46 39 46 76q0 25 -16.5 40.5t-42.5 15.5q-46 0 -58 -42q-3 -10 -3 -35h-84q-1 7 -1 16q0 57 41.5 96t102.5 39t103 -39t42 -95q0 -67 -84 -136l-80 -66h164v-74h-284zM241 0l277 670h76l-278 -670h-75zM525 189l42 213h200v-74h-137l-12 -64
q27 9 51 9q57 0 98.5 -41.5t41.5 -98.5q0 -58 -44.5 -99.5t-107.5 -41.5q-61 0 -105 38.5t-46 93.5h83q13 -58 66 -58q29 0 49.5 19.5t20.5 47.5q0 27 -20.5 46.5t-48.5 19.5q-32 0 -57 -28z" />
    <glyph glyph-name="threefifths" unicode="&#x2157;" horiz-adv-x="834" 
d="M131 457v74h17q50 0 50 39q0 34 -37 34q-29 0 -33 -36h-84q4 47 31 74q36 36 87 36q49 0 84.5 -32.5t35.5 -77.5t-34 -69q65 -27 65 -103q0 -58 -43.5 -97t-107.5 -39q-61 0 -103.5 38.5t-44.5 95.5h84q2 -26 20.5 -43t45.5 -17q26 0 45.5 18t19.5 43q0 28 -22 45t-60 17
h-16zM240 0l277 670h76l-278 -670h-75zM524 189l42 213h200v-74h-137l-12 -64q27 9 51 9q57 0 98.5 -41.5t41.5 -98.5q0 -58 -44.5 -99.5t-107.5 -41.5q-61 0 -105 38.5t-46 93.5h83q13 -58 66 -58q29 0 49.5 19.5t20.5 47.5q0 27 -20.5 46.5t-48.5 19.5q-32 0 -57 -28z" />
    <glyph glyph-name="fourfifths" unicode="&#x2158;" horiz-adv-x="834" 
d="M8 390l199 280h70v-269h45v-74h-45v-59h-84v59h-185v63zM196 398v143l-98 -143h98zM241 0l277 670h76l-278 -670h-75zM525 189l42 213h200v-74h-137l-12 -64q27 9 51 9q57 0 98.5 -41.5t41.5 -98.5q0 -58 -44.5 -99.5t-107.5 -41.5q-61 0 -105 38.5t-46 93.5h83
q13 -58 66 -58q29 0 49.5 19.5t20.5 47.5q0 27 -20.5 46.5t-48.5 19.5q-32 0 -57 -28z" />
    <glyph glyph-name="onesixth" unicode="&#x2159;" horiz-adv-x="834" 
d="M143 268v328h-54v74h138v-402h-84zM240 0l278 670h75l-277 -670h-76zM667 402h99l-95 -133h15q53 0 91.5 -39t38.5 -93q0 -61 -44 -103t-108 -42t-108.5 41.5t-44.5 102.5q0 46 29 87zM662 197q-28 0 -47.5 -19t-19.5 -46t20 -46.5t48 -19.5q29 0 49 19t20 46t-20.5 46.5
t-49.5 19.5z" />
    <glyph glyph-name="fivesixths" unicode="&#x215a;" horiz-adv-x="834" 
d="M32 457l42 213h200v-74h-137l-12 -64q24 9 51 9q57 0 98.5 -41.5t41.5 -98.5q0 -58 -44.5 -99.5t-107.5 -41.5q-61 0 -105.5 38.5t-45.5 93.5h83q13 -58 66 -58q29 0 49.5 19.5t20.5 47.5q0 27 -20.5 46.5t-48.5 19.5q-32 0 -57 -29zM241 0l277 670h76l-278 -670h-75z
M667 402h99l-95 -133h16q53 0 91 -39t38 -93q0 -61 -44 -103t-108 -42t-108.5 41.5t-44.5 102.5q0 46 29 87zM662 197q-28 0 -47.5 -19t-19.5 -46t20 -46.5t48 -19.5q29 0 49 19t20 46t-20.5 46.5t-49.5 19.5z" />
    <glyph glyph-name="oneeighth" unicode="&#x215b;" horiz-adv-x="834" 
d="M143 268v328h-54v74h138v-402h-84zM240 0l278 670h75l-277 -670h-76zM578 225q-35 32 -35 72q0 47 35.5 80t84.5 33q51 0 87 -32.5t36 -78.5q0 -45 -36 -75q60 -31 60 -99q0 -55 -43 -94t-104 -39t-103.5 39t-42.5 95q0 70 61 99zM665 336q-18 0 -30.5 -11.5t-12.5 -27.5
t12.5 -27.5t29.5 -11.5q18 0 30.5 11.5t12.5 27.5t-12.5 27.5t-29.5 11.5zM665 181q-27 0 -45.5 -16.5t-18.5 -40.5t18 -41t44 -17t44.5 17t18.5 40q0 24 -18 41t-43 17z" />
    <glyph glyph-name="threeeighths" unicode="&#x215c;" horiz-adv-x="834" 
d="M131 457v74h17q50 0 50 39q0 34 -37 34q-29 0 -33 -36h-84q4 47 31 74q36 36 87 36q49 0 84.5 -32.5t35.5 -77.5t-34 -69q65 -27 65 -103q0 -58 -43.5 -97t-107.5 -39q-61 0 -103.5 38.5t-44.5 95.5h84q2 -26 20.5 -43t45.5 -17q26 0 45.5 18t19.5 43q0 28 -22 45t-60 17
h-16zM240 0l277 670h76l-278 -670h-75zM577 225q-35 34 -35 72q0 47 35.5 80t84.5 33q51 0 87 -32.5t36 -78.5q0 -44 -35 -75q60 -31 60 -99q0 -55 -43.5 -94t-104.5 -39t-103.5 39t-42.5 95q0 70 61 99zM664 336q-18 0 -30.5 -11.5t-12.5 -27.5t12.5 -27.5t30.5 -11.5
q17 0 29.5 11.5t12.5 27.5t-12.5 27.5t-29.5 11.5zM664 181q-27 0 -45.5 -16.5t-18.5 -40.5t18.5 -41t44.5 -17t44.5 17t18.5 40q0 24 -18 41t-44 17z" />
    <glyph glyph-name="fiveeighths" unicode="&#x215d;" horiz-adv-x="834" 
d="M32 457l42 213h200v-74h-137l-12 -64q24 9 51 9q57 0 98.5 -41.5t41.5 -98.5q0 -58 -44.5 -99.5t-107.5 -41.5q-61 0 -105.5 38.5t-45.5 93.5h83q13 -58 66 -58q29 0 49.5 19.5t20.5 47.5q0 27 -20.5 46.5t-48.5 19.5q-32 0 -57 -29zM241 0l277 670h76l-278 -670h-75z
M578 225q-35 34 -35 72q0 47 35.5 80t84.5 33q51 0 87 -32.5t36 -78.5q0 -45 -36 -75q60 -31 60 -99q0 -55 -43 -94t-104 -39t-103.5 39t-42.5 95q0 70 61 99zM665 336q-18 0 -30.5 -11.5t-12.5 -27.5t12.5 -27.5t29.5 -11.5q18 0 30.5 11.5t12.5 27.5t-12.5 27.5
t-29.5 11.5zM665 181q-27 0 -45.5 -16.5t-18.5 -40.5t18 -41t44 -17t44.5 17t18.5 40q0 24 -18 41t-43 17z" />
    <glyph glyph-name="seveneighths" unicode="&#x215e;" horiz-adv-x="834" 
d="M54 268l160 328h-170v74h259v-71l-156 -331h-93zM240 0l278 670h76l-278 -670h-76zM578 225q-35 32 -35 72q0 47 35.5 80t84.5 33q51 0 87 -32.5t36 -78.5q0 -45 -36 -75q60 -31 60 -99q0 -55 -43 -94t-104 -39t-103.5 39t-42.5 95q0 70 61 99zM665 336
q-18 0 -30.5 -11.5t-12.5 -27.5t12.5 -27.5t30.5 -11.5q17 0 29.5 11.5t12.5 27.5t-12.5 27.5t-29.5 11.5zM665 181q-27 0 -45.5 -16.5t-18.5 -40.5t18 -41t44 -17t44.5 17t18.5 40q0 24 -18 41t-43 17z" />
    <glyph glyph-name="arrowleft" unicode="&#x2190;" horiz-adv-x="670" 
d="M656 365v-51h-503q16 -19 34.5 -56t18.5 -48q0 -14 -15 -14q-9 0 -23 17q-47 56 -132 104q-23 13 -23 21t17 18q82 49 148 119q6 7 13 7q15 0 15 -15q0 -31 -53 -102h503z" />
    <glyph glyph-name="arrowup" unicode="&#x2191;" horiz-adv-x="670" 
d="M361 13h-51v503q-19 -16 -56 -34.5t-48 -18.5q-14 0 -14 15q0 9 17 23q56 48 104 133q13 23 21 23t18 -17q55 -93 118 -148q8 -7 8 -14q0 -15 -15 -15q-31 0 -102 53v-503z" />
    <glyph glyph-name="arrowright" unicode="&#x2192;" horiz-adv-x="670" 
d="M13 312v51h503q-16 19 -34.5 56t-18.5 48q0 14 15 14q9 0 23 -17q46 -55 132 -104q23 -13 23 -21t-17 -18q-92 -55 -147 -118q-7 -8 -14 -8q-15 0 -15 15q0 29 53 102h-503z" />
    <glyph glyph-name="arrowdown" unicode="&#x2193;" horiz-adv-x="670" 
d="M309 657h51v-503q18 16 55.5 34.5t48.5 18.5q14 0 14 -15q0 -9 -17 -23q-56 -48 -104 -133q-13 -23 -21 -23t-18 17q-57 95 -118 148q-8 7 -8 14q0 15 15 15q28 0 102 -53v503z" />
    <glyph glyph-name="arrowboth" unicode="&#x2194;" horiz-adv-x="670" 
d="M516 312h-363q53 -72 53 -102q0 -15 -15 -15q-8 0 -24 19q-45 53 -144 110q-10 6 -10 15q0 8 23 21q86 49 132 104q14 17 23 17q15 0 15 -14q0 -11 -18.5 -47.5t-34.5 -56.5h363q-16 19 -34.5 56t-18.5 48q0 14 15 14q9 0 23 -17q46 -55 132 -104q23 -13 23 -21t-17 -18
q-92 -55 -147 -118q-7 -8 -14 -8q-15 0 -15 15q0 29 53 102z" />
    <glyph glyph-name="arrowupdn" unicode="&#x2195;" horiz-adv-x="670" 
d="M361 516v-363q74 54 102 54q15 0 15 -15q0 -7 -19 -24q-52 -46 -110 -145q-6 -10 -15 -10q-8 0 -21 23q-47 84 -104 133q-17 14 -17 23q0 15 14 15q11 0 47.5 -19t56.5 -35v363q-19 -16 -56 -34.5t-48 -18.5q-14 0 -14 15q0 9 17 23q57 49 104 133q13 23 21 23t18 -17
q36 -61 56.5 -87t59.5 -59q10 -9 10 -16q0 -15 -15 -15q-28 0 -102 53z" />
    <glyph glyph-name="arrowupdnbse" unicode="&#x21a8;" horiz-adv-x="670" 
d="M361 516v-363q74 54 102 54q15 0 15 -15q0 -7 -19 -24q-52 -46 -110 -145q-6 -10 -15 -10q-8 0 -21 23q-47 84 -104 133q-17 14 -17 23q0 15 14 15q11 0 47.5 -19t56.5 -35v363q-19 -16 -56.5 -34.5t-48.5 -18.5q-14 0 -14 15q0 9 17 23q57 48 104 133q13 23 21 23
q9 0 19 -17q54 -92 118 -148q8 -7 8 -14q0 -15 -15 -15q-28 0 -102 53zM202 -69h265v-43h-265v43z" />
    <glyph glyph-name="emptyset" unicode="&#x2205;" horiz-adv-x="622" 
d="M441 670l48 -25l-48 -89q114 -79 114 -204q0 -103 -72.5 -174t-177.5 -71q-45 0 -80 17l-62 -124l-49 25l61 123q-108 80 -108 203q0 102 71.5 173t173.5 71q40 0 81 -14zM418 504l-166 -331q31 -9 58 -9q79 0 134 54.5t55 132.5q0 48 -22 89.5t-59 63.5zM201 199
l166 330q-27 9 -54 9q-78 0 -134 -55t-56 -132q0 -89 78 -152z" />
    <glyph glyph-name="increment.001" unicode="&#x2206;" horiz-adv-x="670" 
d="M18 0l249 670h131l253 -670h-633zM190 113h286l-143 410z" />
    <glyph glyph-name="intersection" unicode="&#x2229;" horiz-adv-x="655" 
d="M600 0h-121v300q0 149 -25 193q-41 69 -126 69q-43 0 -79 -22t-53 -57q-20 -42 -20 -183v-300h-121v297q0 110 3 139q9 80 45 129q78 105 225 105q162 0 237 -124q26 -43 33 -121q2 -29 2 -128v-297z" />
    <glyph glyph-name="union" unicode="&#x222a;" horiz-adv-x="655" 
d="M55 670h121v-300q0 -152 25 -193q42 -69 126 -69q43 0 79 22t53 57q20 42 20 183v300h121v-297q0 -112 -3 -139q-9 -80 -45 -129q-79 -105 -224 -105q-163 0 -238 124q-26 43 -33 121q-2 28 -2 128v297z" />
    <glyph glyph-name="contintegral" unicode="&#x222e;" 
d="M56 -241l23 108q33 -10 54 -10q51 0 57 55q1 9 1 76v55q-77 23 -124 82.5t-47 135.5q0 77 47.5 137.5t123.5 80.5v39q0 97 10 133q13 48 54.5 75.5t101.5 27.5q38 0 88 -11l-22 -107q-33 10 -54 10q-51 0 -57 -55q-1 -9 -1 -76v-35q79 -23 125 -82t46 -137
q0 -114 -94 -182q-30 -21 -76 -36v-31q0 -97 -3.5 -130t-17.5 -58q-41 -75 -147 -75q-47 0 -88 10zM311 402l1 -279l7 4q79 45 79 135q0 95 -87 140zM191 124v277q-87 -42 -87 -138q0 -95 87 -139z" />
    <glyph glyph-name="equivalence" unicode="&#x2261;" 
d="M34 554h436v-108h-436v108zM34 395h436v-108h-436v108zM34 237h436v-108h-436v108z" />
    <glyph glyph-name="house" unicode="&#x2302;" horiz-adv-x="755" 
d="M84 0v403l293 330l293 -330v-403h-586zM135 51h484v330l-242 271l-242 -271v-330z" />
    <glyph glyph-name="turnednot" unicode="&#x2319;" 
d="M155 268v-155h315v-113h-436v268h121z" />
    <glyph glyph-name="integraltp" unicode="&#x2320;" 
d="M312 -251h-121v751q0 111 11 152q13 48 54 75t102 27q35 0 88 -10l-22 -107q-33 9 -55 9q-51 0 -56 -55q-1 -11 -1 -76v-766z" />
    <glyph glyph-name="integralbt" unicode="&#x2321;" 
d="M191 754h121v-751q0 -111 -11 -152q-13 -47 -54 -74.5t-101 -27.5q-36 0 -89 10l22 107q33 -9 55 -9q51 0 56 55q1 12 1 76v766z" />
    <glyph glyph-name="SF100000" unicode="&#x2500;" horiz-adv-x="1005" 
d="M0 218v66h1005v-66h-1005z" />
    <glyph glyph-name="SF110000" unicode="&#x2502;" horiz-adv-x="1005" 
d="M470 -251v1005h66v-1005h-66z" />
    <glyph glyph-name="SF010000" unicode="&#x250c;" horiz-adv-x="1005" 
d="M1006 284v-66h-470v-469h-66v535h536z" />
    <glyph glyph-name="SF030000" unicode="&#x2510;" horiz-adv-x="1005" 
d="M470 218h-470v66h536v-535h-66v469z" />
    <glyph glyph-name="SF020000" unicode="&#x2514;" horiz-adv-x="1005" 
d="M536 284h470v-66h-536v536h66v-470z" />
    <glyph glyph-name="SF040000" unicode="&#x2518;" horiz-adv-x="1005" 
d="M0 218v66h470v470h66v-536h-536z" />
    <glyph glyph-name="SF080000" unicode="&#x251c;" horiz-adv-x="1005" 
d="M536 284h470v-66h-470v-469h-66v1005h66v-470z" />
    <glyph glyph-name="SF090000" unicode="&#x2524;" horiz-adv-x="1005" 
d="M470 218h-470v66h470v470h66v-1005h-66v469z" />
    <glyph glyph-name="SF060000" unicode="&#x252c;" horiz-adv-x="1005" 
d="M536 218v-469h-66v469h-470v66h1005v-66h-469z" />
    <glyph glyph-name="SF070000" unicode="&#x2534;" horiz-adv-x="1005" 
d="M470 284v470h66v-470h469v-66h-1005v66h470z" />
    <glyph glyph-name="SF050000" unicode="&#x253c;" horiz-adv-x="1005" 
d="M470 218h-470v66h470v470h66v-470h469v-66h-469v-469h-66v469z" />
    <glyph glyph-name="SF430000" unicode="&#x2550;" horiz-adv-x="1005" 
d="M0 152v66h1005v-66h-1005zM0 285v66h1005v-66h-1005z" />
    <glyph glyph-name="SF240000" unicode="&#x2551;" horiz-adv-x="1005" 
d="M403 -251v1005h66v-1005h-66zM536 -251v1005h66v-1005h-66z" />
    <glyph glyph-name="SF510000" unicode="&#x2552;" horiz-adv-x="1005" 
d="M470 -251v602h536v-66h-470v-67h470v-66h-470v-403h-66z" />
    <glyph glyph-name="SF520000" unicode="&#x2553;" horiz-adv-x="1005" 
d="M536 218h-67v-469h-66v535h602v-66h-403v-469h-66v469z" />
    <glyph glyph-name="SF390000" unicode="&#x2554;" horiz-adv-x="1005" 
d="M469 285v-536h-66v602h602v-66h-536zM602 152v-403h-66v469h469v-66h-403z" />
    <glyph glyph-name="SF220000" unicode="&#x2555;" horiz-adv-x="1005" 
d="M470 152h-470v66h470v67h-470v66h536v-602h-66v403z" />
    <glyph glyph-name="SF210000" unicode="&#x2556;" horiz-adv-x="1005" 
d="M470 218v-469h-66v469h-404v66h602v-535h-66v469h-66z" />
    <glyph glyph-name="SF250000" unicode="&#x2557;" horiz-adv-x="1005" 
d="M536 285h-536v66h602v-602h-66v536zM404 152h-404v66h470v-469h-66v403z" />
    <glyph glyph-name="SF500000" unicode="&#x2558;" horiz-adv-x="1005" 
d="M470 754h66v-403h470v-66h-470v-67h470v-66h-536v602z" />
    <glyph glyph-name="SF490000" unicode="&#x2559;" horiz-adv-x="1005" 
d="M536 284v470h66v-470h403v-66h-602v536h66v-470h67z" />
    <glyph glyph-name="SF380000" unicode="&#x255a;" horiz-adv-x="1005" 
d="M469 218h536v-66h-602v602h66v-536zM602 351h403v-66h-469v469h66v-403z" />
    <glyph glyph-name="SF280000" unicode="&#x255b;" horiz-adv-x="1005" 
d="M470 351v403h66v-602h-536v66h470v67h-470v66h470z" />
    <glyph glyph-name="SF270000" unicode="&#x255c;" horiz-adv-x="1005" 
d="M470 284h66v470h66v-536h-602v66h404v470h66v-470z" />
    <glyph glyph-name="SF260000" unicode="&#x255d;" horiz-adv-x="1005" 
d="M536 218v536h66v-602h-602v66h536zM404 351v403h66v-469h-470v66h404z" />
    <glyph glyph-name="SF360000" unicode="&#x255e;" horiz-adv-x="1005" 
d="M470 754h66v-403h470v-66h-470v-67h470v-66h-470v-403h-66v1005z" />
    <glyph glyph-name="SF370000" unicode="&#x255f;" horiz-adv-x="1005" 
d="M602 218v-469h-66v1005h66v-470h403v-66h-403zM469 -251h-66v1005h66v-1005z" />
    <glyph glyph-name="SF420000" unicode="&#x2560;" horiz-adv-x="1005" 
d="M403 -251v1005h66v-1005h-66zM602 351h403v-66h-469v469h66v-403zM602 152v-403h-66v469h469v-66h-403z" />
    <glyph glyph-name="SF190000" unicode="&#x2561;" horiz-adv-x="1005" 
d="M470 351v403h66v-1005h-66v403h-470v66h470v67h-470v66h470z" />
    <glyph glyph-name="SF200000" unicode="&#x2562;" horiz-adv-x="1005" 
d="M404 218h-404v66h404v470h66v-1005h-66v469zM536 -251v1005h66v-1005h-66z" />
    <glyph glyph-name="SF230000" unicode="&#x2563;" horiz-adv-x="1005" 
d="M602 -251h-66v1005h66v-1005zM404 351v403h66v-469h-470v66h404zM404 152h-404v66h470v-469h-66v403z" />
    <glyph glyph-name="SF470000" unicode="&#x2564;" horiz-adv-x="1005" 
d="M0 351h1005v-66h-1005v66zM470 152h-470v66h1005v-66h-469v-403h-66v403z" />
    <glyph glyph-name="SF480000" unicode="&#x2565;" horiz-adv-x="1005" 
d="M403 218h-403v66h1005v-66h-403v-469h-66v469h-67v-469h-66v469z" />
    <glyph glyph-name="SF410000" unicode="&#x2566;" horiz-adv-x="1005" 
d="M0 351h1005v-66h-1005v66zM602 152v-403h-66v469h469v-66h-403zM403 152h-403v66h469v-469h-66v403z" />
    <glyph glyph-name="SF450000" unicode="&#x2567;" horiz-adv-x="1005" 
d="M0 152v66h1005v-66h-1005zM470 351v403h66v-403h469v-66h-1005v66h470z" />
    <glyph glyph-name="SF460000" unicode="&#x2568;" horiz-adv-x="1005" 
d="M0 218v66h403v470h66v-470h67v470h66v-470h403v-66h-1005z" />
    <glyph glyph-name="SF400000" unicode="&#x2569;" horiz-adv-x="1005" 
d="M0 152v66h1005v-66h-1005zM602 351h403v-66h-469v469h66v-403zM403 351v403h66v-469h-469v66h403z" />
    <glyph glyph-name="SF540000" unicode="&#x256a;" horiz-adv-x="1005" 
d="M470 218v67h-470v66h470v403h66v-403h469v-66h-469v-67h469v-66h-469v-403h-66v403h-470v66h470z" />
    <glyph glyph-name="SF530000" unicode="&#x256b;" horiz-adv-x="1005" 
d="M403 218h-403v66h403v470h66v-470h67v470h66v-470h403v-66h-403v-469h-66v469h-67v-469h-66v469z" />
    <glyph glyph-name="SF440000" unicode="&#x256c;" horiz-adv-x="1005" 
d="M602 351h403v-66h-469v469h66v-403zM403 351v403h66v-469h-469v66h403zM602 152v-403h-66v469h469v-66h-403zM403 152h-403v66h469v-469h-66v403z" />
    <glyph glyph-name="upblock" unicode="&#x2580;" horiz-adv-x="1005" 
d="M0 251v503h1005v-503h-1005z" />
    <glyph glyph-name="dnblock" unicode="&#x2584;" horiz-adv-x="1005" 
d="M0 -251v502h1005v-502h-1005z" />
    <glyph glyph-name="block" unicode="&#x2588;" horiz-adv-x="1005" 
d="M0 -251v1005h1005v-1005h-1005z" />
    <glyph glyph-name="lfblock" unicode="&#x258c;" horiz-adv-x="1005" 
d="M0 -251v1005h503v-1005h-503z" />
    <glyph glyph-name="rtblock" unicode="&#x2590;" horiz-adv-x="1005" 
d="M503 -251v1005h503v-1005h-503z" />
    <glyph glyph-name="ltshade" unicode="&#x2591;" horiz-adv-x="1005" 
d="M0 754h101v-101h-101v101zM201 754h101v-101h-101v101zM804 754h101v-101h-101v101zM402 754h101v-101h-101v101zM603 754h101v-101h-101v101zM0 553h101v-101h-101v101zM0 352h101v-101h-101v101zM0 151h101v-101h-101v101zM0 -50h101v-101h-101v101zM201 553h101v-101
h-101v101zM201 352h101v-101h-101v101zM201 151h101v-101h-101v101zM201 -50h101v-101h-101v101zM402 553h101v-101h-101v101zM402 352h101v-101h-101v101zM402 151h101v-101h-101v101zM402 -50h101v-101h-101v101zM603 553h101v-101h-101v101zM603 352h101v-101h-101v101z
M603 151h101v-101h-101v101zM603 -50h101v-101h-101v101zM804 553h101v-101h-101v101zM804 352h101v-101h-101v101zM804 151h101v-101h-101v101zM804 -50h101v-101h-101v101z" />
    <glyph glyph-name="shade" unicode="&#x2592;" horiz-adv-x="1005" 
d="M905 -151h100v-100h-100v100h-101v-100h-100v100h-101v-100h-100v100h-101v-100h-100v100h-101v-100h-100v100h-101v101h101v-101h100v101h101v-101h100v101h101v-101h100v101h101v-101h100v101h101v100h-101v-100h-100v100h-101v-100h-100v100h-101v-100h-100v100h-101
v-100h-100v100h-101v101h101v-101h100v101h101v-101h100v101h101v-101h100v101h101v-101h100v101h101v101h-101v-101h-100v101h-101v-101h-100v101h-101v-101h-100v101h-101v-101h-100v101h-101v101h101v-101h100v101h101v-101h100v101h101v-101h100v101h101v-101h100v101
h101v100h-101v-100h-100v100h-101v-100h-100v100h-101v-100h-100v100h-101v-100h-100v100h-101v101h101v-101h100v101h101v-101h100v101h101v-101h100v101h101v-101h100v101h101v100h-101v-100h-100v100h-101v-100h-100v100h-101v-100h-100v100h-101v-100h-100v100h-101v101
h101v-101h100v101h101v-101h100v101h101v-101h100v101h101v-101h100v101h101v-101h100v-100h-100v-101h100v-100h-100v-101h100v-101h-100v-101h100v-100h-100v-101z" />
    <glyph glyph-name="dkshade" unicode="&#x2593;" horiz-adv-x="1005" 
d="M1005 -251h-1005v101h101v100h-101v101h101v100h-101v101h101v99h-101v101h101v100h-101v101h101v101h101v-101h100v101h101v-101h99v101h101v-101h100v101h101v-101h100v101h101v-1005zM904 552h-100v-100h100v100zM703 552h-100v-100h100v100zM502 552h-99v-100h99v100
zM302 552h-100v-100h100v100zM904 351h-100v-99h100v99zM703 351h-100v-99h100v99zM502 351h-99v-99h99v99zM302 351h-100v-99h100v99zM904 151h-100v-100h100v100zM703 151h-100v-100h100v100zM502 151h-99v-100h99v100zM302 151h-100v-100h100v100zM904 -50h-100v-100h100
v100zM703 -50h-100v-100h100v100zM502 -50h-99v-100h99v100zM302 -50h-100v-100h100v100z" />
    <glyph glyph-name="filledbox" unicode="&#x25a0;" horiz-adv-x="670" 
d="M670 0h-670v670h670v-670z" />
    <glyph glyph-name="outlinedbox" unicode="&#x25a1;" horiz-adv-x="670" 
d="M670 0h-670v670h670v-670zM623 47v576h-576v-576h576z" />
    <glyph glyph-name="triagup" unicode="&#x25b2;" 
d="M469 147h-436l218 408z" />
    <glyph glyph-name="triagrt" unicode="&#x25b6;" 
d="M72 119v436l408 -218z" />
    <glyph glyph-name="triagdn" unicode="&#x25bc;" 
d="M34 523h436l-218 -407z" />
    <glyph glyph-name="triaglt" unicode="&#x25c0;" 
d="M431 555v-436l-408 218z" />
    <glyph glyph-name="diamondrhombsolid" unicode="&#x25c6;" horiz-adv-x="670" 
d="M334 697q23 -48 113 -174.5t143 -186.5q-162 -192 -256 -362q-72 138 -254 362q182 228 254 361z" />
    <glyph glyph-name="diamondrhomb" unicode="&#x25c7;" horiz-adv-x="670" 
d="M335 697l261 -362l-261 -361l-261 361zM335 608l-198 -273l198 -272l198 272z" />
    <glyph glyph-name="circle" unicode="&#x25cb;" horiz-adv-x="670" 
d="M335 593q108 0 184.5 -75.5t76.5 -181.5t-77 -182t-184 -76q-110 0 -186 76t-76 186q0 104 77.5 178.5t184.5 74.5zM335 547q-88 0 -151.5 -61.5t-63.5 -146.5q0 -90 62.5 -152.5t152.5 -62.5q88 0 151 62.5t63 149.5t-63 149t-151 62z" />
    <glyph glyph-name="invbullet" unicode="&#x25d8;" horiz-adv-x="670" 
d="M0 0v670h670v-670h-670zM337 475q-58 0 -99 -40.5t-41 -99.5q0 -58 41 -99t97 -41q57 0 97.5 41t40.5 99q0 57 -40.5 98.5t-95.5 41.5z" />
    <glyph glyph-name="invcircle" unicode="&#x25d9;" horiz-adv-x="670" 
d="M335 546q89 0 152 -61.5t63 -148.5q0 -88 -63 -150t-152 -62q-90 0 -152.5 62.5t-62.5 151.5q0 85 63.5 146.5t151.5 61.5zM670 0h-670v670h670v-670zM335 592q-107 0 -184.5 -74.5t-77.5 -178.5q0 -109 76 -185t186 -76q108 0 185 76t77 182t-77 181t-185 75z" />
    <glyph glyph-name="smileface" unicode="&#x263a;" horiz-adv-x="670" 
d="M241 468q17 0 30 -13t13 -31t-13 -31t-31 -13t-31 13t-13 31t13 31t32 13zM436 468q18 0 31 -13t13 -31q0 -19 -13 -32t-31 -13q-19 0 -32 13t-13 32q0 18 13 31t32 13zM543 374q-8 -108 -51 -163q-55 -70 -156 -70q-110 0 -166 83q-34 51 -41 150q12 -55 42 -89
q61 -71 165 -71t165 71q30 34 42 89zM341 653q128 0 220.5 -94t92.5 -224q0 -132 -93.5 -225t-225.5 -93t-225 94t-93 227q0 131 94.5 223t229.5 92zM340 611q-126 0 -209 -92q-71 -79 -71 -182q0 -116 80.5 -197t195.5 -81q114 0 195 81t81 195q0 113 -80.5 194.5
t-191.5 81.5z" />
    <glyph glyph-name="invsmileface" unicode="&#x263b;" horiz-adv-x="670" 
d="M341 653q128 0 220.5 -94t92.5 -224q0 -132 -93.5 -225t-225.5 -93t-225 94t-93 227q0 131 94.5 223t229.5 92zM241 468q-19 0 -32 -13t-13 -31q0 -19 13 -32t31 -13q19 0 32 13t13 32q0 18 -13 31t-31 13zM437 468q-19 0 -32.5 -13t-13.5 -31q0 -19 13 -32t32 -13t32 13
t13 32q0 18 -13 31t-31 13zM543 374q-12 -55 -42 -89q-61 -71 -165 -71t-165 71q-30 34 -42 89q8 -108 51 -162q56 -70 156 -70q110 0 166 83q34 51 41 149z" />
    <glyph glyph-name="sun" unicode="&#x263c;" horiz-adv-x="670" 
d="M160 475l-75 75l35 35l75 -75q51 42 114 48v106h51v-106q67 -8 114 -47l75 74l36 -35l-75 -75q39 -48 47 -114h106v-52h-106q-7 -64 -47 -113l75 -75l-36 -36l-75 75q-52 -40 -114 -47v-106h-51v106q-58 6 -114 47l-75 -75l-35 36l74 74q-40 49 -46 114h-106v52h105
q9 65 48 114zM337 496q-68 0 -115.5 -46.5t-47.5 -113.5t46.5 -114t113.5 -47t114 47t47 113t-46.5 113.5t-111.5 47.5z" />
    <glyph glyph-name="female" unicode="&#x2640;" horiz-adv-x="670" 
d="M310 210v105q-68 11 -112 62t-44 121q0 76 53 130t127 54q76 0 129 -54t53 -130q0 -70 -44 -121.5t-114 -61.5v-105h164v-43h-164v-167h-48v167h-162v43h162zM337 635q-57 0 -96.5 -39.5t-39.5 -97.5q0 -56 39.5 -96t94.5 -40t94.5 40t39.5 96t-39 96.5t-93 40.5z" />
    <glyph glyph-name="male" unicode="&#x2642;" horiz-adv-x="670" 
d="M573 502l-153 -153q36 -48 36 -110q0 -76 -53 -129.5t-128 -53.5q-74 0 -127.5 54t-53.5 130t53 130t128 54q63 0 113 -40l151 151q-57 15 -106 41q-22 12 -22 23q0 12 13 12q6 0 21 -3q40 -8 83 -8q56 0 94 10q19 5 22 5q11 0 11 -11q0 -4 -5 -22q-11 -40 -11 -88
q0 -40 9 -84q3 -15 3 -21q0 -13 -12 -13q-10 0 -24 21q-30 46 -42 105zM277 377q-57 0 -96.5 -39.5t-39.5 -97.5q0 -56 39.5 -96t94.5 -40t94.5 40t39.5 96t-39 96.5t-93 40.5z" />
    <glyph glyph-name="spade" unicode="&#x2660;" horiz-adv-x="670" 
d="M108 0v19q71 13 103.5 28t62.5 49q53 61 56 160q-6 -15 -13 -27q-20 -34 -56 -54.5t-76 -20.5q-50 0 -85.5 37t-35.5 89q0 83 104 169q143 118 166 240q26 -80 51.5 -118t99.5 -105t98 -104.5t24 -84.5q0 -51 -36 -87t-87 -36q-86 0 -140 102q6 -108 59 -163.5t168 -73.5
v-19h-463z" />
    <glyph glyph-name="club" unicode="&#x2663;" horiz-adv-x="670" 
d="M564 0h-458v19q222 29 222 257q-19 -34 -34 -53q-59 -76 -146 -76q-60 0 -102.5 45t-42.5 108q0 62 38.5 105t93.5 43q29 0 71 -21q4 -1 16 -8q-36 53 -36 100q0 59 44 101.5t105 42.5q62 0 105.5 -42t43.5 -102q0 -49 -36 -100q58 29 87 29q55 0 93.5 -43.5t38.5 -104.5
q0 -64 -43 -108.5t-104 -44.5q-36 0 -75 19.5t-65 50.5q-11 13 -38 59q1 -121 59 -183q31 -33 62 -47t101 -27v-19z" />
    <glyph glyph-name="heart" unicode="&#x2665;" horiz-adv-x="670" 
d="M334 -11q-17 66 -53 128.5t-134 193.5q-54 73 -72.5 112.5t-18.5 83.5q0 57 37.5 96t92.5 39q75 0 120 -68q16 -24 28 -62q37 131 147 131q55 0 94 -38.5t39 -92.5q0 -51 -24 -102t-86 -129q-145 -182 -170 -292z" />
    <glyph glyph-name="diamond" unicode="&#x2666;" horiz-adv-x="670" 
d="M334 697q23 -48 113 -174.5t143 -186.5q-162 -192 -256 -362q-72 138 -254 362q182 228 254 361z" />
    <glyph glyph-name="musicalnote" unicode="&#x266a;" horiz-adv-x="670" 
d="M308 156v514h46v-61q7 -8 15 -19q18 -21 53 -63q91 -109 91 -226q0 -94 -58 -163h-28q34 79 34 150q0 65 -32 116.5t-75 57.5v-306q0 -61 -29 -101q-46 -64 -124 -64q-69 0 -69 61q0 46 37 81t85 35q27 0 54 -12z" />
    <glyph glyph-name="musicalnotedbl" unicode="&#x266b;" horiz-adv-x="670" 
d="M196 590l423 108v-505q0 -72 -42.5 -118.5t-109.5 -46.5q-69 0 -69 61q0 46 36.5 81t83.5 35q29 0 55 -12v272l-331 -91v-237q0 -61 -29 -101q-46 -64 -124 -64q-69 0 -69 60q0 46 37 80.5t85 34.5q27 0 54 -10v453zM242 451l331 90v70l-331 -91v-69z" />
    <glyph glyph-name="gtilde" unicode="&#xe005;" horiz-adv-x="621" 
d="M455 503h111v-411q0 -125 -60 -197q-82 -99 -215 -99q-86 0 -154.5 45t-98.5 121h137q48 -56 123 -56q65 0 108.5 44t47.5 114q-68 -81 -166 -81q-106 0 -182 80t-76 193q0 109 75.5 186.5t181.5 77.5q107 0 168 -79v62zM297 409q-61 0 -103.5 -45t-42.5 -110
q0 -68 43.5 -114.5t106.5 -46.5q59 0 101.5 46t42.5 110q0 67 -43 113.5t-105 46.5zM187 577l-40 71q42 39 87 39q38 0 75 -12q28 -9 56 -9q37 0 65 27l39 -73q-35 -41 -96 -41q-16 0 -84 17q-32 8 -45 8q-31 0 -57 -27z" />
    <glyph glyph-name="ncircumflex" unicode="&#xe009;" horiz-adv-x="554" 
d="M55 0v503h112v-44q62 61 137 61q97 0 155 -75q43 -56 43 -173v-272h-121v248q0 92 -30 128q-28 33 -71 33q-57 0 -84 -47q-20 -34 -20 -123v-239h-121zM116 570l117 132h109l115 -132h-121l-48 65l-51 -65h-121z" />
    <glyph glyph-name="nmacron" unicode="&#xe00c;" horiz-adv-x="554" 
d="M55 0v503h112v-44q62 61 137 61q97 0 155 -75q43 -56 43 -173v-272h-121v248q0 92 -30 128q-28 33 -71 33q-57 0 -84 -47q-20 -34 -20 -123v-239h-121zM129 587v80h309v-80h-309z" />
    <glyph glyph-name="Nmacron" unicode="&#xe00d;" horiz-adv-x="668" 
d="M62 0v670h141l279 -488v488h124v-670h-139l-281 487v-487h-124zM167 753v86h329v-86h-329z" />
    <glyph glyph-name="Ahungarumlaut" unicode="&#xeb00;" horiz-adv-x="655" 
d="M-1 0l279 670h97l281 -670h-137l-71 173h-238l-74 -173h-137zM255 289h144l-72 206zM417 717l-52 65l151 129l57 -75zM236 717l-52 65l151 129l57 -75z" />
    <glyph glyph-name="ahungarumlaut" unicode="&#xeb01;" horiz-adv-x="616" 
d="M561 503v-503h-111v62q-11 -14 -40 -34q-65 -45 -135 -45q-106 0 -175.5 77t-69.5 194q0 113 72 189.5t179 76.5q48 0 94.5 -22.5t74.5 -58.5v64h111zM300 409q-63 0 -106 -46t-43 -114q0 -66 43.5 -111t105.5 -45q63 0 105 45t42 113q0 69 -41.5 113.5t-105.5 44.5z
M249 554l-52 48l134 159l61 -59zM403 554l-52 48l134 159l61 -59z" />
    <glyph glyph-name="amacrondot" unicode="&#xeb03;" horiz-adv-x="616" 
d="M561 503v-503h-111v62q-11 -14 -40 -34q-65 -45 -135 -45q-106 0 -175.5 77t-69.5 194q0 113 72 189.5t179 76.5q48 0 94.5 -22.5t74.5 -58.5v64h111zM300 409q-63 0 -106 -46t-43 -114q0 -66 43.5 -111t105.5 -45q63 0 105 45t42 113q0 69 -41.5 113.5t-105.5 44.5z
M167 587v80h308v-80h-308zM264 740v121h117v-121h-117z" />
    <glyph glyph-name="Dbreve" unicode="&#xeb06;" horiz-adv-x="631" 
d="M62 0v670h152q151 0 237 -51q68 -40 108.5 -118t40.5 -168q0 -95 -45.5 -175t-121.5 -118q-80 -40 -216 -40h-155zM186 116h26q108 0 164 33q47 28 73.5 76.5t26.5 106.5q0 60 -28.5 111.5t-76.5 79.5q-54 31 -161 31h-24v-438zM114 861h98q14 -44 69 -44q33 0 49.5 8.5
t25.5 35.5h98q-6 -56 -48 -91q-47 -39 -122 -39q-83 0 -130 45q-36 35 -40 85z" />
    <glyph glyph-name="Dmacron" unicode="&#xeb07;" horiz-adv-x="631" 
d="M62 0v670h152q151 0 237 -51q68 -40 108.5 -118t40.5 -168q0 -95 -45.5 -175t-121.5 -118q-80 -40 -216 -40h-155zM186 116h26q108 0 164 33q47 28 73.5 76.5t26.5 106.5q0 60 -28.5 111.5t-76.5 79.5q-54 31 -161 31h-24v-438zM121 753v86h328v-86h-328z" />
    <glyph glyph-name="gcommamirror" unicode="&#xeb0c;" horiz-adv-x="621" 
d="M455 503h111v-411q0 -125 -60 -197q-82 -99 -215 -99q-86 0 -154.5 45t-98.5 121h137q48 -56 123 -56q65 0 108.5 44t47.5 114q-68 -81 -166 -81q-106 0 -182 80t-76 193q0 109 75.5 186.5t181.5 77.5q107 0 168 -79v62zM297 409q-61 0 -103.5 -45t-42.5 -110
q0 -68 43.5 -114.5t106.5 -46.5q59 0 101.5 46t42.5 110q0 67 -43 113.5t-105 46.5zM365 659v-90h-109v96q0 43 29 67.5t79 24.5v-51q-48 -6 -48 -35q0 -8 1 -12h48z" />
    <glyph glyph-name="ggrave" unicode="&#xeb0d;" horiz-adv-x="621" 
d="M455 503h111v-411q0 -125 -60 -197q-82 -99 -215 -99q-86 0 -154.5 45t-98.5 121h137q48 -56 123 -56q65 0 108.5 44t47.5 114q-68 -81 -166 -81q-106 0 -182 80t-76 193q0 109 75.5 186.5t181.5 77.5q107 0 168 -79v62zM297 409q-61 0 -103.5 -45t-42.5 -110
q0 -68 43.5 -114.5t106.5 -46.5q59 0 101.5 46t42.5 110q0 67 -43 113.5t-105 46.5zM309 550l-179 133l57 78l174 -145z" />
    <glyph glyph-name="idotaccent" unicode="&#xeb0e;" horiz-adv-x="231" 
d="M55 0v503h121v-503h-121zM59 573v121h117v-121h-117z" />
    <glyph glyph-name="Kdieresis" unicode="&#xeb10;" horiz-adv-x="537" 
d="M62 0v670h124v-290l211 290h146l-253 -329l253 -341h-146l-211 294v-294h-124zM135 740v121h121v-121h-121zM322 740v121h121v-121h-121z" />
    <glyph glyph-name="Lmacron" unicode="&#xeb11;" horiz-adv-x="407" 
d="M62 0v670h124v-554h204v-116h-328zM-24 753v86h328v-86h-328z" />
    <glyph glyph-name="lmacron" unicode="&#xeb12;" horiz-adv-x="231" 
d="M55 0v670h121v-670h-121zM-46 753v86h328v-86h-328z" />
    <glyph glyph-name="ocommaaccent" unicode="&#xeb15;" horiz-adv-x="595" 
d="M299 520q111 0 188.5 -78t77.5 -190t-78 -190.5t-191 -78.5q-110 0 -188 80t-78 193q0 107 80 185.5t189 78.5zM298 409q-59 0 -103 -46t-44 -110q0 -67 42.5 -113t104.5 -46t104 45t42 111q0 65 -43 112t-103 47zM242 -143v90h109v-96q0 -43 -29 -67.5t-79 -24.5v51
q48 6 48 35q0 8 -1 12h-48z" />
    <glyph glyph-name="omacrondot" unicode="&#xeb17;" horiz-adv-x="595" 
d="M299 520q111 0 188.5 -78t77.5 -190t-78 -190.5t-191 -78.5q-110 0 -188 80t-78 193q0 107 80 185.5t189 78.5zM298 409q-59 0 -103 -46t-44 -110q0 -67 42.5 -113t104.5 -46t104 45t42 111q0 65 -43 112t-103 47zM153 587v80h309v-80h-309zM252 740v121h117v-121h-117z
" />
    <glyph glyph-name="oring" unicode="&#xeb18;" horiz-adv-x="595" 
d="M299 520q111 0 188.5 -78t77.5 -190t-78 -190.5t-191 -78.5q-110 0 -188 80t-78 193q0 107 80 185.5t189 78.5zM298 409q-59 0 -103 -46t-44 -110q0 -67 42.5 -113t104.5 -46t104 45t42 111q0 65 -43 112t-103 47zM301 756q41 0 70.5 -29.5t29.5 -70.5t-29.5 -70.5
t-70.5 -29.5q-42 0 -71.5 29.5t-29.5 71.5q0 40 30 69.5t71 29.5zM301 698q-16 0 -28.5 -12t-12.5 -29q0 -18 12 -30.5t29 -12.5q16 0 28 12.5t12 29.5t-12 29.5t-28 12.5z" />
    <glyph glyph-name="Rgrave" unicode="&#xeb1a;" horiz-adv-x="542" 
d="M62 0v670h205q113 0 171 -51q71 -62 71 -156q0 -103 -70 -165q-38 -34 -105 -50l181 -248h-150l-179 256v-256h-124zM186 350h79q56 0 88 27.5t32 75.5q0 46 -32.5 73.5t-86.5 27.5h-80v-204zM284 717l-206 109l46 92l204 -121z" />
    <glyph glyph-name="rgrave" unicode="&#xeb1b;" horiz-adv-x="293" 
d="M55 0v503h111v-45q27 36 50 49t59 13h10v-118q-46 -2 -73 -23q-36 -29 -36 -97v-282h-121zM127 550l-178 133l57 78l174 -145z" />
    <glyph glyph-name="Rmacron" unicode="&#xeb1c;" horiz-adv-x="542" 
d="M62 0v670h205q113 0 171 -51q71 -62 71 -156q0 -103 -70 -165q-38 -34 -105 -50l181 -248h-150l-179 256v-256h-124zM186 350h79q56 0 88 27.5t32 75.5q0 46 -32.5 73.5t-86.5 27.5h-80v-204zM92 753v86h329v-86h-329z" />
    <glyph glyph-name="rmacron" unicode="&#xeb1d;" horiz-adv-x="293" 
d="M55 0v503h111v-45q27 36 50 49t59 13h10v-118q-46 -2 -73 -23q-36 -29 -36 -97v-282h-121zM-21 587v80h308v-80h-308z" />
    <glyph glyph-name="Sbreve" unicode="&#xeb1e;" horiz-adv-x="485" 
d="M17 192h130q1 -41 26 -65.5t66 -24.5q39 0 64.5 23.5t25.5 60.5q0 36 -20.5 58.5t-70.5 40.5q-72 26 -96 38t-45 33q-56 55 -56 137q0 78 58 134t139 56q95 0 155 -73q40 -49 43 -117h-128q-6 74 -74 74q-69 0 -69 -68q0 -32 26 -53q22 -18 86 -40q78 -28 115 -62
q61 -57 61 -141q0 -90 -61 -150q-67 -66 -156 -66q-111 0 -175 82q-40 51 -44 123zM71 861h98q14 -44 70 -44q33 0 49.5 8.5t25.5 35.5h98q-6 -56 -48 -91q-48 -39 -122 -39q-83 0 -130 45q-36 34 -41 85z" />
    <glyph glyph-name="Smacron" unicode="&#xeb20;" horiz-adv-x="485" 
d="M17 192h130q1 -41 26 -65.5t66 -24.5q39 0 64.5 23.5t25.5 60.5q0 36 -20.5 58.5t-70.5 40.5q-72 26 -96 38t-45 33q-56 55 -56 137q0 78 58 134t139 56q95 0 155 -73q40 -49 43 -117h-128q-6 74 -74 74q-69 0 -69 -68q0 -32 26 -53q22 -18 86 -40q78 -28 115 -62
q61 -57 61 -141q0 -90 -61 -150q-67 -66 -156 -66q-111 0 -175 82q-40 51 -44 123zM79 753v86h328v-86h-328z" />
    <glyph glyph-name="smacron" unicode="&#xeb21;" horiz-adv-x="406" 
d="M14 158h123q17 -65 66 -65q23 0 38.5 14.5t15.5 36.5t-17.5 36t-67.5 30q-66 21 -94 47q-46 42 -46 107t49 110.5t119 45.5q78 0 127 -58q36 -42 37 -96h-118q-8 43 -47 43q-20 0 -33.5 -12t-13.5 -31q0 -30 52 -46q90 -28 117 -47q57 -41 57 -114t-54 -124.5t-130 -51.5
q-94 0 -146 71q-27 38 -34 104zM51 587v80h308v-80h-308z" />
    <glyph glyph-name="Tcaron_1" unicode="&#xeb22;" horiz-adv-x="553" 
d="M133 0v554h-124v116h372v-116h-124v-554h-124zM435 580v90h109v-96q0 -43 -29.5 -67.5t-79.5 -24.5v51q48 7 48 35q0 8 -1 12h-47z" />
    <glyph glyph-name="tcaron_1" unicode="&#xeb23;" horiz-adv-x="278" 
d="M67 0v392h-59v111h59v167h121v-167h72v-111h-72v-392h-121zM-42 859h128l39 -58l37 58h128l-106 -125h-107z" />
    <glyph glyph-name="Tmacron" unicode="&#xeb24;" horiz-adv-x="391" 
d="M133 0v554h-124v116h372v-116h-124v-554h-124zM31 753v86h328v-86h-328z" />
    <glyph glyph-name="tmacron" unicode="&#xeb25;" horiz-adv-x="278" 
d="M67 0v392h-59v111h59v167h121v-167h72v-111h-72v-392h-121zM-30 753v86h328v-86h-328z" />
    <glyph glyph-name="ucommaaccent" unicode="&#xeb26;" horiz-adv-x="554" 
d="M379 503h121v-503h-111v50q-29 -37 -57.5 -52t-72.5 -15q-83 0 -145 56t-62 169v295h121v-257q0 -152 104 -152q102 0 102 152v257zM220 -143v90h109v-96q0 -43 -29 -67.5t-79 -24.5v51q48 7 48 35q0 8 -1 12h-48z" />
    <glyph glyph-name="udotaccent" unicode="&#xeb27;" horiz-adv-x="554" 
d="M379 503h121v-503h-111v50q-29 -37 -57.5 -52t-72.5 -15q-83 0 -145 56t-62 169v295h121v-257q0 -152 104 -152q102 0 102 152v257zM220 573v121h117v-121h-117z" />
    <glyph glyph-name="Ybreve" unicode="&#xeb29;" horiz-adv-x="552" 
d="M213 0v247l-220 423h136l146 -308l146 308h137l-221 -423v-247h-124zM112 861h98q14 -44 70 -44q33 0 47 8q18 9 28 36h97q-4 -55 -48 -91q-47 -39 -122 -39q-82 0 -129 45q-36 34 -41 85z" />
    <glyph glyph-name="ybreve" unicode="&#xeb2a;" horiz-adv-x="502" 
d="M87 -168l93 215l-184 456h138l114 -323l121 323h137l-289 -671h-130zM90 700h93q21 -48 74 -48q52 0 73 48h93q-8 -62 -51.5 -96.5t-115.5 -34.5q-71 0 -114.5 34.5t-51.5 96.5z" />
    <glyph glyph-name="yhungarumlaut" unicode="&#xeb2b;" horiz-adv-x="502" 
d="M87 -168l93 215l-184 456h138l114 -323l121 323h137l-289 -671h-130zM189 554l-52 48l134 159l61 -59zM343 554l-52 48l134 159l61 -59z" />
    <glyph glyph-name="zmacron" unicode="&#xeb2c;" horiz-adv-x="414" 
d="M17 0v109l222 283h-197v111h342v-109l-222 -283h238v-111h-383zM55 587v80h308v-80h-308z" />
    <glyph glyph-name="adieresistilde" unicode="&#xeb2d;" horiz-adv-x="616" 
d="M561 503v-503h-111v62q-11 -14 -40 -34q-65 -45 -135 -45q-106 0 -175.5 77t-69.5 194q0 113 72 189.5t179 76.5q48 0 94.5 -22.5t74.5 -58.5v64h111zM300 409q-63 0 -106 -46t-43 -114q0 -66 43.5 -111t105.5 -45q63 0 105 45t42 113q0 69 -41.5 113.5t-105.5 44.5z
M170 573v121h117v-121h-117zM351 573v121h117v-121h-117zM198 745l-40 70q41 40 88 40q37 0 74 -13q25 -9 56 -9q38 0 66 28l38 -73q-35 -42 -96 -42q-16 0 -84 18q-30 8 -45 8q-31 0 -57 -27z" />
    <glyph glyph-name="dcaron_1" unicode="&#xeb30;" horiz-adv-x="615" 
d="M559 670v-670h-110v61q-72 -78 -173 -78q-100 0 -173.5 79.5t-73.5 188.5q0 110 74.5 189.5t178.5 79.5q94 0 156 -62v212h121zM298 409q-59 0 -103.5 -46.5t-44.5 -109.5q0 -66 43.5 -112.5t105.5 -46.5q61 0 105 46.5t44 110.5t-44.5 111t-105.5 47zM329 852h121
l46 -58l43 58h122l-106 -125h-107z" />
    <glyph glyph-name="Lcaron_1" unicode="&#xeb31;" horiz-adv-x="407" 
d="M62 0v670h124v-554h204v-116h-328zM246 580v90h109v-96q0 -43 -29 -67.5t-79 -24.5v51q48 6 48 35q0 8 -1 12h-48z" />
    <glyph glyph-name="lcaron_1" unicode="&#xeb32;" horiz-adv-x="231" 
d="M55 0v670h121v-670h-121zM-65 859h131l51 -58l45 58h132l-121 -125h-108z" />
    <glyph glyph-name="Commaaccent" unicode="&#xeb86;" 
d="M197 580v90h109v-96q0 -43 -29 -67.5t-79 -24.5v51q48 6 48 35q0 8 -1 12h-48z" />
    <glyph glyph-name="commaaccent" unicode="&#xeb87;" 
d="M197 580v90h109v-96q0 -43 -29 -67.5t-79 -24.5v51q48 6 48 35q0 8 -1 12h-48z" />
    <glyph glyph-name="commamirror" unicode="&#xeb9d;" 
d="M306 659v-90h-109v96q0 43 28.5 67.5t79.5 24.5v-51q-48 -6 -48 -35q0 -8 1 -12h48z" />
    <glyph glyph-name="Slashstroke" unicode="&#xeb9e;" 
d="M53 174v125l288 207v-125z" />
    <glyph glyph-name="slashstroke" unicode="&#xeb9f;" 
d="M362 480v-109l-221 -157v109z" />
    <glyph glyph-name="Dieresisnarrow" unicode="&#xebce;" 
d="M112 740v121h114v-121h-114zM276 740v121h114v-121h-114z" />
    <glyph glyph-name="dieresisnarrow" unicode="&#xebcf;" 
d="M117 573v121h111v-121h-111zM274 573v121h111v-121h-111z" />
    <glyph glyph-name="Pts" unicode="&#xec00;" horiz-adv-x="894" 
d="M60 0v670h146q57 0 81 -4q43 -6 75 -29q83 -58 83 -170q0 -118 -82 -179q-31 -23 -76 -29q-22 -3 -83 -3h-23v-256h-121zM181 370h19q50 0 72 10q49 22 49 86q0 62 -49 82q-19 8 -66 8h-25v-186zM476 0v231h-38v72h38v99h87v-99h46v-72h-46v-231h-87zM620 100h85
q10 -38 40 -38q31 0 31 27q0 20 -51 35t-72 36.5t-21 57.5q0 40 32.5 67.5t78.5 27.5t76 -27.5t32 -69.5h-82q-3 25 -27 25q-26 0 -26 -22q0 -10 8.5 -15t43.5 -15q92 -26 92 -92q0 -44 -35.5 -75.5t-85.5 -31.5q-62 0 -96 43q-19 24 -23 67z" />
    <glyph glyph-name="peseta2" unicode="&#xec01;" 
d="M63 529v141h146q68 0 98 -7q47 -10 82.5 -46t50.5 -88h62v-107h-58q-29 -143 -150 -162q-26 -4 -87 -4h-23v-256h-121v422h-62v107h62zM184 370h19q48 0 72 10q49 21 49 85q0 63 -49 83q-19 8 -66 8h-25v-186z" />
    <glyph glyph-name="onenarrow" unicode="&#xec02;" horiz-adv-x="328" 
d="M126 0v556h-84v114h205v-670h-121z" />
    <glyph glyph-name="oneone" unicode="&#xec03;" horiz-adv-x="834" 
d="M143 268v328h-54v74h138v-402h-84zM240 0l278 670h75l-277 -670h-76zM636 0v328h-54v74h138v-402h-84z" />
    <glyph glyph-name="space10mm" unicode="&#xec05;" horiz-adv-x="67" 
 />
    <glyph glyph-name="space5mm" unicode="&#xec06;" horiz-adv-x="34" 
 />
    <glyph glyph-name="space2mm" unicode="&#xec07;" horiz-adv-x="13" 
 />
    <glyph glyph-name="space1mm" unicode="&#xec08;" horiz-adv-x="7" 
 />
    <glyph glyph-name="spacehalfmm" unicode="&#xec09;" horiz-adv-x="3" 
 />
    <glyph glyph-name="eightperemspace" unicode="&#xec04;" horiz-adv-x="126" 
 />
    <glyph glyph-name="ft" unicode="&#xec0a;" horiz-adv-x="548" 
d="M74 0v392h-43v111h43q7 77 41 120q48 60 124 60q20 0 33 -1v-117q-44 0 -59 -12t-18 -50h141v167h121v-167h73v-111h-73v-392h-121v392h-141v-392h-121z" />
    <glyph glyph-name="fff" unicode="&#xec0b;" horiz-adv-x="807" 
d="M74 0v392h-43v111h43q7 77 41 120q48 60 124 60q20 0 33 -1v-117q-44 0 -59 -12t-18 -50h142q7 77 41 120q48 60 123 60q20 0 33 -1v-117q-43 0 -58 -12t-18 -50h141q7 77 41 120q48 60 123 60q21 0 34 -1v-117q-44 0 -59 -12t-18 -50h70v-111h-70v-392h-121v392h-141
v-392h-121v392h-142v-392h-121z" />
    <glyph glyph-name="fft" unicode="&#xec0c;" horiz-adv-x="810" 
d="M74 0v392h-43v111h43q7 77 41 120q48 60 124 60q20 0 33 -1v-117q-44 0 -59 -12t-18 -50h142q7 77 41 120q48 60 123 60q20 0 33 -1v-117q-43 0 -58 -12t-18 -50h141v167h121v-167h72v-111h-72v-392h-121v392h-141v-392h-121v392h-142v-392h-121z" />
    <glyph glyph-name="currency_2" unicode="&#xec13;" horiz-adv-x="596" 
d="M115 470l-73 73l48 47l73 -73q62 45 134 45q77 0 135 -45l76 76l47 -48l-76 -75q44 -62 44 -133q0 -73 -44 -136l74 -74l-48 -47l-73 73q-63 -44 -136 -44t-133 44l-76 -76l-47 48l76 76q-45 60 -45 136q0 71 44 133zM298 479q-55 0 -96 -42t-41 -99q0 -61 39.5 -103
t96.5 -42q58 0 98 42t40 102q0 58 -40.5 100t-96.5 42z" />
    <glyph glyph-name="Dotaccent" unicode="&#xefed;" 
d="M191 740v121h121v-121h-121z" />
    <glyph glyph-name="Breve" unicode="&#xefee;" 
d="M80 861h98q14 -44 70 -44q32 0 48.5 8.5t25.5 35.5h98q-6 -56 -48 -91q-47 -39 -122 -39q-82 0 -129 45q-36 34 -41 85z" />
    <glyph glyph-name="Ogonek" unicode="&#xeff1;" 
d="M375 0h68q-64 -34 -64 -72q0 -17 13 -28.5t33 -11.5q22 0 44 9v-72q-35 -13 -65 -13q-46 0 -76.5 26t-30.5 65q0 57 78 97z" />
    <glyph glyph-name="Cedilla" unicode="&#xeff2;" 
d="M240 0h47l-23 -52q18 7 29 7q35 0 62 -29t27 -67q0 -40 -28.5 -69t-68.5 -29t-66.5 23t-30.5 62h55q10 -31 40 -31q17 0 28.5 12.5t11.5 31.5q0 39 -37 39q-23 0 -38 -24l-52 26z" />
    <glyph glyph-name="Ring" unicode="&#xeff3;" 
d="M252 923q43 0 73 -30t30 -73t-30 -73t-73 -30t-73.5 30.5t-30.5 73.5q0 42 30.5 72t73.5 30zM252 861q-16 0 -28 -12t-12 -28q0 -18 11.5 -30t28.5 -12q16 0 27.5 12t11.5 29t-11.5 29t-27.5 12z" />
    <glyph glyph-name="Tilde" unicode="&#xeff5;" 
d="M121 729l-39 79q40 42 98 42q31 0 72 -14q35 -12 58 -12q41 0 72 32l39 -75q-45 -48 -97 -48q-22 0 -92 21q-27 8 -38 8q-36 0 -73 -33z" />
    <glyph glyph-name="Circumflex" unicode="&#xeff7;" 
d="M70 734l123 125h111l125 -125h-132l-48 58l-48 -58h-131z" />
    <glyph glyph-name="Commabelow" unicode="&#xf634;" 
d="M197 -143v90h109v-96q0 -43 -29 -67.5t-79 -24.5v51q48 6 48 35q0 8 -1 12h-48z" />
    <glyph glyph-name="zeronarrow" unicode="&#xf639;" horiz-adv-x="516" 
d="M481 458v-247q0 -98 -62 -161t-158 -63q-106 0 -175 76q-51 56 -51 154v241q0 112 76 173q65 52 147 52q97 0 160 -63.5t63 -161.5zM156 456v-235q0 -55 28.5 -87.5t76.5 -32.5q46 0 73.5 31.5t27.5 83.5v243q0 43 -31 76.5t-72 33.5q-44 0 -73.5 -32.5t-29.5 -80.5z" />
    <glyph glyph-name="twonarrow" unicode="&#xf63a;" horiz-adv-x="496" 
d="M33 0v114l239 223q74 69 74 133q0 44 -27.5 72t-70.5 28q-34 0 -61.5 -21.5t-35.5 -54.5q-4 -16 -4 -54h-121l-1 22q-4 92 61.5 157t158.5 65t157 -64t64 -156q0 -87 -59 -155q-40 -46 -70 -73l-136 -122h265v-114h-433z" />
    <glyph glyph-name="threenarrow" unicode="&#xf63b;" 
d="M196 321v114h21q38 0 60.5 19t22.5 52q0 28 -17.5 45.5t-45.5 17.5q-48 0 -55 -61h-121q7 75 45 116q55 59 133 59q75 0 128.5 -53.5t53.5 -127.5q0 -73 -58 -118q53 -23 79 -67q28 -48 28 -107q0 -94 -66.5 -158.5t-164.5 -64.5q-92 0 -156.5 61.5t-69.5 153.5h121
q4 -43 35 -72t73 -29q43 0 75 32.5t32 76.5q0 51 -36 81t-98 30h-19z" />
    <glyph glyph-name="fournarrow" unicode="&#xf63c;" horiz-adv-x="515" 
d="M8 199l308 471h102v-455h71v-114h-71v-101h-121v101h-289v98zM297 215v252l-160 -252h160z" />
    <glyph glyph-name="fivenarrow" unicode="&#xf63d;" horiz-adv-x="516" 
d="M47 319l63 351h304v-114h-213l-22 -124q43 20 86 20q88 0 151 -68t63 -163q0 -98 -68 -166t-165 -68q-90 0 -158 63t-71 149h120q19 -98 107 -98q48 0 81 34.5t33 84.5q0 48 -33.5 83t-79.5 35q-52 0 -90 -48z" />
    <glyph glyph-name="sixnarrow" unicode="&#xf63e;" horiz-adv-x="516" 
d="M266 670h142l-149 -227q28 2 33 2q81 0 139.5 -64t58.5 -153q0 -101 -67.5 -171t-164.5 -70t-165 69t-68 168q0 80 43 145zM256 334q-46 0 -78 -33.5t-32 -81.5q0 -49 32.5 -83.5t78.5 -34.5q47 0 79.5 33.5t32.5 81.5q0 49 -33 83.5t-80 34.5z" />
    <glyph glyph-name="sevennarrow" unicode="&#xf63f;" horiz-adv-x="422" 
d="M38 0l250 556h-269v114h395v-114l-242 -556h-134z" />
    <glyph glyph-name="eightnarrow" unicode="&#xf640;" horiz-adv-x="496" 
d="M124 373q-60 60 -60 126q0 75 54 129.5t130 54.5q77 0 131.5 -53.5t54.5 -129.5q0 -74 -60 -127q37 -21 55 -42q43 -49 43 -125q0 -90 -66 -154.5t-159 -64.5t-158 65t-65 157q0 65 40 117q23 30 60 47zM251 568q-31 0 -52 -20.5t-21 -49.5q0 -30 21 -51t50 -21
q30 0 51 21t21 50t-21 50t-49 21zM250 307q-44 0 -74.5 -29.5t-30.5 -72.5t30 -73.5t73 -30.5t73 30.5t30 72.5t-30 72.5t-71 30.5z" />
    <glyph glyph-name="ninenarrow" unicode="&#xf641;" horiz-adv-x="516" 
d="M107 0l148 226q-20 -2 -24 -2q-88 0 -146.5 63t-58.5 157q0 102 66 171t164 69q103 0 174 -76q60 -64 60 -157q0 -86 -58 -174l-183 -277h-142zM259 563q-48 0 -82 -33.5t-34 -80.5q0 -48 33.5 -82t80.5 -34q48 0 81.5 34t33.5 81t-33.5 81t-79.5 34z" />
    <glyph glyph-name="dotlessj" unicode="&#xf6be;" horiz-adv-x="231" 
d="M55 503h121v-482q0 -84 -47 -136t-124 -53v117q35 6 45 24q5 11 5 51v479z" />
    <glyph glyph-name="Scedilla1" unicode="&#xf6c1;" horiz-adv-x="485" 
d="M235 -13l-13 -39q18 7 28 7q36 0 63 -29t27 -67q0 -40 -28.5 -69t-68.5 -29t-66.5 23t-30.5 62h55q10 -31 40 -31q17 0 28.5 13t11.5 32q0 38 -37 38q-23 0 -38 -24l-53 26l38 90q-74 14 -124 71.5t-50 130.5h130q1 -41 26 -65.5t66 -24.5q39 0 64.5 23.5t25.5 60.5
q0 36 -20.5 58.5t-70.5 40.5q-73 27 -96.5 38.5t-44.5 32.5q-56 54 -56 137q0 78 58 134t139 56q95 0 155 -73q40 -49 43 -117h-128q-6 74 -74 74q-69 0 -69 -68q0 -32 26 -53q23 -18 86 -40q78 -27 115 -62q61 -57 61 -141q0 -119 -100 -182q-51 -33 -118 -34z" />
    <glyph glyph-name="scedilla1" unicode="&#xf6c2;" horiz-adv-x="406" 
d="M191 -17l-16 -35q20 7 29 7q36 0 62.5 -29t26.5 -67q0 -40 -28.5 -69t-68.5 -29t-66 23t-31 62h56q10 -31 40 -31q17 0 28 12.5t11 31.5q0 39 -36 39q-24 0 -39 -24l-52 26l39 89q-123 36 -132 169h123q17 -64 66 -64q23 0 38.5 14.5t15.5 36.5t-17.5 36t-67.5 30
q-66 21 -94 47q-46 42 -46 107q0 64 49 109.5t119 45.5q78 0 127 -58q36 -42 37 -96h-118q-8 43 -47 43q-20 0 -33.5 -12t-13.5 -31q0 -30 52 -46q89 -27 117 -47q57 -40 57 -114q0 -75 -53 -124.5t-134 -51.5z" />
    <glyph glyph-name="Acute" unicode="&#xf6c9;" 
d="M210 717l-44 80l204 121l47 -92z" />
    <glyph glyph-name="Caron" unicode="&#xf6ca;" 
d="M74 859h131l51 -58l45 58h132l-121 -125h-108z" />
    <glyph glyph-name="Dieresis" unicode="&#xf6cb;" 
d="M97 740v121h121v-121h-121zM284 740v121h121v-121h-121z" />
    <glyph glyph-name="Grave" unicode="&#xf6ce;" 
d="M293 717l-207 109l47 92l204 -121z" />
    <glyph glyph-name="Hungarumlaut" unicode="&#xf6cf;" 
d="M330 717l-52 65l151 129l57 -75zM149 717l-52 65l151 129l57 -75z" />
    <glyph glyph-name="Macron" unicode="&#xf6d0;" 
d="M87 753v86h328v-86h-328z" />
    <glyph glyph-name="onefitted" unicode="&#xf6dc;" horiz-adv-x="328" 
d="M126 0v556h-84v114h205v-670h-121z" />
    <glyph glyph-name="centsuperior" unicode="&#xf6e0;" horiz-adv-x="341" 
d="M213 289h-80v59q-43 8 -73.5 45.5t-30.5 82.5q0 44 30 80.5t74 45.5v55h80v-55q38 -9 65 -36t33 -61h-87q-15 25 -52 25q-25 0 -42 -16t-17 -40t17 -39.5t43 -15.5q24 0 48 21h91q-31 -73 -99 -92v-59z" />
    <glyph glyph-name="commasuperior" unicode="&#xf6e2;" horiz-adv-x="167" 
d="M42 268v84h84v-89q0 -37 -21.5 -60.5t-56.5 -23.5q-1 0 -5 1v42q37 7 37 35q0 7 -1 11h-37z" />
    <glyph glyph-name="dollarsuperior" unicode="&#xf6e4;" horiz-adv-x="341" 
d="M29 408h83q2 -46 49 -46q20 0 34 12t14 30q0 25 -20 36q-7 4 -42 13q-101 26 -101 109q0 81 79 102v69h80v-71q32 -9 52.5 -35.5t22.5 -61.5h-79q-10 33 -36 33q-14 0 -24.5 -10t-10.5 -24q0 -19 18 -28q5 -4 52 -19q93 -26 93 -112q0 -40 -24 -70.5t-64 -41.5v-71h-80
v71q-96 26 -96 105v10z" />
    <glyph glyph-name="hyphensuperior" unicode="&#xf6e6;" horiz-adv-x="212" 
d="M22 391v66h168v-66h-168z" />
    <glyph glyph-name="periodsuperior" unicode="&#xf6e8;" horiz-adv-x="167" 
d="M42 268v84h84v-84h-84z" />
    <glyph glyph-name="asuperior" unicode="&#xf6e9;" horiz-adv-x="411" 
d="M370 571v-303h-77v32q-53 -42 -109 -42q-69 0 -114.5 46.5t-45.5 116.5q0 68 47 114t117 46q57 0 105 -42v32h77zM200 510q-39 0 -65.5 -26.5t-26.5 -64.5q0 -37 27 -63t65 -26q39 0 65 26t26 64q0 40 -25.5 65t-65.5 25z" />
    <glyph glyph-name="esuperior" unicode="&#xf6ec;" horiz-adv-x="391" 
d="M362 385h-249q28 -55 82 -55q45 0 70 38h91q-15 -49 -59.5 -79.5t-99.5 -30.5q-72 0 -122.5 47.5t-50.5 114.5q0 68 51 116t122 48q70 0 120 -47.5t50 -112.5q0 -15 -5 -39zM111 449h172q-7 28 -30.5 45.5t-54.5 17.5t-55.5 -17.5t-31.5 -45.5z" />
    <glyph glyph-name="isuperior" unicode="&#xf6ed;" horiz-adv-x="164" 
d="M40 268v303h84v-303h-84zM40 598v72h84v-72h-84z" />
    <glyph glyph-name="lsuperior" unicode="&#xf6ee;" horiz-adv-x="164" 
d="M40 268v402h84v-402h-84z" />
    <glyph glyph-name="msuperior" unicode="&#xf6ef;" horiz-adv-x="568" 
d="M40 268v303h77v-19q31 29 82 29q59 0 93 -44q35 44 104 44q64 0 99 -35.5t35 -100.5v-177h-84v168q0 74 -58 74q-34 0 -51 -28q-11 -18 -11 -63v-151h-84v168q0 74 -60 74q-58 0 -58 -91v-151h-84z" />
    <glyph glyph-name="osuperior" unicode="&#xf6f0;" horiz-adv-x="398" 
d="M200 582q72 0 122.5 -47.5t50.5 -114.5q0 -68 -51.5 -115t-124.5 -47q-71 0 -122 48t-51 116q0 65 52 112.5t124 47.5zM199 510q-37 0 -64 -26.5t-27 -62.5q0 -38 26 -64.5t65 -26.5q38 0 64 26t26 63t-26.5 64t-63.5 27z" />
    <glyph glyph-name="rsuperior" unicode="&#xf6f1;" horiz-adv-x="204" 
d="M40 268v303h77v-21q30 31 68 31h9v-76q-70 -1 -70 -67v-170h-84z" />
    <glyph glyph-name="ssuperior" unicode="&#xf6f2;" horiz-adv-x="277" 
d="M14 368h85q11 -38 40 -38q31 0 31 27q0 20 -52 35q-92 27 -92 95q0 40 32.5 67.5t78.5 27.5t77 -27.5t32 -70.5h-82q-4 26 -27 26q-27 0 -27 -22q0 -10 8.5 -15t43.5 -15q92 -26 92 -93q0 -44 -35.5 -75.5t-85.5 -31.5q-62 0 -96 43q-19 24 -23 67z" />
    <glyph glyph-name="tsuperior" unicode="&#xf6f3;" horiz-adv-x="195" 
d="M48 268v231h-38v72h38v99h84v-99h46v-72h-46v-231h-84z" />
    <glyph glyph-name="ff" unicode="&#xfb00;" horiz-adv-x="544" 
d="M74 0v392h-43v111h43q7 77 41 120q48 60 124 60q20 0 33 -1v-117q-44 0 -59 -12t-18 -50h141q7 77 41 120q48 60 124 60q20 0 33 -1v-117q-44 0 -59 -12.5t-18 -49.5h71v-111h-71v-392h-121v392h-141v-392h-121z" />
    <glyph glyph-name="ffi" unicode="&#xfb03;" horiz-adv-x="775" 
d="M74 0v392h-43v111h43q7 77 41 120q48 60 124 60q20 0 33 -1v-117q-44 0 -59 -12t-18 -50h142q7 77 41 120q48 60 123 60q20 0 33 -1v-117q-43 0 -58 -12t-18 -50h70v-111h-70v-392h-121v392h-142v-392h-121zM599 0v503h121v-503h-121zM599 559v111h121v-111h-121z" />
    <glyph glyph-name="ffl" unicode="&#xfb04;" horiz-adv-x="775" 
d="M74 0v392h-43v111h43q7 77 41 120q48 60 124 60q20 0 33 -1v-117q-44 0 -59 -12t-18 -50h142q7 77 41 120q48 60 123 60q20 0 33 -1v-117q-43 0 -58 -12t-18 -50h70v-111h-70v-392h-121v392h-142v-392h-121zM599 0v670h121v-670h-121z" />
    <glyph glyph-name="glyph759" horiz-adv-x="251" 
 />
    <glyph glyph-name="sigmaterminal" horiz-adv-x="511" 
d="M457 -172h-122q29 91 29 112q0 34 -44 45l-80 20q-80 20 -127 64q-77 72 -77 182q0 108 70 178t178 70q113 0 178 -77q37 -44 42 -110h-120q-5 45 -33 71t-74 26q-52 0 -84 -37t-32 -97q0 -75 51 -119q26 -22 95 -41l51 -14q129 -35 129 -139q0 -48 -30 -134z" />
    </font>
</defs>
</svg>
